<svg width="630" height="457" viewBox="0 0 630 457" fill="none" xmlns="http://www.w3.org/2000/svg">
<path d="M314.959 -0.000119086C401.953 -0.000111481 476.834 14.7555 537.503 43.8742C579.656 64.0972 629.903 98.9853 629.903 150.366C629.903 201.746 579.655 236.65 537.503 256.873C476.819 285.976 401.953 300.671 314.959 300.671C227.966 300.671 153.085 285.901 92.4009 256.873C50.2483 236.65 0.000435894 201.746 0.000440386 150.366C0.000444878 98.9852 50.2483 64.0972 92.4009 43.8742C153.055 14.7555 227.951 -0.000126693 314.959 -0.000119086ZM314.959 299.237C401.726 299.237 476.381 284.526 536.853 255.513C578.613 235.472 628.393 200.961 628.393 150.366C628.393 99.7706 578.553 65.2601 536.853 45.2335C476.441 16.2205 401.726 1.51017 314.959 1.51017C228.192 1.51016 153.523 16.2205 93.0655 45.2335C51.2904 65.2601 1.51076 99.7706 1.51076 150.366C1.51075 200.961 51.3508 235.471 93.0654 255.513C153.523 284.526 228.192 299.237 314.959 299.237Z" fill="black"/>
<path d="M314.959 7.12845C397.452 7.12846 468.769 21.1743 526.915 48.9035C599.667 83.6405 614.936 123.226 614.936 150.366C614.936 177.506 599.667 217.136 526.915 251.828C468.769 279.557 397.452 293.618 314.959 293.618C231.802 293.618 160.485 279.557 102.988 251.828C62.829 232.466 14.9674 199.149 14.9674 150.366C14.9674 101.583 62.829 68.2656 102.988 48.9035C160.485 21.1743 231.802 7.12845 314.959 7.12845ZM314.959 292.108C397.226 292.108 468.331 278.092 526.266 250.469C598.308 216.124 613.426 177.068 613.426 150.366C613.426 123.664 598.323 84.6222 526.266 50.2628C468.331 22.6393 397.226 8.63877 314.959 8.63877C232.028 8.63876 160.908 22.6393 103.637 50.2627C63.8711 69.4436 16.4777 102.368 16.4777 150.366C16.4777 198.363 63.8711 231.288 103.637 250.469C160.938 278.092 232.044 292.108 314.959 292.108Z" fill="black"/>
<path d="M314.96 14.2422C393.39 14.2422 461.112 27.6235 516.238 53.9934C554.449 72.2681 599.984 103.833 599.984 150.366C599.984 196.898 554.449 228.479 516.238 246.754C461.112 273.124 393.39 286.49 314.96 286.49C236.53 286.49 168.792 273.123 113.666 246.754C75.4706 228.479 29.9349 196.914 29.9349 150.366C29.935 103.818 75.4707 72.2681 113.666 53.9934C168.792 27.6235 236.514 14.2422 314.96 14.2422ZM314.96 284.979C393.163 284.979 460.659 271.659 515.589 245.379C553.346 227.256 598.474 196.128 598.474 150.366C598.474 104.604 553.407 73.431 515.528 55.3074C460.598 29.0281 393.103 15.7072 314.899 15.7072C236.696 15.7072 169.185 29.028 114.255 55.3073C76.4976 73.431 31.3848 104.558 31.3848 150.321C31.3848 196.083 76.4523 227.256 114.255 245.334C169.245 271.659 236.756 284.979 314.96 284.979Z" fill="black"/>
<path d="M314.959 21.3705C389.81 21.3705 453.998 34.0269 505.756 58.9922C541.913 76.4514 585.002 106.431 585.002 150.366C585.002 194.3 541.898 224.371 505.741 241.754C453.983 266.704 389.795 279.361 314.944 279.361C240.592 279.361 176.404 266.704 124.132 241.754C58.6306 210.461 44.8717 174.787 44.8717 150.366C44.8717 125.944 58.6306 90.2706 124.132 58.9922C176.419 34.0269 240.652 21.3705 314.959 21.3705ZM314.959 277.851C389.584 277.851 453.56 265.255 505.107 240.395C540.871 223.147 583.492 193.515 583.492 150.366C583.492 107.216 540.856 77.5992 505.092 60.3515C453.53 35.4919 389.569 22.8808 314.944 22.8808C240.819 22.8808 176.842 35.4918 124.782 60.3515C59.9898 91.2976 46.382 126.382 46.382 150.366C46.382 174.349 59.9747 209.449 124.782 240.395C176.857 265.239 240.834 277.851 314.959 277.851Z" fill="black"/>
<path d="M314.959 28.4994C355.239 28.4994 416.709 34.3896 468.437 50.9426C498.899 60.684 522.913 73.1441 539.844 87.9602C559.885 105.525 570.05 126.518 570.05 150.366C570.05 174.214 559.885 195.222 539.844 212.772C522.913 227.588 498.899 240.048 468.437 249.789C416.709 266.403 355.239 272.248 314.959 272.248C274.68 272.248 213.014 266.508 161.95 250.393C94.1981 229.038 59.8537 195.373 59.8537 150.366C59.8537 105.359 94.1981 71.7092 161.95 50.3384C212.999 34.1631 274.468 28.4994 314.959 28.4994ZM314.959 270.737C355.118 270.737 416.422 264.847 467.983 248.355C534.709 226.999 568.54 193.984 568.54 150.366C568.54 106.748 534.709 73.7331 467.983 52.3774C416.422 35.8848 355.118 30.0097 314.959 30.0097C274.574 30.0097 213.301 35.7187 162.419 51.7732C95.3761 72.9175 61.3791 106.144 61.3791 150.366C61.3791 194.588 95.3761 227.814 162.419 248.959C213.301 265.013 274.574 270.737 314.959 270.737Z" fill="black"/>
<path d="M314.96 35.6734C352.944 35.6734 410.879 41.2464 459.587 56.8177C523.019 77.1464 555.098 108.621 555.098 150.457C555.098 192.292 522.959 223.721 459.586 244.095C410.879 259.712 352.944 265.24 314.96 265.24C276.976 265.24 218.859 259.833 170.816 244.669C107.112 224.552 74.8061 192.866 74.8061 150.487C74.8061 108.108 107.112 76.4818 170.816 56.3042C218.859 41.0199 276.779 35.6734 314.96 35.6734ZM314.96 263.729C352.823 263.729 410.592 258.187 459.118 242.585C521.796 222.483 553.588 191.492 553.588 150.457C553.588 109.422 521.871 78.415 459.118 58.328C410.592 42.7718 352.823 37.1837 314.96 37.1837C277.096 37.1837 219.161 42.5755 171.269 57.6936C108.274 77.5843 76.3164 108.787 76.3164 150.426C76.3164 192.065 108.274 223.283 171.269 243.174C219.161 258.217 276.9 263.609 314.96 263.609L314.96 263.729Z" fill="black"/>
<path d="M314.96 42.7416C350.512 42.7416 404.792 47.9672 450.509 62.6323C509.985 81.7075 540.131 111.189 540.131 150.366C540.131 189.543 509.925 219.039 450.509 238.1C404.792 252.765 350.512 257.99 314.96 257.99C279.407 257.99 224.93 252.931 179.863 238.704C120.085 219.84 89.7731 190.117 89.7731 150.366C89.7731 110.615 120.085 80.8919 179.863 62.0282C224.93 47.7558 279.196 42.7416 314.96 42.7416ZM314.96 256.48C350.391 256.48 404.49 251.284 450.056 236.665C508.822 217.816 538.621 188.788 538.621 150.366C538.621 111.944 508.822 82.9157 450.056 64.0671C404.49 49.4624 350.376 44.2519 314.96 44.2519C279.543 44.2519 225.232 49.2661 180.24 63.4781C121.172 82.1152 91.2078 111.355 91.2078 150.366C91.2078 189.377 121.248 218.617 180.24 237.269C225.232 251.435 279.316 256.48 314.96 256.48Z" fill="black"/>
<path d="M314.959 49.8699C348.186 49.8699 398.932 54.7331 441.538 68.3863C497.042 86.1777 525.179 113.695 525.179 150.366C525.179 187.036 497.012 214.357 441.463 232.209C398.63 245.968 348.035 250.861 314.959 250.861C281.884 250.861 231.153 245.968 188.366 232.209C132.877 214.372 104.74 186.9 104.74 150.366C104.74 113.831 132.847 86.1626 188.29 68.3863C230.851 54.7331 281.627 49.8699 314.959 49.8699ZM314.959 249.351C347.914 249.351 398.343 244.473 440.994 230.759C495.849 213.134 523.668 186.084 523.668 150.366C523.668 72.0715 387.137 51.3803 314.959 51.3802C242.782 51.3802 106.235 72.0714 106.235 150.366C106.235 186.115 134.01 213.164 188.819 230.774C231.44 244.473 281.929 249.351 314.959 249.351Z" fill="black"/>
<path d="M314.96 56.9988C346.147 56.9988 393.571 61.5298 433.141 74.3372C484.28 90.8599 510.167 116.444 510.167 150.366C510.167 226.969 369.225 243.748 314.914 243.748C285.69 243.748 237.345 239.142 197.262 226.153C145.76 209.54 119.647 183.985 119.647 150.366C119.647 116.127 145.654 90.4521 196.929 74.02C236.122 61.4694 283.636 56.9988 314.96 56.9988ZM314.96 242.238C368.847 242.238 508.702 225.73 508.702 150.366C508.702 77.7051 381.972 58.5091 314.96 58.5091C283.742 58.5091 236.424 62.9645 197.443 75.4699C146.863 91.6603 121.203 116.867 121.203 150.366C121.203 183.26 146.968 208.271 197.76 224.718C237.632 237.646 285.841 242.238 314.96 242.238Z" fill="black"/>
<path d="M314.96 64.1126C343.535 64.1126 386.926 68.1753 423.022 79.563C470.944 94.6661 495.245 118.499 495.245 150.366C495.245 182.234 470.959 206.127 423.037 221.215C387.016 232.572 343.58 236.62 314.96 236.62C286.339 236.62 242.888 232.572 206.867 221.214C158.96 206.111 134.659 182.279 134.659 150.366C134.659 118.453 158.96 94.6811 206.897 79.563C242.978 68.1753 286.369 64.1126 314.96 64.1126ZM314.96 235.109C343.474 235.109 386.729 231.077 422.584 219.78C469.796 204.903 493.734 181.554 493.734 150.306C493.734 119.057 469.796 95.8441 422.569 80.9374C386.639 69.6101 343.414 65.5625 314.96 65.5625C286.505 65.5625 243.265 69.6101 207.35 80.9374C160.123 95.8441 136.17 119.178 136.17 150.306C136.17 181.433 160.108 204.843 207.32 219.78C243.175 231.077 286.43 235.034 314.96 235.034L314.96 235.109Z" fill="black"/>
<path d="M314.959 71.241C351.418 71.241 480.292 90.1953 480.292 150.366C480.292 202.879 424.668 229.491 314.959 229.491C205.251 229.491 149.626 202.879 149.626 150.366C149.626 90.1953 278.501 71.2409 314.959 71.241ZM314.959 227.98C423.701 227.98 478.782 201.867 478.782 150.366C478.782 91.3431 351.086 72.7513 314.959 72.7513C278.833 72.7512 151.137 91.3431 151.137 150.366C151.137 201.807 206.248 227.98 314.959 227.98Z" fill="black"/>
<path d="M314.959 80.8012C345.241 80.8012 376.701 95.9042 407.088 110.494C411.619 112.699 416.286 114.904 420.862 117.049C423.535 118.302 426.737 119.571 430.12 120.915C445.057 126.835 465.506 134.946 465.28 152.631C465.023 172.462 458.891 188.35 447.051 199.859C419.865 226.319 367.684 225.534 329.609 224.99C324.399 224.99 319.49 224.839 314.914 224.839C310.7 224.839 306.184 224.839 301.427 224.96C262.461 225.413 209.102 226.062 181.856 199.073C170.302 187.625 164.488 172.008 164.533 152.616C164.533 135.233 184.167 127.319 199.859 120.9C203.166 119.571 206.293 118.302 208.921 117.064C213.452 114.919 217.983 112.714 222.634 110.524C253.188 95.9042 284.708 80.8012 314.959 80.8012ZM347.657 223.616C382.591 223.616 423.324 220.822 446.039 198.726C457.577 187.504 463.558 171.978 463.815 152.571C464.026 135.958 444.951 128.406 429.606 122.365C426.193 121.021 422.976 119.737 420.273 118.468C415.742 116.308 411.075 114.103 406.484 111.898C376.202 97.3692 344.893 82.3568 314.959 82.3568C285.025 82.3568 253.686 97.3843 223.359 111.929C218.778 114.134 214.207 116.313 209.646 118.468C206.942 119.737 203.801 121.006 200.478 122.35C185.179 128.542 166.134 136.244 166.089 152.556C166.089 171.525 171.707 186.794 182.959 197.94C209.767 224.492 262.763 223.857 301.457 223.389C306.215 223.389 310.73 223.268 314.959 223.268C319.49 223.268 324.459 223.344 329.67 223.419C335.394 223.525 341.435 223.616 347.657 223.616Z" fill="black"/>
<path d="M314.959 103.41C336.783 103.41 362.866 116.535 388.088 129.237C395.504 132.967 403.192 136.788 410.517 140.232C413.099 141.44 416.331 142.663 419.76 143.962C433.065 148.991 449.633 155.259 450.358 167.719C451.355 184.71 446.9 198.529 437.113 208.8C412.948 234.112 360.692 233.584 326.075 233.236C322.149 233.236 318.433 233.161 314.959 233.161C311.486 233.161 308.178 233.161 304.493 233.161C269.545 233.463 216.729 233.931 192.549 208.407C182.868 198.167 178.488 184.468 179.546 167.629C180.331 155.078 196.718 148.916 209.872 143.962C213.407 142.648 216.729 141.395 219.403 140.141C226.471 136.849 233.932 133.103 241.136 129.478C266.72 116.701 293.166 103.41 314.959 103.41ZM339.502 231.786C372.804 231.786 415.259 229.506 436.01 207.727C445.495 197.759 449.815 184.333 448.848 167.78C448.184 156.301 432.129 150.215 419.231 145.336C415.772 144.038 412.51 142.799 409.867 141.576C402.512 138.163 394.84 134.296 387.409 130.551C362.353 117.94 336.436 104.875 314.914 104.875C293.392 104.875 267.189 118.091 241.77 130.868C234.551 134.508 227.09 138.253 219.992 141.561C217.258 142.829 213.95 144.083 210.371 145.427C197.609 150.215 181.675 156.196 181.011 167.764C179.968 184.136 184.212 197.457 193.607 207.38C217.318 232.436 269.741 231.968 304.433 231.666C308.118 231.666 311.622 231.666 314.914 231.666C318.207 231.666 322.118 231.666 326.045 231.741C330.334 231.771 334.82 231.817 339.502 231.817L339.502 231.786Z" fill="black"/>
<path d="M314.959 137.649C334.442 137.649 359.03 149.732 382.802 161.467C388.753 164.397 394.371 167.16 399.929 169.758C402.119 170.77 404.687 171.827 407.405 172.93C419.261 177.763 434.017 183.774 435.391 194.633C437.128 208.226 434.047 219.628 426.239 228.479C404.324 253.323 351.056 253.157 319.188 253.157L311.44 253.157C279.724 253.157 226.622 253.263 204.405 228.66C196.401 219.81 193.063 208.362 194.482 194.663C195.6 183.759 210.28 177.853 222.076 173.096C224.93 171.933 227.634 170.846 229.944 169.773C235.533 167.16 241.181 164.381 247.162 161.436C270.859 149.731 295.446 137.649 314.959 137.649ZM324.354 251.647C356.251 251.647 404.762 250.544 425.106 227.482C432.658 218.964 435.572 207.984 433.896 194.814C432.627 184.846 418.325 179.016 406.846 174.334C404.098 173.217 401.5 172.16 399.295 171.133C393.722 168.535 388.088 165.756 382.138 162.826C358.517 151.181 334.08 139.159 314.959 139.159C295.839 139.159 271.433 151.242 247.872 162.781C241.831 165.726 236.227 168.52 230.624 171.133C228.268 172.22 225.549 173.322 222.665 174.47C211.247 179.001 196.99 184.816 196.008 194.799C194.649 208.059 197.85 219.1 205.553 227.633C227.317 251.738 279.92 251.647 311.471 251.647L324.354 251.647Z" fill="black"/>
<path d="M314.959 180.376C334.412 180.376 418.793 203.393 420.439 230.216C421.149 241.785 417.841 251.542 410.637 259.214C389.493 281.597 339.17 281.597 314.959 281.597C288.907 281.597 240.411 281.597 219.387 259.32C212.138 251.632 208.815 241.845 209.465 230.216C211.096 202.185 294.193 180.376 314.959 180.376ZM314.959 280.056C338.958 280.056 388.964 280.056 409.535 258.157C416.452 250.802 419.608 241.423 418.929 230.277C417.418 204.178 334.14 181.826 314.959 181.826C295.129 181.826 212.515 203.589 210.975 230.277L210.22 230.277L210.975 230.277C210.325 241.468 213.527 250.892 220.475 258.247C241.06 280.117 290.976 280.117 314.959 280.117L314.959 280.056Z" fill="black"/>
<path d="M314.959 228.494C335.454 228.494 403.75 241.83 405.472 271.281C405.81 275.474 405.253 279.692 403.84 283.655C402.426 287.617 400.187 291.235 397.271 294.268C388.209 303.964 366.446 315.502 314.959 315.502C263.473 315.502 241.77 303.949 232.633 294.268C229.717 291.235 227.478 287.617 226.064 283.655C224.65 279.692 224.094 275.474 224.432 271.281C226.169 241.83 294.449 228.494 314.959 228.494ZM314.959 313.992C337.976 313.992 379.147 311.289 396.168 293.241C398.943 290.355 401.074 286.914 402.42 283.144C403.766 279.374 404.297 275.362 403.977 271.371C402.376 244.186 337.206 230.004 314.959 230.004C292.713 230.004 227.528 244.231 225.942 271.371C225.62 275.36 226.148 279.372 227.492 283.142C228.835 286.912 230.963 290.354 233.735 293.241C250.771 311.289 291.927 313.992 314.959 313.992Z" fill="black"/>
<path d="M314.96 278.833C328.734 278.833 367.971 282.367 383.784 298.542C385.957 300.619 387.677 303.123 388.836 305.896C389.995 308.669 390.568 311.652 390.52 314.657C389.856 344.954 335.741 351.584 315.005 351.584C294.268 351.584 240.094 344.954 239.49 314.657C239.445 311.652 240.02 308.671 241.179 305.898C242.338 303.125 244.056 300.621 246.226 298.542C261.933 282.412 301.171 278.833 314.96 278.833ZM314.96 350.074C330.042 349.954 345.026 347.634 359.438 343.187C378.785 336.783 388.738 327.177 389.01 314.627C389.052 311.823 388.515 309.041 387.431 306.455C386.347 303.869 384.741 301.535 382.712 299.599C367.246 283.847 328.552 280.343 314.96 280.343C301.367 280.343 262.658 283.801 247.192 299.599C245.166 301.537 243.562 303.872 242.478 306.457C241.395 309.043 240.855 311.824 240.894 314.627C241.181 327.177 251.134 336.783 270.481 343.187C284.891 347.651 299.875 349.986 314.96 350.119L314.96 350.074Z" fill="black"/>
<path d="M314.098 328.385L314.959 328.385C325.939 328.536 359.936 332.01 371.717 345.542C373.179 347.103 374.281 348.965 374.944 350.998C375.607 353.031 375.815 355.185 375.553 357.308C374.269 367.638 361.295 374.827 350.648 379.041C337.236 384.357 322.752 386.834 314.959 386.895C300.189 387.031 256.495 377.002 254.351 357.293C254.092 354.955 254.353 352.59 255.115 350.365C255.878 348.14 257.123 346.112 258.761 344.425C270.783 331.225 302.575 328.385 314.098 328.385ZM314.657 385.384L314.914 385.384C322.571 385.384 336.829 382.877 350.059 377.636C364.588 371.897 373.091 364.603 374.027 357.111C374.251 355.203 374.056 353.268 373.456 351.442C372.856 349.617 371.866 347.943 370.554 346.539C359.982 334.457 328.507 330.107 314.914 329.926C301.714 329.76 270.934 333.309 259.848 345.482C258.361 347.012 257.229 348.852 256.535 350.87C255.84 352.888 255.6 355.035 255.831 357.157C256.677 364.95 265.285 372.381 280.071 378.074C292.652 382.892 306.909 385.384 314.657 385.384Z" fill="black"/>
<path d="M316.379 373.891C327.374 373.891 349.606 377.456 357.656 386.578C358.826 387.799 359.699 389.274 360.207 390.887C360.715 392.501 360.845 394.21 360.586 395.881C358.502 408.93 325.124 418.173 314.96 418.173C304.795 418.173 271.387 408.93 269.348 395.881C269.083 394.275 269.175 392.63 269.619 391.063C270.063 389.497 270.847 388.048 271.916 386.819C279.634 377.486 302.605 374.299 314.96 373.906L316.379 373.891ZM314.96 416.663C326.136 416.663 357.248 407.118 359.091 395.64C359.316 394.188 359.202 392.704 358.756 391.305C358.311 389.905 357.546 388.628 356.523 387.575C348.443 378.407 325.124 375.099 314.975 375.492C302.892 375.885 280.419 378.936 273.049 387.846C272.121 388.91 271.44 390.166 271.053 391.523C270.667 392.881 270.585 394.307 270.813 395.7C272.626 407.118 303.768 416.663 314.96 416.663Z" fill="black"/>
<path d="M314.96 412.343C322.149 412.343 345.634 413.4 345.634 427.205C345.634 432.959 328.492 442.308 314.96 442.308C301.427 442.308 284.27 432.914 284.27 427.205C284.27 413.4 307.755 412.343 314.96 412.343ZM314.96 440.843C328.869 440.843 344.123 431.267 344.123 427.25C344.123 414.85 321.801 413.899 314.96 413.899C308.118 413.899 285.78 414.85 285.78 427.25C285.78 431.267 301.065 440.843 314.96 440.843Z" fill="black"/>
<path d="M314.959 440.526C322.209 440.526 330.667 442.58 330.667 448.364C330.667 451.989 322.148 456.293 314.959 456.293C307.77 456.293 299.237 451.989 299.237 448.364C299.237 442.58 307.71 440.526 314.959 440.526ZM314.959 454.783C322.284 454.783 329.156 450.373 329.156 448.364C329.156 444 322.028 442.036 314.959 442.036C307.891 442.036 300.747 444 300.747 448.364C300.747 450.373 307.619 454.783 314.959 454.783Z" fill="black"/>
<path d="M314.204 456.127L315.714 456.127L315.714 0.754944L314.204 0.754944L314.204 456.127Z" fill="black"/>
<path d="M218.481 7.64202C223.012 14.2723 227.936 20.8874 233.146 27.8801C246.226 45.4147 259.758 63.5535 267.113 82.6739C280.706 117.834 283.243 159.911 285.75 200.599C286.626 214.841 287.457 228.298 288.771 241.256C290.629 260.135 291.671 279.98 292.773 300.989C295.567 354.68 298.467 410.199 315.685 455.855L314.28 456.384C296.972 410.516 294.072 354.876 291.263 301.079C290.16 280.086 289.133 260.301 287.261 241.407C285.977 228.418 285.146 214.946 284.24 200.629C281.733 160.062 279.15 118.091 265.709 83.1573C258.414 64.218 244.957 46.1699 231.938 28.7863C226.713 21.7785 221.774 15.1936 217.243 8.50292L218.481 7.64202Z" fill="black"/>
<path d="M130.687 28.6961C137.846 33.378 145.79 38.0147 154.233 42.9081C180.391 58.1319 210.114 75.3796 223.284 99.9523C243.19 136.925 251.496 181.056 259.531 223.722C261.177 232.436 262.718 240.667 264.379 248.899C267.883 266.267 271.296 283.968 274.589 301.08C277.957 318.614 281.446 336.738 285.04 354.529C286.294 360.737 287.426 367.276 288.62 374.163C293.513 402.376 299.011 434.394 315.548 455.659L314.355 456.581C297.591 434.968 292.033 402.814 287.17 374.45C285.977 367.548 284.859 361.008 283.605 354.816C280.011 337.01 276.522 318.886 273.139 301.351C269.847 284.24 266.448 266.614 262.944 249.185C261.283 240.939 259.743 232.708 258.096 223.994C250.062 181.433 241.77 137.423 221.985 100.647C208.966 76.4821 179.5 59.3251 153.493 44.2069C145.05 39.2984 137.076 34.6467 129.887 29.9496L130.687 28.6961Z" fill="black"/>
<path d="M61.0169 61.7112C70.4261 64.9734 81.3305 67.9789 92.8692 71.1657C128.135 80.9071 168.113 91.9475 188.441 115.825C216.004 148.206 229.22 197.82 240.773 241.604C243.039 250.137 245.183 258.217 247.373 265.904C251.255 279.588 255.061 293.543 258.746 307.045C263.926 325.984 269.318 345.573 274.921 364.724C276.432 369.708 277.806 375.115 279.316 380.839C286.218 407.073 294.812 439.74 315.413 455.523L314.491 456.716C293.483 440.601 284.814 407.677 277.851 381.201C276.341 375.492 274.936 370.1 273.471 365.147C267.823 345.981 262.461 326.377 257.296 307.423C253.611 293.936 249.745 279.98 245.908 266.297C243.734 258.595 241.589 250.529 239.308 241.966C227.739 198.348 214.63 148.916 187.278 116.792C167.267 93.2614 127.531 82.2966 92.4766 72.6156C80.9076 69.4137 69.973 66.3931 60.5185 63.1308L61.0169 61.7112Z" fill="black"/>
<path d="M16.2513 103.395L99.3181 116.233C104.468 117.033 110.207 117.592 116.264 118.196C133.602 119.903 153.251 121.851 166.013 130.143C197.412 150.517 212.833 201.671 225.111 242.766C227.769 251.602 230.277 259.953 232.738 267.263C237.269 280.539 241.619 294.086 245.893 307.181C252.387 327.087 259.093 347.687 266.146 367.789C267.657 371.852 269.031 376.322 270.572 381.05C279.633 408.824 290.81 443.395 315.352 455.447L314.688 456.807C289.571 444.467 278.229 409.564 269.122 381.503C267.611 376.791 266.101 372.335 264.727 368.288C257.658 348.17 250.953 327.509 244.458 307.649C240.184 294.555 235.774 281.007 231.304 267.747C228.827 260.407 226.32 252.055 223.661 243.204C211.398 202.335 196.129 151.483 165.198 131.442C152.738 123.362 133.285 121.443 116.113 119.737C110.071 119.148 104.287 118.574 99.0764 117.773L16.0097 104.921L16.2513 103.395Z" fill="black"/>
<path d="M136.441 147.149C143.706 146.976 150.96 147.815 157.993 149.641C194.15 160.213 212.168 222.241 224.084 263.322C226.727 272.459 229.023 280.373 231.183 286.611C232.995 291.821 234.777 297.032 236.574 302.242C246.331 330.651 256.435 360.042 267.989 388.33C269.182 391.35 270.405 394.371 271.659 397.694C280.419 420.348 291.293 448.47 315.095 455.402L314.672 456.913C290.175 449.784 279.135 421.224 270.254 398.298C269.001 395.05 267.793 391.909 266.584 388.964C255.015 360.631 244.911 331.225 235.14 302.877C233.358 297.661 231.565 292.45 229.763 287.245C227.588 280.962 225.232 273.048 222.634 263.881C210.809 223.102 192.927 161.512 157.57 151.242C144.763 147.511 128.089 148.825 111.974 150.109C104.423 150.698 97.3244 151.257 90.9811 151.257L0.679989 151.257L0.679989 149.747L91.0567 149.747C97.3395 149.747 104.423 149.188 111.929 148.599C120.175 147.814 128.558 147.149 136.441 147.149Z" fill="black"/>
<path d="M152.284 173.7C156.869 173.59 161.438 174.254 165.802 175.663C198.137 187.247 216.261 242.63 228.253 279.27C230.79 287.018 233.176 294.373 235.351 300.158C239.172 310.398 242.903 320.879 246.543 331.028C254.804 354.197 263.367 378.15 273.396 400.925C274.453 403.352 275.53 405.869 276.628 408.477C284.481 427.174 294.268 450.448 315.125 455.296L314.778 456.807C293.181 451.747 283.228 428.111 275.238 409.051C274.136 406.453 273.064 403.916 272.006 401.499C261.963 378.663 253.399 354.68 245.108 331.482C241.498 321.347 237.753 310.866 233.947 300.641C231.757 294.781 229.416 287.456 226.818 279.693C214.917 243.34 196.929 188.38 165.288 176.992C152.345 172.341 131.019 177.264 113.938 181.206C107.579 182.717 101.568 184.046 96.6146 184.816L16.2513 197.276L16.0247 195.766L96.3276 183.336C101.221 182.581 107.202 181.206 113.53 179.741C125.794 177.023 140.172 173.7 152.284 173.7Z" fill="black"/>
<path d="M171.058 200.72C176.97 200.527 182.845 201.738 188.199 204.254C218.013 219.583 233.267 268.019 244.398 303.375C246.482 310.005 248.461 316.258 250.318 321.619C252.735 328.582 255.272 338.233 258.232 349.424C268.804 389.432 284.723 449.905 315.095 455.387L314.823 456.897C283.515 451.249 267.415 390.217 256.767 349.832C253.822 338.686 251.285 329.05 248.883 322.148C247.026 316.771 245.047 310.504 242.963 303.873C231.908 268.759 216.774 220.671 187.52 205.628C165.469 194.316 120.387 213.889 87.4621 228.192C77.041 232.723 68.0547 236.62 61.0167 239.051L60.5183 237.631C67.4959 235.215 76.4671 231.318 86.858 226.803C113.032 215.4 146.817 200.72 171.058 200.72Z" fill="black"/>
<path d="M215.657 219.931C218.138 219.892 220.603 220.349 222.906 221.275C246.301 231.092 257.824 283.65 264.711 315.05C266.222 321.967 267.536 327.917 268.714 332.312C270.556 339.245 272.263 348.307 274.226 358.879C280.947 394.884 290.145 444.166 315.261 455.538L314.642 456.913C288.801 445.298 279.527 395.564 272.746 359.241C270.783 348.669 269.091 339.607 267.249 332.796C266.071 328.371 264.757 322.39 263.231 315.473C256.42 284.345 244.987 232.27 222.317 222.77C205.145 215.566 170.514 242.102 147.602 259.667C140.866 264.832 135.037 269.303 130.687 272.142L129.856 270.888C134.161 268.064 139.975 263.609 146.681 258.459C168.248 241.815 196.853 219.931 215.657 219.931Z" fill="black"/>
<path d="M265.995 226.591C266.186 226.568 266.379 226.568 266.569 226.591C280.162 229.476 286.49 283.484 290.508 330.213C290.93 335.092 291.232 338.611 291.444 340.106C292.682 349.092 293.437 358.879 294.253 369.224C296.609 399.43 299.267 433.76 315.563 455.614L314.355 456.52C297.742 434.303 295.114 399.793 292.743 369.345C291.942 359.015 291.232 349.258 289.949 340.317C289.737 338.807 289.42 335.243 288.997 330.334C286.898 305.792 280.464 231.092 266.252 228.071C259.274 226.561 234.672 266.75 224.175 283.953C221.456 288.393 219.508 291.504 218.481 293.014L217.243 292.154C218.239 290.643 220.263 287.351 222.876 283.092C240.924 253.716 258.58 226.591 265.995 226.591Z" fill="black"/>
<path d="M314.204 456.127L315.714 456.127L315.714 225.519L314.204 225.519L314.204 456.127Z" fill="black"/>
<path d="M363.924 226.591C371.475 226.591 389.599 254.954 406.061 281.687C409.082 286.535 411.393 290.356 412.676 292.259L411.423 293.12C410.124 291.217 407.768 287.381 404.777 282.548C394.507 265.844 370.463 226.666 363.652 228.177C350.678 230.941 346.933 276.371 344.909 300.777C344.411 306.969 344.003 311.863 343.565 314.929C342.054 326.09 341.133 338.731 340.227 352.127C337.735 388.934 334.896 430.663 315.564 456.625L314.355 455.719C333.415 430.044 336.24 388.632 338.717 352.022C339.623 338.61 340.484 325.939 342.07 314.717C342.492 311.697 342.9 306.818 343.414 300.656C345.604 274.12 349.274 229.672 363.35 226.651C363.538 226.608 363.731 226.588 363.924 226.591Z" fill="black"/>
<path d="M414.096 219.93C432.763 219.93 461.55 241.875 483.268 258.428C489.974 263.533 495.758 267.943 500.047 270.767L499.217 272.021C494.882 269.181 489.067 264.756 482.347 259.636C459.314 242.071 424.502 215.52 407.587 222.649C387.288 231.197 377.26 274.181 371.264 299.856C370.01 305.278 368.908 309.945 367.911 313.615C364.346 326.528 360.888 339.682 357.535 352.414C353.835 366.475 349.983 381.004 346.042 395.247C345.181 398.267 344.335 401.877 343.444 405.622C339.004 424.32 332.872 449.92 315.231 456.807L314.673 455.402C331.618 448.802 337.599 423.686 341.979 405.275C342.87 401.514 343.716 397.95 344.592 394.839C348.549 380.597 352.37 366.143 356.07 352.037C359.423 339.305 362.897 326.135 366.446 313.222C367.458 309.582 368.545 304.915 369.799 299.523C376.248 271.87 386.004 230.049 406.998 221.244C409.254 220.342 411.666 219.895 414.096 219.93Z" fill="black"/>
<path d="M458.771 200.734C482.935 200.734 516.917 215.445 543.197 226.848C553.542 231.379 562.468 235.2 569.385 237.601L568.902 239.021C561.924 236.604 552.968 232.723 542.592 228.222C509.547 213.904 464.298 194.27 442.399 205.567C415.984 219.16 401.877 261.298 391.577 292.017C389.931 296.971 388.36 301.638 386.88 305.761C384.494 312.422 381.685 322.541 378.422 334.276C365.781 379.781 346.706 448.545 315.141 456.822L314.763 455.311C345.467 447.262 364.422 378.996 376.972 333.823C380.235 322.072 383.014 311.923 385.46 305.217C386.971 301.094 388.481 296.427 390.157 291.489C400.533 260.527 414.745 218.118 441.704 204.178C447.039 201.691 452.889 200.511 458.771 200.734Z" fill="black"/>
<path d="M478.193 173.776C490.034 173.776 503.279 176.796 515.377 179.636C521.901 181.146 528.078 182.656 533.5 183.426L613.803 195.856L613.577 197.367L533.274 184.937C527.716 184.076 521.524 182.641 514.954 181.131C497.948 177.189 478.706 172.733 464.51 177.113C434.017 186.568 413.718 247.599 401.59 284.058C399.415 290.628 397.528 296.307 395.896 300.671C393.148 308.102 390.082 318.357 386.533 330.228C372.456 377.274 351.176 448.364 315.05 456.837L314.702 455.327C349.983 447.05 371.097 376.458 385.083 329.745C388.632 317.844 391.713 307.573 394.477 300.113C396.093 295.733 397.981 290.069 400.156 283.499C412.389 246.754 432.839 185.329 464.057 175.588C468.65 174.275 473.416 173.664 478.193 173.776Z" fill="black"/>
<path d="M495.169 146.983C504.231 146.983 513.791 147.723 522.777 148.403C530.797 149.037 538.394 149.611 544.737 149.611L629.148 149.611L629.148 151.121L544.737 151.121C538.333 151.121 530.721 150.532 522.656 149.913C505.303 148.584 485.624 147.058 472.273 151.091C439.333 161.044 424.139 211.171 413.054 247.75C410.577 255.936 408.236 263.669 405.955 270.043C401.318 283.061 396.757 296.367 392.362 309.31C385.158 330.334 377.697 352.082 369.708 373.227C368.424 376.595 367.095 380.325 365.69 384.282C355.994 411.467 342.704 448.893 315.216 456.897L314.793 455.387C341.526 447.594 354.68 410.682 364.271 383.723C365.675 379.751 367.019 376.006 368.288 372.638C376.308 351.493 383.754 329.775 390.943 308.767C395.353 295.899 399.914 282.578 404.535 269.499C406.801 263.156 409.142 255.438 411.619 247.252C422.795 210.325 438.125 159.76 471.835 149.581C479.451 147.614 487.307 146.74 495.169 146.983Z" fill="black"/>
<path d="M613.698 103.395L613.924 104.906L530.858 117.758C525.42 118.589 519.545 119.163 513.308 119.752C496.498 121.368 477.438 123.195 464.736 131.442C434.349 151.151 417.721 205.794 405.578 245.681C403.116 253.716 400.805 261.313 398.63 267.777C394.1 281.037 389.75 294.57 385.491 307.664C378.996 327.585 372.276 348.201 365.207 368.318C363.788 372.366 362.338 376.821 360.812 381.533C351.751 409.595 340.378 444.498 315.262 456.837L314.597 455.478C339.139 443.395 350.361 408.854 359.378 381.08C360.888 376.353 362.398 371.882 363.788 367.82C370.841 347.717 377.562 327.041 384.056 307.196C388.315 294.102 392.74 280.569 397.211 267.294C399.37 260.86 401.742 253.278 404.128 245.243C416.346 205.129 433.065 150.185 463.921 130.173C476.925 121.73 496.181 119.873 513.172 118.257C519.379 117.653 525.254 117.094 530.631 116.263L613.698 103.395Z" fill="black"/>
<path d="M568.902 61.7112L569.385 63.146C559.931 66.4083 549.011 69.4289 537.442 72.6307C502.358 82.342 462.607 93.337 442.625 116.807C415.062 149.188 402.179 197.986 390.822 241.045C388.481 249.91 386.291 258.277 383.995 266.312C380.114 279.905 376.308 293.89 372.638 307.362C367.458 326.347 362.066 345.966 356.432 365.162C354.922 370.115 353.548 375.507 352.052 381.216C345.09 407.677 336.421 440.601 315.412 456.731L314.491 455.538C335.092 439.74 343.685 407.088 350.587 380.854C352.098 375.13 353.517 369.723 354.982 364.739C360.646 345.573 366.008 325.954 371.173 306.985C374.858 293.513 378.724 279.573 382.545 265.92C384.826 257.885 387.076 249.533 389.357 240.667C400.76 197.457 413.688 148.539 441.478 115.841C461.746 92.023 501.754 80.9525 537.05 71.1959C548.588 67.9789 559.493 64.9734 568.902 61.7112Z" fill="black"/>
<path d="M499.217 28.6956L500.047 29.9642C492.949 34.616 485.035 39.2224 476.668 44.1006C450.585 59.3396 420.907 76.6175 407.964 100.616C388.33 137.211 379.842 181.705 371.717 224.748C370.116 233.221 368.606 241.211 367.005 249.155C363.501 266.523 360.103 284.224 356.81 301.351C353.427 318.87 349.938 336.994 346.344 354.785C345.105 360.963 343.972 367.502 342.779 374.419C337.886 402.783 332.343 434.937 315.594 456.55L314.401 455.629C330.893 434.394 336.421 402.375 341.284 374.193C342.477 367.276 343.595 360.736 344.848 354.559C348.443 336.783 351.932 318.659 355.3 301.139C358.592 284.013 362.006 266.312 365.509 248.928C367.11 240.999 368.621 233.01 370.222 224.552C378 183.396 386.835 136.773 406.635 99.982C419.775 75.5603 449.588 58.1616 475.898 42.8321C484.265 37.9236 492.149 33.3172 499.217 28.6956Z" fill="black"/>
<path d="M411.423 7.64203L412.676 8.50293C408.145 15.118 403.222 21.7332 398.011 28.741C384.962 46.2303 371.475 64.3389 364.211 83.2177C350.92 117.758 348.096 162.418 345.619 201.807C344.728 215.777 343.897 228.992 342.674 241.407C340.816 260.256 339.774 280.086 338.671 301.079C335.862 354.876 332.962 410.516 315.654 456.384L314.25 455.855C331.467 410.199 334.367 354.665 337.176 300.989C338.264 279.98 339.306 260.21 341.163 241.256C342.402 228.841 343.232 215.671 344.108 201.716C346.6 162.207 349.425 117.426 362.791 82.6739C370.131 63.5988 383.694 45.4147 396.788 27.8348C401.998 20.8421 406.922 14.2421 411.423 7.64203Z" fill="black"/>
</svg>
