<svg width="271" height="271" viewBox="0 0 271 271" fill="none" xmlns="http://www.w3.org/2000/svg">
<path fill-rule="evenodd" clip-rule="evenodd" d="M93.0787 92.7773C73.1956 94.9346 55.3663 98.564 40.8191 103.277C28.6593 107.217 18.7052 111.942 11.7579 117.264C4.83362 122.568 0.658936 128.661 0.658936 135.335C0.658936 142.01 4.83362 148.102 11.7579 153.407C18.7052 158.728 28.6593 163.454 40.8191 167.393C55.3663 172.107 73.1956 175.736 93.0787 177.893C95.236 197.777 98.8654 215.606 103.579 230.153C107.519 242.313 112.244 252.267 117.566 259.214C122.87 266.139 128.962 270.313 135.637 270.313C142.311 270.313 148.404 266.139 153.708 259.214C159.03 252.267 163.755 242.313 167.695 230.153C172.408 215.606 176.038 197.777 178.195 177.893C198.078 175.736 215.907 172.107 230.455 167.393C242.614 163.454 252.568 158.728 259.516 153.407C266.44 148.102 270.615 142.01 270.615 135.335C270.615 128.661 266.44 122.568 259.516 117.264C252.568 111.942 242.614 107.217 230.455 103.277C215.907 98.564 198.078 94.9346 178.195 92.7773C176.038 72.8942 172.408 55.0649 167.695 40.5177C163.755 28.3579 159.03 18.4038 153.708 11.4565C148.404 4.53223 142.311 0.357544 135.637 0.357544C128.962 0.357544 122.87 4.53223 117.566 11.4565C112.244 18.4038 107.519 28.3579 103.579 40.5177C98.8654 55.0649 95.236 72.8942 93.0787 92.7773ZM95.9353 95.6339C94.8929 105.923 94.2445 116.757 94.046 127.967L123.429 123.127L128.269 93.7446C117.059 93.9431 106.225 94.5915 95.9353 95.6339ZM92.7466 95.9714C91.7155 106.337 91.0815 117.231 90.8977 128.486L49.3137 135.335L90.8977 142.185C91.0815 153.44 91.7155 164.334 92.7466 174.699C73.3182 172.554 55.9397 168.993 41.7866 164.407C29.8042 160.525 20.2212 155.936 13.6668 150.915C7.08938 145.876 3.79795 140.597 3.79795 135.335C3.79795 130.074 7.08938 124.795 13.6668 119.756C20.2212 114.735 29.8042 110.146 41.7866 106.264C55.9397 101.678 73.3182 98.117 92.7466 95.9714ZM96.2729 92.4452C106.638 91.4141 117.533 90.7801 128.787 90.5964L135.637 49.0124L142.486 90.5964C153.741 90.7801 164.635 91.4141 175.001 92.4452C172.855 73.0168 169.294 55.6383 164.709 41.4852C160.826 29.5028 156.237 19.9198 151.216 13.3654C146.178 6.78799 140.898 3.49656 135.637 3.49656C130.375 3.49656 125.096 6.78799 120.057 13.3654C115.037 19.9198 110.447 29.5028 106.565 41.4852C101.979 55.6383 98.4185 73.0168 96.2729 92.4452ZM175.338 95.6339C165.049 94.5915 154.215 93.9431 143.005 93.7446L147.845 123.127L177.228 127.967C177.029 116.757 176.381 105.923 175.338 95.6339ZM178.527 95.9714C179.558 106.337 180.192 117.231 180.376 128.486L221.96 135.335L180.376 142.185C180.192 153.44 179.558 164.334 178.527 174.699C197.955 172.554 215.334 168.993 229.487 164.407C241.469 160.525 251.052 155.936 257.607 150.915C264.184 145.876 267.476 140.597 267.476 135.335C267.476 130.074 264.184 124.795 257.607 119.756C251.052 114.735 241.469 110.146 229.487 106.264C215.334 101.678 197.955 98.117 178.527 95.9714ZM175.338 175.037C176.381 164.747 177.029 153.913 177.228 142.704L147.845 147.543L143.005 176.926C154.215 176.728 165.049 176.079 175.338 175.037ZM128.787 180.074L135.637 221.658L142.486 180.074C153.741 179.891 164.635 179.257 175.001 178.226C172.855 197.654 169.294 215.032 164.709 229.186C160.826 241.168 156.237 250.751 151.216 257.305C146.178 263.883 140.898 267.174 135.637 267.174C130.375 267.174 125.096 263.883 120.057 257.305C115.037 250.751 110.447 241.168 106.565 229.186C101.979 215.032 98.4184 197.654 96.2728 178.226C106.638 179.257 117.533 179.891 128.787 180.074ZM128.269 176.926L123.429 147.543L94.046 142.704C94.2445 153.913 94.8929 164.747 95.9353 175.037C106.225 176.079 117.059 176.728 128.269 176.926Z" fill="black"/>
<path fill-rule="evenodd" clip-rule="evenodd" d="M135.637 267.137C208.429 267.137 267.439 208.128 267.439 135.335C267.439 62.5432 208.429 3.53349 135.637 3.53349C62.8446 3.53349 3.83489 62.5432 3.83489 135.335C3.83489 208.128 62.8446 267.137 135.637 267.137ZM135.637 270.313C210.183 270.313 270.615 209.882 270.615 135.335C270.615 60.7892 210.183 0.357544 135.637 0.357544C61.0906 0.357544 0.658936 60.7892 0.658936 135.335C0.658936 209.882 61.0906 270.313 135.637 270.313Z" fill="black"/>
</svg>
