<svg width="274" height="270" viewBox="0 0 274 270" fill="none" xmlns="http://www.w3.org/2000/svg">
<path fill-rule="evenodd" clip-rule="evenodd" d="M41.0658 169.673C17.3623 160.725 2.75684 148.491 2.75684 135C2.75684 121.51 17.3623 109.276 41.0658 100.327C29.4538 93.7172 22.7122 85.8375 22.7122 77.3778C22.7122 66.2689 34.3371 56.1603 53.3501 48.6127C48.9808 44.6916 46.5716 40.3976 46.5716 35.8964C46.5716 17.4281 87.1295 2.44934 137.223 2.38837L137.53 0.226562L137.837 2.38837C187.932 2.44935 228.489 17.4281 228.489 35.8965C228.489 40.3976 226.08 44.6915 221.711 48.6127C240.724 56.1602 252.349 66.2689 252.349 77.3778C252.349 85.8376 245.607 93.7173 233.995 100.328C257.699 109.276 272.304 121.51 272.304 135C272.304 148.491 257.699 160.725 233.995 169.673C245.607 176.283 252.349 184.163 252.349 192.623C252.349 203.731 240.724 213.84 221.711 221.388C226.08 225.309 228.489 229.603 228.489 234.104C228.489 252.572 187.932 267.551 137.837 267.612L137.53 269.774L137.223 267.612C87.1295 267.551 46.5716 252.572 46.5716 234.104C46.5716 229.603 48.9808 225.309 53.3502 221.388C34.3372 213.84 22.7122 203.731 22.7122 192.623C22.7122 184.163 29.4538 176.283 41.0658 169.673ZM21.3348 135L108.623 118.324C83.792 115.951 62.2249 110.595 46.9106 103.355C45.7571 103.751 44.6234 104.154 43.5101 104.564C31.5493 108.97 22.1769 114.114 15.8852 119.593C9.52045 125.137 6.98213 130.394 6.98213 135C6.98213 139.606 9.52045 144.863 15.8852 150.407C22.1768 155.887 31.5493 161.03 43.5101 165.436C44.6234 165.847 45.7571 166.25 46.9106 166.645C62.2249 159.406 83.7919 154.049 108.622 151.677L21.3348 135ZM228.151 166.645C229.304 166.25 230.438 165.847 231.551 165.437C243.512 161.03 252.884 155.887 259.176 150.407C265.541 144.863 268.079 139.606 268.079 135C268.079 130.394 265.541 125.137 259.176 119.593C252.884 114.114 243.512 108.97 231.551 104.564C230.438 104.154 229.304 103.751 228.151 103.355C212.836 110.595 191.269 115.951 166.438 118.324L253.726 135L166.439 151.677C191.269 154.049 212.836 159.406 228.151 166.645ZM227.903 98.1666C233.162 95.5747 237.489 92.7975 240.789 89.9231C246.144 85.2591 248.124 80.9686 248.124 77.3778C248.124 73.7871 246.144 69.4966 240.789 64.8326C235.507 60.2322 227.596 55.8808 217.44 52.1397L217.225 52.0607C203.232 61.4037 177.484 68.0229 147.327 69.2126L149.647 85.549C179.639 86.5334 206.805 91.1373 227.903 98.1666ZM150.347 90.4757C177.179 91.4175 201.601 95.2839 221.243 101.145C220.013 101.645 218.745 102.135 217.44 102.616C200.733 108.771 178.593 113.042 153.737 114.352L150.347 90.4757ZM124.714 90.4757L121.324 114.352C96.4683 113.042 74.3278 108.771 57.6207 102.616C56.3159 102.135 55.0482 101.645 53.8183 101.145C73.4601 95.2839 97.8816 91.4175 124.714 90.4757ZM125.414 85.549C95.4218 86.5334 68.2564 91.1373 47.1585 98.1666C41.8993 95.5747 37.5725 92.7975 34.2723 89.9231C28.9174 85.2591 26.9375 80.9686 26.9375 77.3778C26.9375 73.7871 28.9174 69.4965 34.2723 64.8326C39.5542 60.2322 47.4655 55.8807 57.6207 52.1397L57.8356 52.0607C71.8289 61.4037 97.5767 68.0229 127.734 69.2126L125.414 85.549ZM221.243 168.856C201.601 174.716 177.179 178.583 150.347 179.525L153.737 155.649C178.593 156.958 200.733 161.23 217.44 167.384C218.745 167.865 220.013 168.356 221.243 168.856ZM149.647 184.451C179.639 183.467 206.805 178.863 227.903 171.834C233.162 174.426 237.489 177.203 240.789 180.077C246.144 184.741 248.124 189.032 248.124 192.623C248.124 196.213 246.144 200.504 240.789 205.168C235.507 209.768 227.596 214.12 217.44 217.861L217.225 217.94C203.232 208.597 177.484 201.978 147.327 200.788L149.647 184.451ZM125.414 184.451L127.734 200.788C97.5767 201.978 71.829 208.597 57.8356 217.94L57.6207 217.861C47.4655 214.12 39.5542 209.768 34.2723 205.168C28.9174 200.504 26.9375 196.213 26.9375 192.623C26.9375 189.032 28.9174 184.741 34.2723 180.077C37.5725 177.203 41.8993 174.426 47.1585 171.834C68.2564 178.863 95.4217 183.467 125.414 184.451ZM124.714 179.525C97.8816 178.583 73.4601 174.716 53.8183 168.856C55.0482 168.356 56.3159 167.865 57.6207 167.384C74.3278 161.23 96.4683 156.958 121.324 155.649L124.714 179.525ZM218.804 45.0204C218.145 45.5945 217.431 46.1648 216.664 46.73C197.183 39.9016 171.199 35.5678 142.486 35.1187L138.534 7.29107C162.938 7.38963 184.84 11.0792 200.569 16.8735C208.566 19.8193 214.73 23.2237 218.804 26.7725C222.952 30.3849 224.264 33.5193 224.264 35.8965C224.264 38.2736 222.952 41.408 218.804 45.0204ZM211.39 50.0687C193.04 44.2352 169.334 40.5042 143.183 40.0318L146.635 64.3357C167.767 63.5504 186.602 60.0647 200.569 54.9195C204.669 53.409 208.288 51.7779 211.39 50.0687ZM128.426 64.3357L131.878 40.0318C105.727 40.5043 82.021 44.2352 63.6713 50.0687C66.7733 51.778 70.3917 53.409 74.4918 54.9194C88.4589 60.0647 107.294 63.5504 128.426 64.3357ZM58.3972 46.7301C77.8782 39.9016 103.862 35.5678 132.575 35.1187L136.527 7.29107C112.123 7.38962 90.2206 11.0792 74.4918 16.8735C66.4955 19.8192 60.3313 23.2237 56.2567 26.7725C52.1092 30.3849 50.7969 33.5193 50.7969 35.8964C50.7969 38.2736 52.1092 41.408 56.2567 45.0204C56.9159 45.5945 57.6298 46.1649 58.3972 46.7301ZM58.3973 223.27C57.6298 223.836 56.9159 224.406 56.2567 224.98C52.1092 228.592 50.7969 231.727 50.7969 234.104C50.7969 236.481 52.1092 239.616 56.2567 243.228C60.3313 246.777 66.4955 250.181 74.4918 253.127C90.2206 258.921 112.123 262.611 136.527 262.709L132.575 234.882C103.862 234.433 77.8783 230.099 58.3973 223.27ZM131.878 229.969C105.727 229.496 82.0211 225.765 63.6714 219.932C66.7734 218.222 70.3918 216.591 74.4918 215.081C88.4589 209.936 107.294 206.45 128.426 205.665L131.878 229.969ZM142.486 234.882L138.534 262.709C162.938 262.611 184.84 258.921 200.569 253.127C208.566 250.181 214.73 246.777 218.804 243.228C222.952 239.616 224.264 236.481 224.264 234.104C224.264 231.727 222.952 228.592 218.804 224.98C218.145 224.406 217.431 223.836 216.664 223.27C197.183 230.099 171.199 234.433 142.486 234.882ZM211.39 219.932C193.04 225.765 169.334 229.496 143.183 229.969L146.635 205.665C167.767 206.45 186.602 209.936 200.569 215.081C204.669 216.591 208.288 218.222 211.39 219.932Z" stroke="#111111"/>
<path d="M237.51 35.3667C258.16 57.6798 268.004 90.3939 273 132.06C272.992 169.066 265.383 203.017 244.604 227.712C223.842 252.387 189.776 268 136.451 268C88.6862 268 54.8664 253.392 32.9787 229.678C11.0834 205.955 1.0054 172.987 1 136.03C3.49664 94.1523 13.838 60.4302 35.2298 37.177C56.6029 13.9443 89.1592 1 136.451 1C185.316 1 216.886 13.0821 237.51 35.3667Z" stroke="#111111" stroke-width="2"/>
</svg>
