<svg width="260" height="283" viewBox="0 0 260 283" fill="none" xmlns="http://www.w3.org/2000/svg">
<path d="M114 19C141.034 19 165.376 30.5225 182.384 48.9243C197.724 65.5215 207.098 87.715 207.098 112.098" stroke="black" stroke-width="3.32492"/>
<circle cx="206.74" cy="118.082" r="5.66181" stroke="black" stroke-width="2"/>
<circle cx="110.813" cy="6.52194" r="5.49216" stroke="black" stroke-width="2.05956"/>
<circle cx="112.186" cy="215.224" r="5.49216" stroke="black" stroke-width="2.05956"/>
<path d="M117.335 6.17868C147.438 6.17868 174.543 19.094 193.481 39.7201C210.563 58.3236 221 83.1997 221 110.53" stroke="black" stroke-width="3.77586"/>
<path d="M2 111.903C2 81.2027 14.6604 53.5587 34.8794 34.2441C53.1157 16.8235 77.5009 6.17868 104.292 6.17868" stroke="black" stroke-width="3.77586"/>
<path d="M105.665 216.254C75.5625 216.254 48.4571 203.339 29.5187 182.712C12.4374 164.109 2 139.233 2 111.903" stroke="black" stroke-width="3.77586"/>
<path d="M220.996 109.949C220.996 140.649 208.336 168.293 188.117 187.608C169.881 205.029 145.495 215.673 118.705 215.673" stroke="black" stroke-width="3.77586"/>
<line x1="186.421" y1="203.691" x2="258.118" y2="281.553" stroke="black" stroke-width="3.86386"/>
</svg>
