<svg width="273" height="335" viewBox="0 0 273 335" fill="none" xmlns="http://www.w3.org/2000/svg">
<path d="M234.994 191.653C234.402 191.292 233.629 191.479 233.268 192.071C232.907 192.664 233.094 193.436 233.686 193.797L234.994 191.653ZM62.7041 194.426L62.1423 193.303L62.7041 194.426ZM90.0872 182.351C90.5399 186.022 93.8828 188.63 97.5538 188.178C101.225 187.725 103.834 184.382 103.381 180.711C102.928 177.04 99.5854 174.431 95.9144 174.884C92.2434 175.337 89.6345 178.68 90.0872 182.351ZM261.981 231.972C264.355 251.22 252.84 270.58 231.761 286.305C210.715 302.006 180.348 313.897 145.644 318.177L145.951 320.669C181.008 316.346 211.808 304.324 233.263 288.318C254.685 272.337 267.005 252.196 264.473 231.664L261.981 231.972ZM145.644 318.177C110.94 322.456 78.5934 318.299 54.3636 308.182C30.0956 298.049 14.2229 282.067 11.8492 262.819L9.35656 263.126C11.8886 283.657 28.7331 300.202 53.3959 310.5C78.0971 320.814 110.895 324.992 145.951 320.669L145.644 318.177ZM233.686 193.797C249.858 203.658 260.109 216.794 261.981 231.972L264.473 231.664C262.478 215.481 251.577 201.765 234.994 191.653L233.686 193.797ZM11.8492 262.819C8.76633 237.82 29.1537 212.613 63.2659 195.549L62.1423 193.303C27.7673 210.498 6.06956 236.472 9.35656 263.126L11.8492 262.819ZM63.2659 195.549C73.4455 190.457 84.8105 186.113 97.0672 182.742L96.4011 180.32C83.9972 183.732 72.4779 188.132 62.1423 193.303L63.2659 195.549Z" fill="black"/>
<path d="M26.099 148.423C26.5394 148.848 27.2408 148.836 27.6658 148.395C28.0907 147.955 28.0781 147.253 27.6377 146.828L26.099 148.423ZM204.443 172.11L204.883 173.127L204.443 172.11ZM173.545 183.051C173.545 179.787 170.899 177.141 167.635 177.141C164.372 177.141 161.726 179.787 161.726 183.051C161.726 186.314 164.372 188.96 167.635 188.96C170.899 188.96 173.545 186.314 173.545 183.051ZM3.10797 93.9742C3.10797 69.0413 17.6666 46.3517 41.4425 29.8488C65.2142 13.3488 98.1145 3.108 134.508 3.108V0.891992C97.7196 0.891992 64.3657 11.2403 40.1789 28.0284C15.9963 44.8136 0.891967 68.1112 0.891967 93.9742H3.10797ZM134.508 3.108C170.902 3.108 203.802 13.3488 227.574 29.8488C251.35 46.3517 265.908 69.0413 265.908 93.9742H268.124C268.124 68.1112 253.02 44.8136 228.837 28.0284C204.651 11.2403 171.297 0.891992 134.508 0.891992V3.108ZM27.6377 146.828C12.1557 131.89 3.10797 113.635 3.10797 93.9742H0.891967C0.891967 114.358 10.2798 133.16 26.099 148.423L27.6377 146.828ZM265.908 93.9742C265.908 126.341 241.348 154.956 204.004 171.093L204.883 173.127C242.674 156.797 268.124 127.563 268.124 93.9742H265.908ZM204.004 171.093C192.832 175.921 180.534 179.621 167.44 181.96L167.83 184.142C181.084 181.774 193.547 178.026 204.883 173.127L204.004 171.093Z" fill="black"/>
<path d="M29.1141 242.236V74.7924L29.779 75.6027L29.8406 75.6778L29.9102 75.7456L32.2642 78.0405L34.1475 79.8765L34.3084 80.0334L34.5038 80.1445L40.1535 83.3575L40.1602 83.3613L40.167 83.365L43.4626 85.201L43.5487 85.2489L43.6396 85.2869L46.9352 86.6639L46.992 86.6876L47.0503 86.7073L59.2913 90.8382L59.3696 90.8646L59.45 90.8835L73.1034 94.0964L73.1781 94.114L73.2541 94.125L85.9659 95.9609L86.0031 95.9663L86.0404 95.9701L99.6939 97.347L113.347 98.724L113.409 98.7302L113.471 98.7321L129.008 99.191L129.064 99.1927L129.12 99.1908L155.486 98.2728L155.523 98.2715L155.561 98.2685L167.331 97.3506L167.376 97.3471L167.421 97.3413L174.483 96.4233L174.495 96.4217L174.507 96.4199L187.219 94.5839L187.262 94.5778L187.304 94.5696L196.72 92.7336L196.769 92.7242L196.816 92.712L207.645 89.958L207.741 89.9336L207.834 89.8984L216.309 86.6855L216.366 86.6637L216.422 86.6379L225.367 82.507L225.427 82.4793L225.485 82.447L228.781 80.6111L228.914 80.5368L229.033 80.4406L231.857 78.1457L232.055 77.9853L232.198 77.7754L234.655 74.1832V242.052V242.062L234.653 242.217C234.653 242.221 234.653 242.224 234.653 242.227C234.576 245.441 232.202 248.891 227.033 252.33C221.921 255.731 214.452 258.859 205.09 261.512C186.388 266.812 160.518 270.109 131.884 270.109C103.251 270.109 77.3805 266.812 58.6781 261.512C49.3154 258.859 41.8458 255.731 36.7346 252.33C31.5695 248.894 29.195 245.447 29.1141 242.236Z" stroke="black" stroke-width="3.49857"/>
<path d="M234.655 69.4442C234.655 66.2135 232.347 62.7466 227.212 59.2813C222.138 55.8574 214.682 52.7051 205.311 50.0302C186.593 44.6872 160.632 41.3591 131.884 41.3591C103.137 41.3591 77.1764 44.6872 58.458 50.0302C49.087 52.7051 41.6305 55.8574 36.557 59.2813C31.4221 62.7466 29.1141 66.2135 29.1141 69.4442C29.1141 72.6749 31.4221 76.1417 36.557 79.6071C41.6305 83.031 49.087 86.1832 58.458 88.8581C77.1764 94.2011 103.137 97.5292 131.884 97.5292C160.632 97.5292 186.593 94.2011 205.311 88.8581C214.682 86.1832 222.138 83.031 227.212 79.6071C232.347 76.1417 234.655 72.6749 234.655 69.4442Z" stroke="black" stroke-width="3.49857"/>
</svg>
