<svg width="665" height="267" viewBox="0 0 665 267" fill="none" xmlns="http://www.w3.org/2000/svg">
<path d="M308.554 47.6375L311.281 102.696C311.491 106.932 313.18 110.963 316.052 114.09L364.316 166.601C372.138 175.113 370.125 188.669 360.166 194.543L305.532 226.74C301.627 229.043 297.001 229.802 292.566 228.863L202.715 209.912C197.44 208.798 191.941 210.087 187.71 213.429L126.414 261.839C120.94 266.165 113.468 266.969 107.194 263.912L33.0565 227.754C25.0948 223.868 21.094 214.807 23.5964 206.306L36.6827 161.821C39.0453 153.779 35.6039 145.168 28.3464 140.972L10.3352 130.558C1.78911 125.618 -1.24773 114.759 3.49733 106.103L36.9724 45.0501C41.5077 36.7736 51.6321 33.3521 60.2582 37.1782L101.835 55.6094C108.168 58.4165 115.551 57.3776 120.86 52.9271L177.446 5.49045C183.32 0.570459 191.646 -0.138819 198.264 3.72225L222.499 17.8578C227.314 20.665 230.571 25.53 231.34 31.0494L232.424 38.8614C234.457 53.4865 252.158 59.7052 262.887 49.5655L277.941 35.335C284.859 28.7967 295.653 28.7068 302.675 35.1352C306.207 38.3669 308.32 42.8574 308.559 47.6375H308.554Z" stroke="#111111" stroke-opacity="0.46" stroke-width="0.600907" stroke-miterlimit="10"/>
<path d="M39.7846 222.574C32.2874 218.918 28.6412 210.002 30.9937 202C31.0137 201.93 43.3009 159.983 43.236 159.948C45.4636 152.381 42.0622 144.184 35.2343 140.233C35.1594 140.188 18.1821 130.293 18.222 130.218C10.1804 125.568 7.6131 114.814 12.0784 106.667C12.1184 106.597 43.7105 49.106 43.7854 49.136C48.0559 41.3489 57.9456 38.287 66.0622 41.8884C66.1171 41.9133 105.316 59.2507 105.361 59.2157C111.325 61.858 118.762 60.4644 123.762 56.2787C123.812 56.2338 177.146 11.5942 177.201 11.6242C182.726 6.99393 190.777 6.44948 197.006 10.0808C197.046 10.1058 219.882 23.4522 219.892 23.5021C224.422 26.1444 227.499 30.7897 228.218 35.9844C228.238 36.1093 229.412 43.5167 229.507 43.4318C231.42 57.1978 248.212 62.9269 258.312 53.3817C258.372 53.3267 272.637 39.9304 272.697 39.9903C279.21 33.8366 289.364 33.7567 295.978 39.8005C296.007 39.8305 296.027 39.8654 296.027 39.9104C299.349 42.9523 301.362 47.6575 301.587 52.1579C301.587 52.1929 304.169 104.05 304.194 104.08C304.394 108.071 306.402 112.322 309.104 115.259C309.174 115.334 354.576 164.873 354.491 164.923C361.854 172.935 359.481 185.977 350.111 191.501C350.076 191.521 298.615 221.83 298.58 221.82C294.904 223.988 289.769 224.532 285.593 223.653C285.548 223.643 200.932 205.821 200.897 205.851C195.932 204.802 190.223 206.441 186.242 209.583C186.192 209.622 128.437 255.191 128.382 255.161C123.228 259.232 115.551 259.676 109.647 256.794C109.577 256.759 39.7696 222.649 39.7896 222.574H39.7846Z" stroke="#111111" stroke-opacity="0.46" stroke-width="0.600907" stroke-miterlimit="10"/>
<path d="M46.5175 217.395C39.4898 213.968 36.1883 205.192 38.396 197.695C38.4359 197.555 49.9239 158.15 49.7941 158.08C51.8819 150.987 48.5304 143.205 42.1271 139.504C41.9772 139.419 26.0338 130.039 26.1138 129.889C18.5716 125.528 16.4788 114.884 20.6644 107.247C20.7444 107.102 50.4534 53.1719 50.6032 53.2368C54.6091 45.9343 64.259 43.237 71.8761 46.6136C71.9859 46.6635 108.803 62.907 108.892 62.8321C114.482 65.3095 121.979 63.5663 126.669 59.6353C126.769 59.5504 176.847 17.688 176.962 17.758C182.141 13.4174 189.913 13.0378 195.752 16.4443C195.837 16.4943 217.274 29.0515 217.289 29.1464C221.535 31.6238 224.432 36.0493 225.106 40.9194C225.141 41.1741 226.405 48.177 226.595 47.9972C228.388 60.899 244.271 66.1387 253.736 57.1928C253.856 57.0779 267.327 44.5207 267.452 44.6356C273.556 38.8665 283.081 38.7915 289.274 44.4608C289.334 44.5157 289.374 44.5956 289.379 44.6805C292.496 47.5326 294.409 52.4526 294.619 56.6733C294.619 56.7483 297.056 105.399 297.106 105.454C297.291 109.195 299.619 113.665 302.156 116.422C302.291 116.572 344.842 163.14 344.667 163.245C351.569 170.757 348.842 183.279 340.052 188.459C339.982 188.499 291.697 216.92 291.617 216.905C288.171 218.938 282.521 219.273 278.611 218.448C278.521 218.429 199.143 201.731 199.068 201.79C194.413 200.806 188.494 202.789 184.763 205.736C184.668 205.811 130.45 248.543 130.34 248.488C125.51 252.304 117.623 252.384 112.089 249.687C111.949 249.617 46.4675 217.554 46.5125 217.405L46.5175 217.395Z" stroke="#111111" stroke-opacity="0.46" stroke-width="0.600907" stroke-miterlimit="10"/>
<path d="M53.2506 212.215C46.6924 209.018 43.7405 200.387 45.7984 193.389C45.8583 193.179 56.5472 156.317 56.3574 156.207C58.3053 149.584 54.9988 142.221 49.025 138.765C48.8002 138.635 33.8908 129.779 34.0156 129.549C26.978 125.478 25.3547 114.939 29.2606 107.811C29.3805 107.596 57.2115 57.2276 57.4362 57.3275C61.1723 50.5095 70.5925 48.1769 77.7001 51.3237C77.8649 51.3986 112.299 66.5482 112.439 66.4333C117.658 68.7459 125.216 66.648 129.586 62.9818C129.741 62.8519 176.557 23.7767 176.732 23.8766C181.567 19.8258 189.059 19.611 194.508 22.7877C194.633 22.8627 214.677 34.6307 214.697 34.7755C218.663 37.0882 221.375 41.2989 222.005 45.8442C222.06 46.2239 223.413 52.8221 223.693 52.5574C225.366 64.6001 240.341 69.3503 249.176 60.9988C249.356 60.829 262.038 49.1059 262.223 49.2757C267.922 43.8912 276.808 43.8213 282.592 49.1109C282.681 49.1958 282.741 49.3107 282.746 49.4356C285.653 52.0979 287.466 57.2326 287.661 61.1736C287.666 61.2835 289.954 106.732 290.029 106.817C290.204 110.309 292.851 114.999 295.218 117.571C295.423 117.796 335.117 161.392 334.857 161.546C341.3 168.554 338.214 180.562 330.012 185.397C329.912 185.457 284.794 211.99 284.679 211.965C281.463 213.863 275.304 213.988 271.653 213.219C271.513 213.189 197.375 197.62 197.265 197.705C192.92 196.79 186.791 199.113 183.305 201.865C183.16 201.98 132.488 241.865 132.323 241.785C127.813 245.346 119.726 245.066 114.557 242.544C114.347 242.444 53.1907 212.425 53.2556 212.205L53.2506 212.215Z" stroke="#111111" stroke-opacity="0.46" stroke-width="0.600907" stroke-miterlimit="10"/>
<path d="M59.9836 207.035C53.8949 204.063 51.2926 195.582 53.2056 189.083C53.2856 188.804 63.1752 154.484 62.9205 154.339C64.7286 148.19 61.467 141.242 55.9178 138.03C55.6181 137.861 41.7426 129.519 41.9074 129.214C35.3742 125.438 34.2154 115.004 37.8466 108.386C38.0065 108.096 63.9544 61.2886 64.2541 61.4234C67.7255 55.0949 76.9109 53.1219 83.509 56.0439C83.7288 56.1438 115.78 70.1995 115.965 70.0447C120.81 72.1925 128.427 69.745 132.488 66.3384C132.693 66.1686 176.257 29.8756 176.487 30.0104C180.977 26.2493 188.19 26.1993 193.25 29.1513C193.419 29.2512 212.06 40.23 212.09 40.4198C215.771 42.5677 218.299 46.5586 218.888 50.7793C218.958 51.2888 220.406 57.4775 220.781 57.1278C222.334 68.3114 236.395 72.5721 244.601 64.815C244.841 64.5852 256.733 53.7013 256.978 53.9261C262.268 48.9262 270.519 48.8612 275.893 53.7712C276.018 53.8861 276.088 54.041 276.098 54.2058C278.8 56.6783 280.509 62.0278 280.689 65.6841C280.694 65.8339 282.841 108.076 282.941 108.186C283.101 111.427 286.073 116.337 288.271 118.725C288.545 119.02 325.382 159.648 325.032 159.853C331.016 166.362 327.57 177.85 319.953 182.34C319.818 182.42 277.876 207.065 277.722 207.035C274.735 208.793 268.067 208.713 264.675 207.999C264.49 207.959 195.592 193.514 195.442 193.634C191.407 192.785 185.068 195.457 181.832 198.009C181.642 198.159 134.506 235.206 134.286 235.101C130.1 238.408 121.804 237.764 117.009 235.426C116.729 235.291 59.8987 207.325 59.9886 207.025L59.9836 207.035Z" stroke="#111111" stroke-opacity="0.46" stroke-width="0.600907" stroke-miterlimit="10"/>
<path d="M66.7165 201.855C61.0923 199.113 58.8397 190.777 60.6078 184.778C60.7127 184.428 69.7982 152.65 69.4786 152.466C71.1468 146.791 67.9352 140.258 62.8105 137.296C62.4409 137.081 49.5943 129.259 49.7991 128.88C43.7654 125.393 43.0811 115.069 46.4326 108.96C46.6324 108.6 70.6973 65.3544 71.0769 65.5192C74.2786 59.6752 83.2342 58.0668 89.3229 60.7641C89.5976 60.8839 119.272 73.8507 119.501 73.6609C123.972 75.6439 131.649 72.8418 135.395 69.7C135.65 69.4852 175.958 35.9743 176.247 36.1441C180.393 32.6727 187.326 32.7876 191.996 35.5098C192.206 35.6297 209.453 45.8243 209.488 46.064C212.884 48.047 215.232 51.8182 215.776 55.7142C215.866 56.3486 217.399 62.1377 217.869 61.6931C219.302 72.0176 232.454 75.7888 240.031 68.6261C240.33 68.3413 251.429 58.2916 251.734 58.5713C256.618 53.956 264.236 53.8961 269.195 58.4314C269.35 58.5713 269.44 58.7661 269.45 58.9759C271.943 61.2536 273.556 66.8229 273.721 70.1994C273.731 70.3843 275.729 109.424 275.853 109.559C276.003 112.551 279.295 117.681 281.323 119.889C281.662 120.258 315.642 157.915 315.212 158.17C320.737 164.179 316.936 175.153 309.903 179.293C309.733 179.393 270.964 202.155 270.774 202.11C268.017 203.733 260.839 203.444 257.707 202.784C257.478 202.734 193.814 189.418 193.629 189.563C189.903 188.779 183.355 191.796 180.368 194.153C180.128 194.343 136.534 228.548 136.264 228.413C132.398 231.465 123.897 230.461 119.471 228.298C119.127 228.129 66.6216 202.21 66.7264 201.84L66.7165 201.855Z" stroke="#111111" stroke-opacity="0.46" stroke-width="0.600907" stroke-miterlimit="10"/>
<path d="M73.4494 196.676C68.2948 194.163 66.3918 185.972 68.0101 180.472C68.135 180.053 76.4213 150.817 76.0417 150.598C77.5701 145.393 74.4034 139.279 69.7083 136.562C69.2638 136.302 57.4511 129 57.6958 128.545C52.1666 125.348 51.9518 115.129 55.0236 109.529C55.2584 109.095 77.4503 69.4153 77.8998 69.6151C80.8367 64.2606 89.5576 63.0068 95.1418 65.4843C95.4715 65.6292 122.763 77.5021 123.038 77.2723C127.138 79.0904 134.87 75.9387 138.307 73.0566C138.611 72.8019 175.663 42.0732 176.013 42.278C179.814 39.0912 186.467 39.3759 190.747 41.8734C190.997 42.0182 206.85 51.4186 206.89 51.7083C210.007 53.5265 212.17 57.0779 212.664 60.6492C212.769 61.4135 214.397 66.793 214.957 66.2635C216.271 75.7239 228.513 79.0055 235.456 72.4472C235.815 72.1076 246.124 62.892 246.489 63.2316C250.964 59.0009 257.947 58.946 262.492 63.1017C262.677 63.2716 262.787 63.5063 262.802 63.7561C265.085 65.8439 266.598 71.6331 266.748 74.7249C266.758 74.9447 268.611 110.783 268.761 110.948C268.896 113.69 272.512 119.04 274.37 121.063C274.78 121.507 305.902 156.192 305.383 156.502C310.442 162.011 306.287 172.465 299.843 176.261C299.639 176.381 264.046 197.255 263.816 197.205C261.289 198.694 253.602 198.194 250.73 197.59C250.455 197.53 192.026 185.337 191.806 185.512C188.395 184.793 181.632 188.154 178.895 190.317C178.61 190.542 138.557 221.91 138.227 221.75C134.686 224.547 125.975 223.179 121.919 221.201C121.504 220.996 73.3245 197.125 73.4544 196.681L73.4494 196.676Z" stroke="#111111" stroke-opacity="0.46" stroke-width="0.600907" stroke-miterlimit="10"/>
<path d="M80.1825 191.496C75.4974 189.213 73.944 181.166 75.4124 176.167C75.5573 175.677 83.0445 148.984 82.6 148.724C83.9885 143.994 80.8668 138.295 76.6012 135.828C76.0818 135.528 65.303 128.74 65.5877 128.21C60.5629 125.303 60.8177 115.194 63.6098 110.104C63.8845 109.599 84.1933 73.4761 84.7178 73.7109C87.385 68.8408 95.8761 67.9518 100.951 70.2045C101.335 70.3743 126.244 81.1533 126.569 80.8836C130.295 82.5369 138.087 79.0305 141.209 76.4131C141.568 76.1134 175.363 48.1719 175.763 48.4067C179.219 45.5096 185.593 45.9592 189.489 48.2268C189.783 48.3967 204.233 57.0079 204.283 57.3476C207.115 59.0009 209.098 62.3375 209.548 65.5842C209.672 66.4733 211.391 71.4482 212.045 70.8338C213.239 79.4351 224.572 82.2272 230.885 76.2633C231.305 75.8637 240.82 67.4922 241.25 67.8818C245.32 64.0357 251.669 63.9858 255.799 67.7619C256.014 67.9567 256.144 68.2315 256.159 68.5262C258.237 70.4242 259.645 76.4281 259.785 79.2353C259.8 79.495 261.503 112.127 261.678 112.317C261.803 114.809 265.734 120.383 267.427 122.221C267.902 122.741 296.172 154.454 295.563 154.813C300.163 159.818 295.648 169.758 289.789 173.21C289.549 173.349 257.133 192.335 256.858 192.28C254.561 193.634 246.364 192.924 243.752 192.375C243.432 192.305 190.243 181.241 189.983 181.441C186.881 180.787 179.909 184.498 177.421 186.461C177.086 186.726 140.575 215.252 140.19 215.062C136.968 217.604 128.053 215.876 124.366 214.078C123.882 213.843 80.0276 192.015 80.1825 191.501V191.496Z" stroke="#111111" stroke-opacity="0.46" stroke-width="0.600907" stroke-miterlimit="10"/>
<path d="M86.9154 186.316C82.6998 184.258 81.4961 176.361 82.8197 171.861C82.9845 171.302 89.6726 147.151 89.1681 146.856C90.4218 142.601 87.34 137.316 83.499 135.093C82.9046 134.749 73.1548 128.48 73.4894 127.876C68.9642 125.258 69.6884 115.259 72.2008 110.673C72.5155 110.099 90.9412 77.5371 91.5456 77.8018C93.9481 73.4213 102.205 72.8918 106.77 74.9198C107.209 75.1146 129.736 84.7997 130.105 84.49C133.457 85.9785 141.309 82.1224 144.121 79.7648C144.53 79.4202 175.069 54.2658 175.528 54.5305C178.635 51.9232 184.733 52.5376 188.24 54.5805C188.574 54.7753 201.631 62.5973 201.686 62.9819C204.233 64.4704 206.036 67.5872 206.441 70.5093C206.581 71.5282 208.389 76.0986 209.138 75.3893C210.212 83.1314 220.636 85.4341 226.315 80.0645C226.795 79.61 235.521 72.0727 236.01 72.5172C239.671 69.0557 245.385 69.0108 249.106 72.4123C249.351 72.6371 249.501 72.9518 249.516 73.2814C251.384 74.9897 252.693 81.2084 252.817 83.7358C252.832 84.0305 254.391 113.461 254.591 113.68C254.701 115.923 258.956 121.717 260.48 123.37C261.024 123.965 286.437 152.706 285.743 153.115C289.884 157.621 285.014 167.041 279.739 170.148C279.47 170.308 250.22 187.405 249.911 187.34C247.843 188.559 239.132 187.64 236.784 187.145C236.415 187.066 188.465 177.126 188.17 177.36C185.378 176.771 178.195 180.827 175.958 182.595C175.578 182.895 142.602 208.584 142.168 208.369C139.271 210.656 130.15 208.564 126.829 206.945C126.274 206.676 86.7456 186.901 86.9204 186.306L86.9154 186.316Z" stroke="#111111" stroke-opacity="0.46" stroke-width="0.600907" stroke-miterlimit="10"/>
<path d="M93.6485 181.137C89.9024 179.308 89.0433 171.556 90.2221 167.555C90.4069 166.926 96.2957 145.313 95.7263 144.988C96.8402 141.202 93.8083 136.332 90.3919 134.359C89.7226 133.97 81.0067 128.22 81.3813 127.541C77.3605 125.219 78.5542 115.319 80.7869 111.248C81.1415 110.598 97.6893 81.598 98.3636 81.8977C100.501 78.0016 108.518 77.8368 112.579 79.64C113.073 79.8597 133.222 88.451 133.637 88.1063C136.619 89.43 144.525 85.2193 147.028 83.1264C147.487 82.7418 174.769 60.3646 175.288 60.6693C178.051 58.3517 183.869 59.1309 186.986 60.944C187.366 61.1638 199.024 68.1966 199.084 68.6312C201.351 69.9548 202.97 72.8519 203.329 75.4492C203.489 76.5931 205.387 80.7588 206.226 79.9646C207.18 86.8476 216.695 88.6558 221.745 83.8856C222.289 83.3712 230.216 76.673 230.771 77.1725C234.027 74.0956 239.107 74.0557 242.408 77.0776C242.683 77.3323 242.853 77.682 242.868 78.0566C244.531 79.575 245.74 86.0085 245.85 88.2562C245.865 88.5859 247.283 114.814 247.508 115.059C247.608 117.052 252.183 123.066 253.537 124.534C254.151 125.204 276.703 150.977 275.923 151.437C279.605 155.443 274.375 164.344 269.69 167.106C269.385 167.286 243.312 182.495 242.963 182.425C241.125 183.509 231.904 182.38 229.817 181.941C229.402 181.856 186.692 173.04 186.357 173.3C183.874 172.775 176.482 177.176 174.489 178.749C174.06 179.089 144.63 201.93 144.136 201.691C141.559 203.724 132.233 201.271 129.281 199.833C128.657 199.528 93.4537 181.801 93.6535 181.137H93.6485Z" stroke="#111111" stroke-opacity="0.46" stroke-width="0.600907" stroke-miterlimit="10"/>
<path d="M100.381 175.957C97.0998 174.358 96.5953 166.751 97.6242 163.25C97.829 162.55 102.919 143.48 102.284 143.115C103.258 139.804 100.271 135.348 97.2846 133.625C96.5404 133.195 88.8584 127.961 89.2729 127.206C85.7566 125.173 87.4199 115.383 89.3728 111.817C89.7674 111.098 104.432 85.6588 105.186 85.9934C107.054 82.5869 114.841 82.7817 118.398 84.3551C118.947 84.5998 136.713 92.0972 137.173 91.7126C139.78 92.8714 147.747 88.3111 149.935 86.4779C150.444 86.0484 174.474 66.4583 175.049 66.793C177.466 64.765 183.005 65.7041 185.732 67.2975C186.152 67.5422 196.411 73.7858 196.481 74.2654C198.464 75.4192 199.898 78.1064 200.217 80.3791C200.392 81.6528 202.385 85.409 203.319 84.5299C204.153 90.5538 212.754 91.8724 217.175 87.6967C217.779 87.1273 224.917 81.2632 225.526 81.8227C228.373 79.1304 232.818 79.0954 235.71 81.7377C236.02 82.0175 236.2 82.4121 236.225 82.8266C237.678 84.1553 238.787 90.8035 238.882 92.7715C238.902 93.1411 240.171 116.163 240.42 116.437C240.505 118.181 245.405 124.414 246.589 125.703C247.268 126.442 266.968 149.249 266.099 149.758C269.32 153.265 263.731 161.651 259.63 164.069C259.291 164.269 236.39 177.59 236.005 177.51C234.397 178.459 224.667 177.121 222.839 176.736C222.379 176.641 184.903 168.949 184.534 169.239C182.361 168.779 174.759 173.529 173.016 174.903C172.541 175.277 146.648 195.282 146.104 195.017C143.851 196.801 134.316 193.978 131.734 192.72C131.039 192.38 100.167 176.701 100.381 175.962V175.957Z" stroke="#111111" stroke-opacity="0.46" stroke-width="0.600907" stroke-miterlimit="10"/>
<path d="M107.114 170.777C104.302 169.408 104.148 161.946 105.027 158.944C105.251 158.175 109.542 141.647 108.848 141.247C109.682 138.41 106.74 134.369 104.182 132.891C103.363 132.416 96.7153 127.701 97.1698 126.872C94.1529 125.129 96.2907 115.448 97.964 112.392C98.3985 111.597 111.18 89.7246 112.009 90.0892C113.613 87.1672 121.165 87.7267 124.212 89.0753C124.816 89.345 140.2 95.7485 140.709 95.3239C142.947 96.3129 150.974 91.4029 152.847 89.8345C153.411 89.365 174.18 72.5571 174.814 72.9267C176.887 71.1885 182.146 72.2924 184.484 73.656C184.943 73.9257 193.809 79.3802 193.884 79.9096C195.582 80.8986 196.836 83.3661 197.106 85.3141C197.3 86.7127 199.378 90.0693 200.407 89.0953C201.126 94.255 208.813 95.0891 212.599 91.5078C213.264 90.8834 219.612 85.8536 220.281 86.4679C222.724 84.1603 226.53 84.1303 229.012 86.398C229.352 86.7077 229.552 87.1372 229.577 87.5968C230.825 88.7356 231.829 95.5986 231.914 97.2819C231.934 97.6865 233.058 117.506 233.333 117.806C233.408 119.299 238.627 125.753 239.641 126.857C240.39 127.671 257.233 147.506 256.279 148.065C259.041 151.067 253.097 158.939 249.581 161.012C249.206 161.232 229.482 172.67 229.057 172.58C227.679 173.394 217.439 171.846 215.871 171.516C215.367 171.411 183.125 164.843 182.721 165.168C180.858 164.773 173.046 169.868 171.552 171.047C171.028 171.461 148.676 188.624 148.077 188.329C146.144 189.858 136.404 186.676 134.191 185.597C133.427 185.227 106.88 171.596 107.119 170.782L107.114 170.777Z" stroke="#111111" stroke-opacity="0.46" stroke-width="0.600907" stroke-miterlimit="10"/>
<path d="M113.852 165.597C111.51 164.453 111.7 157.141 112.439 154.638C112.684 153.799 116.175 139.814 115.416 139.374C116.11 137.011 113.218 133.385 111.08 132.151C110.186 131.637 104.572 127.436 105.066 126.532C102.554 125.079 105.156 115.503 106.555 112.961C107.029 112.097 117.933 93.7805 118.832 94.1801C120.166 91.7476 127.488 92.6666 130.025 93.7905C130.69 94.0852 143.686 99.3948 144.241 98.9303C146.104 99.7544 154.19 94.4948 155.749 93.1861C156.363 92.6716 173.875 78.6509 174.569 79.0505C176.297 77.602 181.277 78.8707 183.225 80.0095C183.729 80.3042 191.197 84.9695 191.277 85.5439C192.69 86.3681 193.764 88.6158 193.989 90.2391C194.199 91.7676 196.371 94.7146 197.49 93.6556C198.09 97.9563 204.867 98.3009 208.024 95.3189C208.748 94.6346 214.303 90.4439 215.037 91.1132C217.07 89.1902 220.246 89.1652 222.309 91.0533C222.679 91.3929 222.899 91.8625 222.924 92.362C223.963 93.311 224.867 100.389 224.937 101.792C224.956 102.237 225.935 118.85 226.235 119.175C226.295 120.423 231.834 127.097 232.683 128.011C233.503 128.9 247.488 145.763 246.444 146.377C248.747 148.879 242.443 156.232 239.511 157.96C239.102 158.2 222.549 167.75 222.089 167.65C220.941 168.33 210.192 166.571 208.883 166.297C208.334 166.182 181.332 160.742 180.887 161.092C179.334 160.762 171.312 166.202 170.069 167.186C169.494 167.635 150.689 181.961 150.03 181.641C148.421 182.915 138.477 179.373 136.629 178.469C135.794 178.065 113.573 166.481 113.837 165.592L113.852 165.597Z" stroke="#111111" stroke-opacity="0.46" stroke-width="0.600907" stroke-miterlimit="10"/>
<path d="M120.585 160.418C118.712 159.504 119.252 152.336 119.841 150.333C120.111 149.424 122.798 137.98 121.974 137.506C122.528 135.613 119.681 132.406 117.973 131.422C117.004 130.863 112.424 127.181 112.963 126.202C110.95 125.039 114.027 115.573 115.146 113.535C115.66 112.596 124.681 97.8463 125.66 98.2809C126.729 96.3329 133.816 97.6166 135.844 98.5156C136.564 98.8353 147.183 103.051 147.782 102.547C149.27 103.206 157.417 97.5916 158.666 96.5477C159.33 95.9882 173.59 84.7497 174.339 85.1892C175.723 84.0304 180.423 85.4639 181.981 86.373C182.526 86.6927 188.594 90.5688 188.684 91.1931C189.818 91.8524 190.707 93.8804 190.887 95.1791C191.117 96.8324 193.374 99.3748 194.593 98.2309C195.073 101.672 200.942 101.523 203.464 99.14C204.248 98.4008 209.013 95.0442 209.807 95.7684C211.436 94.23 213.973 94.21 215.626 95.7235C216.026 96.0881 216.266 96.5976 216.29 97.1371C217.12 97.8963 217.929 105.189 217.984 106.313C218.009 106.792 218.838 120.204 219.163 120.558C219.212 121.557 225.071 128.45 225.751 129.184C226.635 130.148 237.763 144.039 236.634 144.704C238.477 146.707 231.814 153.54 229.472 154.923C229.027 155.183 215.651 162.845 215.147 162.74C214.228 163.28 202.969 161.317 201.925 161.097C201.326 160.972 179.564 156.656 179.084 157.036C177.841 156.776 169.609 162.56 168.615 163.345C167.996 163.834 152.727 175.317 152.018 174.968C150.729 175.987 140.579 172.081 139.101 171.361C138.197 170.922 120.301 161.387 120.585 160.423V160.418Z" stroke="#111111" stroke-opacity="0.46" stroke-width="0.600907" stroke-miterlimit="10"/>
<path d="M127.318 155.238C125.915 154.554 126.804 147.531 127.243 146.027C127.533 145.048 129.421 136.147 128.537 135.633C128.957 134.214 126.15 131.422 124.871 130.683C123.827 130.078 120.281 126.917 120.86 125.863C119.352 124.989 122.898 115.633 123.737 114.105C124.292 113.096 131.429 101.902 132.483 102.372C133.282 100.913 140.14 102.557 141.663 103.231C142.438 103.575 150.674 106.697 151.318 106.158C152.437 106.652 160.639 100.688 161.578 99.9042C162.292 99.3048 173.295 90.8485 174.1 91.318C175.134 90.4489 179.559 92.0472 180.728 92.7315C181.312 93.0762 185.987 96.163 186.082 96.8324C186.931 97.3269 187.64 99.14 187.775 100.114C188.025 101.897 190.373 104.035 191.681 102.796C192.041 105.379 197.001 104.739 198.894 102.951C199.738 102.152 203.709 99.6345 204.568 100.414C205.787 99.2599 207.695 99.2449 208.933 100.379C209.363 100.773 209.623 101.323 209.653 101.902C210.277 102.472 210.981 109.979 211.021 110.823C211.046 111.338 211.735 121.547 212.085 121.927C212.12 122.676 218.304 129.789 218.813 130.338C219.767 131.377 228.038 142.296 226.825 143.01C228.203 144.514 221.191 150.832 219.432 151.866C218.958 152.146 208.748 157.92 208.209 157.805C207.52 158.21 195.747 156.037 194.968 155.872C194.324 155.737 177.801 152.551 177.281 152.955C176.352 152.76 167.906 158.889 167.162 159.479C166.493 160.008 154.765 168.649 154.001 168.275C153.037 169.039 142.677 164.773 141.569 164.234C140.6 163.759 127.029 156.272 127.333 155.238H127.318Z" stroke="#111111" stroke-opacity="0.46" stroke-width="0.600907" stroke-miterlimit="10"/>
<path d="M134.051 150.058C133.112 149.604 134.351 142.726 134.646 141.722C134.955 140.673 136.044 134.314 135.095 133.765C135.375 132.821 132.618 130.443 131.764 129.954C130.65 129.309 128.133 126.667 128.752 125.533C127.748 124.954 131.764 115.698 132.318 114.679C132.913 113.6 138.172 105.968 139.296 106.467C139.83 105.493 146.453 107.501 147.467 107.951C148.297 108.316 154.15 110.349 154.845 109.769C155.589 110.099 163.85 103.78 164.475 103.256C165.244 102.611 172.986 96.9422 173.85 97.4467C174.539 96.8673 178.685 98.6305 179.464 99.085C180.093 99.4496 183.37 101.752 183.47 102.472C184.034 102.801 184.559 104.395 184.654 105.044C184.918 106.952 187.361 108.685 188.759 107.362C188.999 109.08 193.05 107.956 194.309 106.762C195.213 105.908 198.394 104.225 199.308 105.064C200.123 104.295 201.391 104.285 202.22 105.039C202.68 105.459 202.96 106.048 202.99 106.672C203.404 107.052 204.008 114.774 204.038 115.333C204.063 115.888 204.608 122.891 204.982 123.3C205.007 123.8 211.511 131.132 211.85 131.502C212.874 132.616 218.289 140.563 216.985 141.327C217.904 142.326 210.532 148.13 209.358 148.819C208.848 149.119 201.816 153.005 201.236 152.885C200.777 153.155 188.495 150.772 187.975 150.657C187.286 150.513 175.998 148.45 175.443 148.889C174.824 148.759 166.168 155.233 165.668 155.627C164.954 156.192 156.768 161.991 155.949 161.591C155.304 162.101 144.74 157.471 144.001 157.111C142.962 156.601 133.717 151.167 134.041 150.053L134.051 150.058Z" stroke="#111111" stroke-opacity="0.46" stroke-width="0.600907" stroke-miterlimit="10"/>
<path d="M140.784 144.878C140.315 144.649 141.903 137.92 142.053 137.416C142.383 136.297 142.672 132.481 141.663 131.892C141.803 131.417 139.091 129.459 138.662 129.214C137.473 128.525 135.989 126.402 136.649 125.193C136.144 124.904 140.63 115.758 140.909 115.249C141.544 114.095 144.92 110.029 146.124 110.558C146.389 110.074 152.782 112.436 153.286 112.661C154.17 113.051 157.642 113.99 158.381 113.37C158.756 113.535 167.072 106.867 167.387 106.602C168.206 105.918 172.696 103.026 173.615 103.565C173.96 103.276 177.826 105.204 178.215 105.434C178.885 105.823 180.768 107.332 180.873 108.101C181.157 108.266 181.497 109.639 181.542 109.964C181.827 112.002 184.354 113.325 185.852 111.917C185.972 112.776 189.109 111.163 189.743 110.563C190.707 109.654 193.095 108.805 194.074 109.699C194.478 109.315 195.118 109.31 195.527 109.689C196.022 110.139 196.311 110.763 196.346 111.432C196.556 111.622 197.061 119.559 197.071 119.839C197.101 120.428 197.495 124.229 197.895 124.664C197.905 124.914 204.733 132.466 204.903 132.651C205.991 133.835 208.549 138.815 207.165 139.634C207.625 140.133 199.893 145.418 199.308 145.762C198.764 146.082 194.908 148.085 194.289 147.95C194.059 148.085 181.267 145.488 181.007 145.433C180.273 145.278 174.219 144.344 173.63 144.808C173.32 144.743 164.455 151.562 164.205 151.761C163.441 152.366 158.796 155.323 157.921 154.898C157.602 155.153 146.828 150.163 146.463 149.983C145.355 149.444 140.435 146.052 140.784 144.868V144.878Z" stroke="#111111" stroke-opacity="0.46" stroke-width="0.600907" stroke-miterlimit="10"/>
<path d="M189.703 116.208L190.108 124.359C190.138 124.989 190.388 125.583 190.812 126.048L197.955 133.82C199.113 135.078 198.814 137.086 197.34 137.956L189.254 142.721C188.674 143.06 187.99 143.175 187.336 143.035L174.035 140.228C173.255 140.063 172.441 140.253 171.812 140.748L162.736 147.915C161.927 148.555 160.818 148.675 159.889 148.22L148.916 142.866C147.737 142.291 147.143 140.948 147.517 139.689L149.455 133.101C149.805 131.912 149.295 130.633 148.222 130.014L145.554 128.47C144.291 127.741 143.841 126.133 144.54 124.849L149.495 115.808C150.164 114.584 151.663 114.075 152.942 114.644L159.095 117.372C160.034 117.786 161.128 117.631 161.912 116.972L170.289 109.949C171.158 109.22 172.391 109.115 173.37 109.689L176.957 111.782C177.671 112.197 178.15 112.916 178.265 113.735L178.425 114.894C178.725 117.057 181.347 117.981 182.935 116.477L185.163 114.37C186.187 113.401 187.785 113.391 188.824 114.34C189.349 114.819 189.658 115.483 189.693 116.193L189.703 116.208Z" stroke="#111111" stroke-opacity="0.46" stroke-width="0.600907" stroke-miterlimit="10"/>
<path d="M381.78 176.48C383.28 177.04 384.26 178.46 384.26 180.06V180.12C384.26 182.24 382.54 183.96 380.44 183.96H379.82C377.96 183.96 376.36 182.62 376.04 180.78L378.3 180.4C378.44 181.14 379.08 181.66 379.82 181.66H380.44C381.28 181.66 381.98 180.98 381.98 180.12V180.06C381.98 179.42 381.58 178.84 380.98 178.62L378.48 177.68C376.74 177.04 375.72 175.24 376.06 173.4C376.38 171.58 377.98 170.26 379.82 170.26H380.44C381.9 170.26 383.24 171.08 383.88 172.4L381.82 173.42C381.56 172.88 381.02 172.54 380.44 172.54H379.82C379.08 172.54 378.44 173.08 378.3 173.82C378.18 174.54 378.58 175.28 379.28 175.54L381.78 176.48ZM397.153 170.26H399.433V178.94C399.433 181.74 397.153 184.02 394.353 184.02C391.533 184.02 389.273 181.74 389.273 178.94V170.26H391.553V178.94C391.553 180.48 392.813 181.72 394.353 181.72C395.893 181.72 397.153 180.48 397.153 178.94V170.26ZM410.241 176.46C411.741 177.04 412.721 178.46 412.721 180.06V180.12C412.721 182.24 411.001 183.96 408.901 183.96H408.281C406.421 183.96 404.821 182.62 404.501 180.78L406.761 180.38C406.901 181.12 407.541 181.66 408.281 181.66H408.901C409.741 181.66 410.441 180.98 410.441 180.12V180.06C410.441 179.42 410.041 178.84 409.441 178.62L406.941 177.68C405.201 177.02 404.181 175.22 404.521 173.4C404.841 171.58 406.441 170.26 408.281 170.26H408.901C410.361 170.24 411.701 171.08 412.341 172.4L410.281 173.4C410.021 172.88 409.481 172.54 408.901 172.54H408.281C407.541 172.54 406.901 173.08 406.761 173.82C406.641 174.54 407.041 175.26 407.741 175.54L410.241 176.46ZM423.654 170.26C425.834 170.3 427.574 172.08 427.574 174.26C427.574 176.44 425.834 178.24 423.654 178.28H420.014V184H417.734V170.26H423.654ZM423.654 175.98C424.574 175.96 425.314 175.2 425.314 174.26C425.314 173.34 424.574 172.58 423.654 172.54H420.014V175.98H423.654ZM434.85 184H432.57V170.26H434.85V184ZM449.887 180.46L451.467 182.12C448.767 184.7 444.467 184.64 441.847 181.96C439.207 179.3 439.187 175 441.827 172.32C444.447 169.64 448.727 169.56 451.447 172.12L449.887 173.8C448.067 172.08 445.207 172.14 443.467 173.92C441.707 175.72 441.707 178.58 443.467 180.36C445.227 182.14 448.087 182.18 449.887 180.46ZM458.76 184H456.48V170.26H458.76V184ZM470.637 170.26C474.437 170.26 477.517 173.34 477.517 177.14C477.517 180.94 474.437 184.02 470.637 184.02C466.857 184.02 463.777 180.94 463.777 177.14C463.777 173.34 466.857 170.26 470.637 170.26ZM470.637 181.72C473.177 181.72 475.237 179.66 475.237 177.14C475.237 174.6 473.177 172.54 470.637 172.54C468.117 172.54 466.057 174.6 466.057 177.14C466.057 179.66 468.117 181.72 470.637 181.72ZM491.139 170.26H493.419V184.06L484.819 175.66V184H482.539V170.2L491.139 178.62V170.26ZM509.1 184H506.82V170.26H509.1V184ZM519.897 176.46C521.397 177.04 522.377 178.46 522.377 180.06V180.12C522.377 182.24 520.657 183.96 518.557 183.96H517.937C516.077 183.96 514.477 182.62 514.157 180.78L516.417 180.38C516.557 181.12 517.197 181.66 517.937 181.66H518.557C519.397 181.66 520.097 180.98 520.097 180.12V180.06C520.097 179.42 519.697 178.84 519.097 178.62L516.597 177.68C514.857 177.02 513.837 175.22 514.177 173.4C514.497 171.58 516.097 170.26 517.937 170.26H518.557C520.017 170.24 521.357 171.08 521.997 172.4L519.937 173.4C519.677 172.88 519.137 172.54 518.557 172.54H517.937C517.197 172.54 516.557 173.08 516.417 173.82C516.297 174.54 516.697 175.26 517.397 175.54L519.897 176.46ZM543.801 176.54C545.341 177.46 546.081 179.3 545.621 181.04C545.141 182.78 543.561 183.98 541.741 183.98H535.781V170.26H540.501C541.981 170.26 543.361 171.08 544.041 172.4C544.741 173.72 544.641 175.32 543.801 176.54ZM538.061 172.54V175.98H540.501C541.441 175.98 542.221 175.2 542.221 174.26C542.221 173.32 541.441 172.54 540.501 172.54H538.061ZM541.741 181.7C542.701 181.7 543.461 180.92 543.461 179.98C543.461 179.04 542.701 178.28 541.741 178.28H538.061V181.7H541.741ZM559.314 172.54H553.034V175.98H558.354V178.28H553.034V181.72H559.314V184H550.754V170.26H559.314V172.54ZM572.92 170.26H575.2V184.06L566.6 175.66V184H564.32V170.2L572.92 178.62V170.26ZM588.771 172.54H582.491V175.98H587.811V178.28H582.491V181.72H588.771V184H580.211V170.26H588.771V172.54ZM602.337 172.54H596.057V175.98H601.377V178.28H596.057V184H593.777V170.26H602.337V172.54ZM609.624 184H607.344V170.26H609.624V184ZM624.661 180.46L626.241 182.12C623.541 184.7 619.241 184.64 616.621 181.96C613.981 179.3 613.961 175 616.601 172.32C619.221 169.64 623.501 169.56 626.221 172.12L624.661 173.8C622.841 172.08 619.981 172.14 618.241 173.92C616.481 175.72 616.481 178.58 618.241 180.36C620.001 182.14 622.861 182.18 624.661 180.46ZM633.534 184H631.254V170.26H633.534V184ZM644.351 170.14L650.111 184H647.631L646.691 181.72H641.991L641.031 184H638.551L644.351 170.14ZM642.951 179.44H645.731L644.351 176.1L642.951 179.44ZM657.405 181.72H663.145V184H655.125V170.26H657.405V181.72Z" fill="#515151"/>
<path d="M264.685 73.085C273.235 73.085 280.165 80.015 280.165 88.565C280.165 97.115 273.235 104.045 264.685 104.045C256.18 104.045 249.25 97.115 249.25 88.565C249.25 80.015 256.18 73.085 264.685 73.085ZM264.685 98.87C270.4 98.87 275.035 94.235 275.035 88.565C275.035 82.85 270.4 78.215 264.685 78.215C259.015 78.215 254.38 82.85 254.38 88.565C254.38 94.235 259.015 98.87 264.685 98.87ZM309.608 73.085H315.188L302.183 104.18L289.223 73.085H294.803L302.183 90.815L309.608 73.085ZM345.731 78.215H331.601V85.955H343.571V91.13H331.601V98.87H345.731V104H326.471V73.085H345.731V78.215ZM372.115 90.95L381.115 104H374.815L365.95 91.13H362.125V104H356.995V73.085H370.315C374.95 73.085 378.82 76.595 379.27 81.185C379.72 85.82 376.66 90.005 372.115 90.95ZM362.125 85.955H370.315C371.71 86 373.06 85.28 373.78 84.065C374.5 82.85 374.5 81.32 373.78 80.105C373.06 78.89 371.71 78.17 370.315 78.215H362.125V85.955ZM392.354 73.085H411.254V78.215H404.369V104H399.194V78.215H392.354V73.085ZM437.602 90.95L446.602 104H440.302L431.437 91.13H427.612V104H422.482V73.085H435.802C440.437 73.085 444.307 76.595 444.757 81.185C445.207 85.82 442.147 90.005 437.602 90.95ZM427.612 85.955H435.802C437.197 86 438.547 85.28 439.267 84.065C439.987 82.85 439.987 81.32 439.267 80.105C438.547 78.89 437.197 78.17 435.802 78.215H427.612V85.955ZM475.571 73.085H480.701V92.615C480.701 98.915 475.571 104.045 469.271 104.045C462.926 104.045 457.841 98.915 457.841 92.615V73.085H462.971V92.615C462.971 96.08 465.806 98.87 469.271 98.87C472.736 98.87 475.571 96.08 475.571 92.615V73.085ZM505.018 87.035C508.393 88.34 510.598 91.535 510.598 95.135V95.27C510.598 100.04 506.728 103.91 502.003 103.91H500.608C496.423 103.91 492.823 100.895 492.103 96.755L497.188 95.855C497.503 97.52 498.943 98.735 500.608 98.735H502.003C503.893 98.735 505.468 97.205 505.468 95.27V95.135C505.468 93.695 504.568 92.39 503.218 91.895L497.593 89.78C493.678 88.295 491.383 84.245 492.148 80.15C492.868 76.055 496.468 73.085 500.608 73.085H502.003C505.288 73.04 508.303 74.93 509.743 77.9L505.108 80.15C504.523 78.98 503.308 78.215 502.003 78.215H500.608C498.943 78.215 497.503 79.43 497.188 81.095C496.918 82.715 497.818 84.335 499.393 84.965L505.018 87.035ZM521.878 73.085H540.778V78.215H533.893V104H528.718V78.215H521.878V73.085ZM557.137 104H552.007V73.085H557.137V104ZM587.775 73.085H592.905V104.135L573.555 85.235V104H568.425V72.95L587.775 91.895V73.085ZM619.659 85.955H631.134V99.005L630.324 99.77C624.204 105.575 614.529 105.44 608.634 99.41C602.694 93.425 602.649 83.75 608.589 77.72C614.484 71.69 624.114 71.51 630.279 77.27L626.724 81.05C622.719 77.27 616.464 77.315 612.504 81.095C608.544 84.875 608.229 91.13 611.829 95.27C615.384 99.455 621.594 100.085 625.959 96.71V91.13H619.659V85.955ZM262.3 123.815L275.26 155.045H269.68L267.565 149.915H256.99L254.83 155.045H249.25L262.3 123.815ZM259.15 144.74H265.405L262.3 137.225L259.15 144.74ZM291.672 155H286.542V124.085H291.672V155ZM330.839 124.085C339.389 124.085 346.319 131.015 346.319 139.565C346.319 148.115 339.389 155.045 330.839 155.045H321.839V124.085H330.839ZM330.839 149.87C336.554 149.87 341.189 145.235 341.189 139.565C341.189 133.85 336.554 129.215 330.839 129.215H326.969V149.87H330.839ZM376.853 129.215H362.723V136.955H374.693V142.13H362.723V149.87H376.853V155H357.593V124.085H376.853V129.215ZM410.662 147.035L414.217 150.77C408.142 156.575 398.467 156.44 392.572 150.41C386.632 144.425 386.587 134.75 392.527 128.72C398.422 122.69 408.052 122.51 414.172 128.27L410.662 132.05C406.567 128.18 400.132 128.315 396.217 132.32C392.257 136.37 392.257 142.805 396.217 146.81C400.177 150.815 406.612 150.905 410.662 147.035ZM430.627 155H425.497V124.085H430.627V155ZM454.92 138.035C458.295 139.34 460.5 142.535 460.5 146.135V146.27C460.5 151.04 456.63 154.91 451.905 154.91H450.51C446.325 154.91 442.725 151.895 442.005 147.755L447.09 146.855C447.405 148.52 448.845 149.735 450.51 149.735H451.905C453.795 149.735 455.37 148.205 455.37 146.27V146.135C455.37 144.695 454.47 143.39 453.12 142.895L447.495 140.78C443.58 139.295 441.285 135.245 442.05 131.15C442.77 127.055 446.37 124.085 450.51 124.085H451.905C455.19 124.04 458.205 125.93 459.645 128.9L455.01 131.15C454.425 129.98 453.21 129.215 451.905 129.215H450.51C448.845 129.215 447.405 130.43 447.09 132.095C446.82 133.715 447.72 135.335 449.295 135.965L454.92 138.035ZM476.91 155H471.78V124.085H476.91V155ZM503.633 124.085C512.183 124.085 519.113 131.015 519.113 139.565C519.113 148.115 512.183 155.045 503.633 155.045C495.128 155.045 488.198 148.115 488.198 139.565C488.198 131.015 495.128 124.085 503.633 124.085ZM503.633 149.87C509.348 149.87 513.983 145.235 513.983 139.565C513.983 133.85 509.348 129.215 503.633 129.215C497.963 129.215 493.328 133.85 493.328 139.565C493.328 145.235 497.963 149.87 503.633 149.87ZM549.762 124.085H554.892V155.135L535.542 136.235V155H530.412V123.95L549.762 142.895V124.085ZM579.171 138.035C582.546 139.34 584.751 142.535 584.751 146.135V146.27C584.751 151.04 580.881 154.91 576.156 154.91H574.761C570.576 154.91 566.976 151.895 566.256 147.755L571.341 146.855C571.656 148.52 573.096 149.735 574.761 149.735H576.156C578.046 149.735 579.621 148.205 579.621 146.27V146.135C579.621 144.695 578.721 143.39 577.371 142.895L571.746 140.78C567.831 139.295 565.536 135.245 566.301 131.15C567.021 127.055 570.621 124.085 574.761 124.085H576.156C579.441 124.04 582.456 125.93 583.896 128.9L579.261 131.15C578.676 129.98 577.461 129.215 576.156 129.215H574.761C573.096 129.215 571.656 130.43 571.341 132.095C571.071 133.715 571.971 135.335 573.546 135.965L579.171 138.035Z" fill="black"/>
</svg>
