<svg width="366" height="340" viewBox="0 0 366 340" fill="none" xmlns="http://www.w3.org/2000/svg">
<path d="M342.742 240.951L343.35 239.117C347.465 226.5 349.488 213.295 349.338 200.024C343.39 196.204 333.876 194.36 321.21 194.654H320.764L320.824 194.208C326.377 157.253 322.294 120.735 309.04 88.593L308.827 88.0762H309.384C333.48 87.5189 348.903 92.9299 354.04 103.711C359.036 114.219 353.797 129.043 338.891 146.573C345.94 163.39 349.743 181.389 350.098 199.619C352.572 201.197 354.566 203.422 355.864 206.053C359.755 214.251 355.651 225.813 343.998 239.492L342.742 240.951ZM350.109 200.541C350.194 213.069 348.356 225.536 344.657 237.506C355.155 224.739 358.792 213.998 355.175 206.378C354.02 204.026 352.274 202.015 350.109 200.541ZM323.763 193.864C335.021 193.864 343.654 195.657 349.338 199.133C348.919 181.088 345.11 163.282 338.111 146.644L338.02 146.432L338.172 146.249C352.986 128.891 358.235 114.29 353.371 104.036C348.508 93.781 333.42 88.3701 309.972 88.8362C323.064 120.846 327.107 157.152 321.666 193.904L323.763 193.864Z" fill="black"/>
<path d="M349.754 209.539L349.176 209.043C362.349 193.58 367.051 180.579 362.714 171.45C358.275 162.117 344.738 157.446 323.57 157.922V157.162C345.052 156.676 358.843 161.499 363.423 171.125C367.881 180.539 363.149 193.823 349.754 209.539Z" fill="black"/>
<path d="M347.95 178.37L347.373 177.874C361.691 161.084 366.777 146.969 362.065 137.059C357.242 126.926 342.539 121.859 319.507 122.356V121.596C342.813 121.069 357.749 126.297 362.704 136.724C367.639 146.928 362.521 161.337 347.95 178.37Z" fill="black"/>
<path d="M357.12 215.112L356.401 214.859C368.216 181.582 367.709 147.161 354.942 115.323L355.651 115.05C368.479 147.049 368.986 181.653 357.12 215.112Z" fill="black"/>
<path d="M349.298 199.457L348.568 199.244C359.005 163.201 357.688 127.199 344.839 95.149L345.549 94.8652C358.478 127.078 359.775 163.242 349.298 199.457Z" fill="black"/>
<path d="M175.478 243.586L175.285 243.302C154.723 214.288 136.585 183.631 121.054 151.64L120.892 151.316L121.206 151.143C185.773 114.513 261.395 89.1705 309.384 88.0762H309.648L309.739 88.3194C323.053 120.583 327.147 157.223 321.584 194.34L321.534 194.664H321.209C284.143 195.515 225.697 215.112 175.782 243.424L175.478 243.586ZM121.885 151.63C137.316 183.361 155.311 213.779 175.691 242.583C225.504 214.393 283.738 194.857 320.865 193.945C326.326 157.193 322.273 120.866 309.131 88.8767C261.324 90.0217 186.168 115.222 121.885 151.63Z" fill="black"/>
<path d="M156.144 214.048L155.77 213.39C213.334 180.741 280.769 158.145 323.55 157.162V157.922C280.901 158.905 213.618 181.461 156.144 214.048Z" fill="black"/>
<path d="M137.936 183.264L137.561 182.596C200.01 147.131 273.159 122.66 319.588 121.596V122.356C273.291 123.42 200.284 147.891 137.936 183.264Z" fill="black"/>
<path d="M277.648 200.997C275.597 165.268 267.369 130.165 253.329 97.2465L254.028 96.9526C268.119 129.948 276.378 165.138 278.438 200.957L277.648 200.997Z" fill="black"/>
<path d="M227.034 218.061C215.693 184.453 202.638 151.447 187.921 119.174L188.61 118.85C203.342 151.152 216.406 184.188 227.754 217.828L227.034 218.061Z" fill="black"/>
<path d="M95.3572 323.22L94.7695 322.977C60.2366 308.588 33.3135 284.877 16.8982 254.347V254.195C15.7532 241.822 25.0856 225.498 43.8618 206.985C62.6381 188.473 89.318 169.22 121.206 151.143L121.561 150.94L121.733 151.305C137.247 183.26 155.365 213.884 175.904 242.866L176.147 243.211L175.782 243.413C125.938 271.684 93.6143 303.522 95.2964 322.592L95.3572 323.22ZM17.6177 254.053C33.8303 284.229 60.4291 307.757 94.506 322.034C93.4928 302.366 124.905 271.461 175.052 242.998C154.667 214.196 136.668 183.778 121.237 152.045C57.1359 188.432 15.4999 229.399 17.6177 254.053Z" fill="black"/>
<path d="M62.7294 305.305C61.7161 294.26 70.0656 279.699 86.8153 263.183C103.565 246.666 127.347 229.511 155.77 213.39L156.145 214.048C98.762 246.605 61.5236 283.246 63.4792 305.244L62.7294 305.305Z" fill="black"/>
<path d="M36.617 282.303C35.5429 270.326 44.5814 254.529 62.7396 236.624C80.8977 218.719 106.716 200.095 137.561 182.596L137.936 183.264C75.6489 218.588 35.2389 258.359 37.3769 282.243L36.617 282.303Z" fill="black"/>
<path d="M131.704 272.373C103.758 249.068 80.5837 220.27 64.6953 189.081L65.3742 188.736C81.2119 219.834 104.315 248.52 132.191 271.826L131.704 272.373Z" fill="black"/>
<path d="M103.748 300.067C70.8157 281.655 44.8046 255.624 28.521 224.799L29.1999 224.445C45.4125 255.137 71.3122 281.067 104.123 299.428L103.748 300.067Z" fill="black"/>
<path d="M128.066 340C116.363 340 107.284 338.024 101.457 334.032C99.5476 332.823 97.9375 331.197 96.7491 329.274C95.5606 327.352 94.8248 325.185 94.5974 322.936C65.7895 310.878 42.3116 292.376 25.8153 268.817L25.7038 268.735C20.3638 265.078 17.3948 260.183 16.8578 254.195L16.6855 252.351L17.5671 253.982C20.2146 258.908 23.148 263.676 26.3523 268.259C43.0108 279.405 82.2048 277.673 131.329 263.558L131.633 263.466L131.765 263.75C146.903 294.047 164.818 316.907 183.584 329.867L184.243 330.323L183.473 330.546C161.728 336.798 142.8 340 128.066 340ZM27.4973 269.87C43.8924 292.639 66.9447 310.574 95.0635 322.278L95.2763 322.359V322.592C95.4673 324.77 96.1593 326.875 97.2983 328.742C98.4374 330.609 99.9925 332.187 101.842 333.353C114.539 342.057 144.644 340.811 182.47 330.029C163.906 316.968 146.194 294.291 131.208 264.368C82.7824 278.26 45.2502 280.216 27.4973 269.87ZM17.9015 256.181C18.7456 260.416 21.0786 264.208 24.4777 266.871C22.1404 263.406 19.9483 259.842 17.9015 256.181Z" fill="black"/>
<path d="M101.224 325.156C87.7679 325.156 77.3209 322.886 70.6332 318.296C68.4017 316.888 66.5267 314.983 65.1554 312.729C63.7841 310.475 62.9537 307.934 62.7295 305.305L63.4793 305.245C63.6935 307.767 64.4894 310.204 65.8045 312.367C67.1196 314.529 68.9181 316.358 71.0587 317.708C85.7818 327.841 120.831 326.291 164.808 313.655L165.011 314.384C139.983 321.528 118.207 325.156 101.224 325.156Z" fill="black"/>
<path d="M78.3546 303.805C63.7632 303.805 52.4245 301.343 45.1795 296.368C40.0117 292.831 37.134 288.099 36.6172 282.303L37.3772 282.232C37.8737 287.795 40.6399 292.365 45.6051 295.74C61.5948 306.703 99.6235 305.052 147.319 291.362L147.532 292.092C120.406 299.874 96.7762 303.805 78.3546 303.805Z" fill="black"/>
<path d="M107.041 336.829C75.091 325.289 48.5907 302.253 32.7158 272.221L33.3846 271.867C49.1776 301.731 75.5318 324.639 107.304 336.119L107.041 336.829Z" fill="black"/>
<path d="M137.784 339.453C110.851 328.003 88.2442 305.923 72.4268 275.616L73.0955 275.261C88.842 305.417 111.307 327.365 138.078 338.754L137.784 339.453Z" fill="black"/>
<path d="M338.334 147.222L338.101 146.644C321.655 106.609 289.179 71.9243 246.621 48.9834L246.206 48.7605L246.51 48.4058C254.758 38.7391 258.933 30.2477 258.831 23.4789C248.644 16.2512 237.416 10.6138 225.535 6.75966L223.407 6.07062L225.646 6.01996C243.217 5.61464 254.494 9.5766 258.244 17.46C259.063 19.222 259.518 21.1314 259.581 23.0736C280.992 38.273 298.238 60.5653 309.638 88.066C333.602 87.5593 348.933 92.9703 354.04 103.711C359.046 114.249 353.756 129.135 338.739 146.746L338.334 147.222ZM247.391 48.5376C289.686 71.4582 322.03 105.951 338.587 145.813C353.098 128.648 358.215 114.229 353.381 104.066C348.396 93.5783 333.187 88.3092 309.435 88.8665H309.172L309.07 88.6334C297.802 61.2746 280.769 39.2356 259.612 24.0464C259.46 30.805 255.346 39.1343 247.391 48.5376ZM227.906 6.74952C238.884 10.5351 249.277 15.8424 258.781 22.5163C258.671 20.873 258.255 19.2647 257.555 17.7741C254.12 10.5392 243.936 6.73939 228.058 6.73939L227.906 6.74952Z" fill="black"/>
<path d="M317.126 108.656L316.548 108.16C331.028 91.1973 336.155 76.9302 331.393 66.9088C326.529 56.6644 311.684 51.5169 288.45 52.054V51.294C311.999 50.757 327.097 56.0463 332.102 66.5845C336.986 76.8897 331.808 91.4405 317.126 108.656Z" fill="black"/>
<path d="M286.139 75.5316L285.562 75.0453C298.674 59.6838 303.314 46.7745 299.008 37.7055C294.61 28.4441 281.164 23.7931 260.138 24.2795V23.5195C281.488 23.0331 295.178 27.826 299.717 37.3813C304.135 46.7644 299.444 59.9574 286.139 75.5316Z" fill="black"/>
<path d="M354.942 115.323C338.729 74.8931 304.642 43.2481 258.933 26.2147L259.196 25.5054C305.108 42.6097 339.357 74.4067 355.651 115.05L354.942 115.323Z" fill="black"/>
<path d="M344.839 95.1489C328.505 54.4451 295.391 24.7557 251.617 11.5323L251.83 10.8027C295.847 24.0971 329.133 53.9486 345.559 94.9057L344.839 95.1489Z" fill="black"/>
<path d="M121.226 152.005L121.054 151.64C101.64 111.544 90.0577 76.2612 88.4263 52.3375V52.0943L88.6289 51.9828C135.635 25.2725 190.698 6.82052 225.646 6.02002H225.707H225.768C263.016 18.068 292.837 47.2913 309.739 88.289L309.952 88.8057H309.445C261.567 89.9001 186.087 115.202 121.622 151.772L121.226 152.005ZM89.2065 52.4793C90.8784 76.2815 102.379 111.25 121.561 150.941C185.793 114.564 260.898 89.3631 308.827 88.1167C291.976 47.5851 262.438 18.7571 225.595 6.81038C190.809 7.64128 136.041 25.9514 89.2065 52.4793Z" fill="black"/>
<path d="M104.872 113.601L104.497 112.932C167.584 77.1425 241.555 52.3675 288.429 51.2935V52.0534C241.656 53.1275 167.878 77.8619 104.872 113.601Z" fill="black"/>
<path d="M93.8578 80.0508L93.4829 79.3922C150.653 46.9669 217.611 24.5226 260.108 23.5498V24.3098C217.743 25.2825 150.926 47.6762 93.8578 80.0508Z" fill="black"/>
<path d="M253.289 97.2464C235.708 56.5527 211.42 26.6404 184.902 13.0319L185.246 12.353C211.926 26.0426 236.336 56.0866 253.988 96.9526L253.289 97.2464Z" fill="black"/>
<path d="M187.921 119.174C169.439 78.7131 151.423 46.6425 137.186 28.9201L137.784 28.4438C152.061 46.2575 170.108 78.3787 188.61 118.89L187.921 119.174Z" fill="black"/>
<path d="M17.7799 255.978L16.8984 254.347C-3.92473 215.599 -5.4548 170.356 12.602 126.956C11.0618 108.444 40.8829 79.0176 88.5987 51.9729L89.1256 51.6689V52.2769C90.7469 76.15 102.298 111.331 121.672 151.336L121.824 151.66L121.52 151.833C57.1259 188.311 15.348 229.471 17.5469 254.175L17.7799 255.978ZM88.467 52.895C41.9367 79.3824 11.7711 109.122 13.3721 126.987V127.078V127.169C-4.40098 169.818 -3.16477 214.241 16.797 252.472C16.6552 240.313 25.9774 224.648 43.8924 206.986C62.547 188.595 89.1763 169.352 120.902 151.316C101.721 111.696 90.2402 76.7884 88.467 52.895Z" fill="black"/>
<path d="M2.50956 213.673C1.40508 201.575 10.5247 185.615 28.9057 167.518C47.2868 149.421 73.3385 130.614 104.497 112.932L104.872 113.601C41.9367 149.289 1.11122 189.486 3.25939 213.613L2.50956 213.673Z" fill="black"/>
<path d="M1.07056 170.679C0.0572705 159.705 8.36624 145.236 24.9943 128.841C41.6224 112.446 65.2523 95.4021 93.4826 79.3921L93.8575 80.0507C36.8701 112.375 -0.125121 148.772 1.83053 170.608L1.07056 170.679Z" fill="black"/>
<path d="M64.695 189.081C44.5103 149.441 38.3495 110.5 47.4691 79.4126L48.1987 79.6254C39.2108 110.521 45.3209 149.279 65.4246 188.736L64.695 189.081Z" fill="black"/>
<path d="M28.4805 224.799C7.79926 185.625 5.17484 143.209 21.0733 105.363L21.7725 105.657C5.95507 143.29 8.59976 185.473 29.1594 224.445L28.4805 224.799Z" fill="black"/>
<path d="M59.9936 276.427C44.9057 276.427 33.1921 273.873 25.7039 268.736C20.3841 265.098 17.4152 260.234 16.8579 254.276C-3.94496 215.518 -5.4345 170.274 12.6426 126.875L13.2303 125.457L13.3722 126.987C13.5436 129.036 14.1884 131.018 15.2557 132.776C16.3229 134.535 17.7836 136.021 19.5228 137.119C31.5303 145.358 60.1253 144.111 96.0059 133.796L96.4619 133.664V134.13C99.978 179.242 112.502 225.326 131.734 263.831L131.947 264.237L131.501 264.368C103.464 272.353 79.0434 276.427 59.9936 276.427ZM12.8047 128.486C-4.67453 171.277 -2.95194 215.801 17.6178 253.982V254.134C18.1346 259.88 21.0022 264.581 26.1396 268.107C42.6157 279.406 81.759 277.744 130.893 263.679C111.803 225.316 99.3396 179.516 95.783 134.617C59.3654 145.023 31.429 146.158 19.1074 137.707C17.483 136.677 16.0861 135.326 15.0023 133.737C13.9185 132.148 13.1707 130.354 12.8047 128.466V128.486Z" fill="black"/>
<path d="M44.6727 235.408C29.9294 235.408 18.4792 232.915 11.1531 227.889C5.93468 224.313 3.04681 219.53 2.50977 213.703L3.2596 213.643C3.76624 219.256 6.56292 223.857 11.5888 227.292C27.7508 238.336 66.1747 236.644 114.397 222.813L114.6 223.542C87.1701 231.426 63.297 235.408 44.6727 235.408Z" fill="black"/>
<path d="M39.302 190.398C25.9468 190.398 15.5606 188.139 8.90329 183.579C6.68912 182.179 4.82834 180.287 3.46614 178.049C2.10394 175.812 1.27715 173.29 1.05029 170.68L1.81026 170.609C2.02744 173.107 2.82131 175.522 4.12945 177.661C5.43759 179.801 7.22433 181.608 9.34913 182.941C23.9709 192.972 58.7774 191.462 102.45 178.887L102.663 179.617C77.807 186.791 56.1732 190.398 39.302 190.398Z" fill="black"/>
<path d="M32.7155 272.221C12.0951 233.716 9.04509 186.72 24.1431 139.916L24.8727 140.149C9.83546 186.76 12.8652 233.524 33.3843 271.877L32.7155 272.221Z" fill="black"/>
<path d="M72.4266 275.616C52.3432 237.161 45.4629 189.861 53.0829 142.409L53.8327 142.53C46.2837 189.79 53.1437 236.918 73.146 275.271L72.4266 275.616Z" fill="black"/>
<path d="M246.894 49.1256L246.621 48.9837C204.063 26.053 156.59 17.5717 112.867 25.2018L111.104 25.5058L112.583 24.4925C148.332 0.54847 188.488 -6.00751 225.707 6.02023C243.257 5.64532 254.494 9.58701 258.243 17.4603C261.911 25.1714 258.051 36.044 247.097 48.8722L246.894 49.1256ZM144.816 21.7667C179.085 21.7667 214.327 30.8053 246.712 48.2136C257.311 35.7096 261.06 25.2018 257.554 17.8149C253.947 10.2254 242.902 6.40528 225.656 6.8106H225.595H225.534C189.056 -4.99422 149.679 1.18684 114.498 24.2088C124.52 22.5613 134.659 21.7311 144.816 21.7262V21.7667Z" fill="black"/>
<path d="M203.151 30.8152L202.574 30.3288C210.194 21.3916 212.899 13.9034 210.417 8.67481C207.934 3.44623 200.061 0.629288 187.851 0.902876V0.142909C200.405 -0.140812 208.451 2.6964 211.156 8.34042C213.862 13.9844 210.984 21.6449 203.151 30.8152Z" fill="black"/>
<path d="M157.837 22.7595L157.259 22.2731C161.211 17.6424 162.619 13.7818 161.312 11.1269C160.005 8.47213 155.972 7.013 149.639 7.15486V6.39489C156.296 6.25303 160.583 7.76283 162.022 10.8027C163.46 13.8426 161.991 17.8957 157.837 22.7595Z" fill="black"/>
<path d="M258.932 26.2146C213.223 9.18116 161.373 8.81637 112.918 25.2013L112.674 24.4818C161.312 8.0564 213.324 8.42119 259.196 25.4951L258.932 26.2146Z" fill="black"/>
<path d="M112.958 25.171L112.634 24.482C158.414 2.38216 207.883 -2.4715 251.819 10.8026L251.606 11.5322C207.812 -1.69126 158.576 3.15226 112.958 25.171Z" fill="black"/>
<path d="M88.4671 52.8948V52.297C87.5349 38.5061 89.8959 29.3865 95.4892 25.1712C99.6538 22.0402 105.47 21.7869 112.786 24.4011C148.505 0.528051 188.631 -5.99754 225.808 6.04034L227.936 6.72938H225.697C190.87 7.52988 135.95 25.9819 89.0346 52.5503L88.4671 52.8948ZM103.666 23.3777C100.875 23.2928 98.1339 24.1376 95.8743 25.7792C90.5748 29.7614 88.2949 38.4656 89.1055 51.6384C135.008 25.6982 188.469 7.60081 223.366 6.09101C186.959 -4.95384 147.846 1.7744 112.918 25.1408L112.756 25.2523L112.573 25.1814C109.756 24.081 106.771 23.471 103.748 23.3777H103.666Z" fill="black"/>
<path d="M90.6962 33.4803L90.3213 32.8115C123.76 13.8427 162.944 0.720641 187.81 0.143066V0.903033C163.075 1.47048 124.013 14.5622 90.6962 33.4803Z" fill="black"/>
<path d="M98.8027 24.1983L98.4277 23.5295C115.998 13.5689 136.578 6.6785 149.65 6.37451V7.13448C136.71 7.42833 116.272 14.2883 98.8027 24.1983Z" fill="black"/>
<path d="M113.08 25.09L112.522 24.5733C132.657 2.95979 158.465 -1.37708 185.246 12.353L184.902 13.0319C158.465 -0.52592 132.961 3.75016 113.08 25.09Z" fill="black"/>
<path d="M137.186 28.9205C128.856 18.514 122.28 13.6502 118.187 14.8358C115.501 15.6261 113.819 19.0105 113.171 24.9079L112.421 24.8268C113.1 18.5951 114.964 14.9878 117.974 14.1062C122.452 12.8092 129.12 17.6325 137.784 28.4443L137.186 28.9205Z" fill="black"/>
<path d="M12.7537 128.587L12.6119 127.057C11.8316 118.292 18.1039 107.065 30.01 94.8043C45.6151 72.0515 65.6487 52.6797 88.9125 37.8473C89.9258 31.9196 92.1247 27.7144 95.4483 25.1711C99.6534 22.0197 105.53 21.7766 112.927 24.4719L113.769 24.7759L112.968 25.1711C104.927 29.0985 97.1245 33.497 89.6016 38.3438C88.941 42.9408 88.8016 47.5977 89.1861 52.2259V52.459L88.9733 52.5805C63.8336 66.8375 43.426 82.0571 30.2026 95.8784C23.5675 105.743 17.9199 116.238 13.3414 127.209L12.7537 128.587ZM27.0918 99.202C18.3471 109.021 13.4529 117.998 13.311 125.244C17.1928 116.218 21.8015 107.522 27.0918 99.2425V99.202ZM88.7504 38.8606C67.0071 52.8359 48.0988 70.7919 33.0195 91.7847C46.1923 79.0071 65.161 65.2568 88.4059 52.0536C88.0565 47.6561 88.1719 43.2339 88.7504 38.8606ZM103.747 23.3775C100.955 23.2927 98.2145 24.1374 95.9549 25.779C92.915 28.0691 90.8885 31.9196 89.8752 37.29C96.9662 32.7463 104.304 28.5989 111.853 24.8671C109.249 23.9375 106.512 23.4345 103.747 23.3775Z" fill="black"/>
<path d="M36.2114 86.3335C35.036 73.1607 56.2746 52.1248 90.3211 32.8115L90.696 33.4803C57.4196 52.3477 35.8568 73.566 36.9714 86.2727L36.2114 86.3335Z" fill="black"/>
<path d="M69.9541 51.7798C69.336 44.7881 80.5125 33.6926 98.4275 23.5293L98.8024 24.1981C81.4549 34.0574 70.1263 45.1326 70.714 51.7089L69.9541 51.7798Z" fill="black"/>
<path d="M48.148 79.5852L47.4185 79.3724C56.5381 48.2341 79.6816 28.708 112.745 24.4116L112.847 25.1615C80.097 29.4679 57.1359 48.8015 48.148 79.5852Z" fill="black"/>
<path d="M21.7724 105.657L21.0732 105.363C36.9718 67.537 69.5085 38.8102 112.675 24.4722L112.918 25.1916C69.9543 39.4587 37.5899 68.0335 21.7724 105.657Z" fill="black"/>
<path d="M44.1155 143.321C33.1111 143.321 24.5691 141.456 19.0974 137.707C17.2688 136.552 15.7321 134.989 14.6072 133.142C13.4822 131.295 12.7995 129.212 12.6123 127.057V126.956V126.875C30.7198 83.4858 66.2558 47.1594 112.634 24.4921L113.728 23.9551L113.131 24.9684C98.9445 50.2297 92.9864 88.9677 96.4924 134.039V134.343L96.1985 134.434C75.7808 140.382 57.9975 143.321 44.1155 143.321ZM13.3824 127.108C13.5746 129.133 14.2279 131.087 15.2923 132.821C16.3567 134.555 17.8039 136.021 19.5229 137.109C31.5 145.327 59.9633 144.111 95.7122 133.867C92.2872 89.4035 98.0225 51.091 111.925 25.7385C66.2559 48.274 31.2568 84.2357 13.3824 127.078V127.108Z" fill="black"/>
<path d="M58.7272 98.0064C50.8742 98.0064 44.7742 96.6789 40.873 93.9532C39.5573 93.1231 38.4517 91.9994 37.643 90.6703C36.8343 89.3412 36.3444 87.8429 36.2119 86.2927L36.9719 86.2319C37.097 87.6679 37.5528 89.0554 38.3034 90.2859C39.054 91.5164 40.0791 92.5566 41.2986 93.325C49.8103 99.1514 70.1064 98.2597 95.6008 90.9336L95.8035 91.6632C81.2729 95.8987 68.6068 98.0064 58.7272 98.0064Z" fill="black"/>
<path d="M81.9514 58.0628C77.797 58.0628 74.5544 57.3535 72.4772 55.9349C71.7666 55.4819 71.1695 54.8717 70.732 54.1514C70.2946 53.431 70.0284 52.6199 69.9541 51.7804L70.7141 51.7095C70.7844 52.4309 71.0191 53.1267 71.4003 53.7432C71.7815 54.3598 72.2989 54.8808 72.9129 55.2661C77.3308 58.306 87.9197 57.8196 101.285 53.9894L101.498 54.7189C93.8171 56.9583 87.1597 58.0628 81.9514 58.0628Z" fill="black"/>
<path d="M24.8726 140.149L24.1431 139.916C39.2309 93.1626 70.6429 52.2257 112.583 24.5122L113.009 25.1404C71.2002 52.712 39.9099 93.5577 24.8726 140.149Z" fill="black"/>
<path d="M53.7822 142.561L53.083 142.409C60.6624 95.0069 81.7895 53.1378 112.593 24.5225L113.11 25.0798C82.3772 53.614 61.3312 95.3311 53.7822 142.561Z" fill="black"/>
<path d="M127.965 339.868C119.636 339.868 112.614 338.855 107.223 336.9L105.47 336.231C104.163 335.734 102.765 335.217 101.63 334.731C99.7551 333.971 97.3333 332.938 95.6208 332.157C90.1288 329.685 85.9743 327.466 84.6064 326.726C82.215 325.449 78.5266 323.342 74.1898 320.646C68.5356 317.059 64.4115 313.938 64.371 313.908C59.7605 310.382 58.5243 309.439 55.1906 306.562C50.1241 302.245 46.6587 298.658 46.6182 298.628L45.3819 297.341C44.4599 296.388 43.4668 295.375 42.6765 294.524C41.3288 293.075 39.8089 291.423 38.7044 290.116C36.4853 287.451 33.6379 283.894 31.6113 281.27C30.7906 280.216 29.7773 278.797 28.916 277.561L28.1459 276.467C27.3251 275.302 24.3157 270.823 21.904 266.668C19.9383 263.294 18.7628 261.257 15.7331 255.097C15.2771 254.154 13.7065 250.861 12.6223 248.216C12.369 247.578 12.0853 246.879 11.7914 246.19C11.153 244.609 10.4944 242.988 9.98775 241.62C9.62297 240.607 8.37662 237.243 7.53559 234.527C6.03592 229.683 4.49572 223.32 3.82695 220.807C3.31017 218.669 2.72247 215.74 2.36782 213.42C1.69904 209.063 0.969475 204.088 0.655356 200.298C-0.0336811 192.192 -0.0134147 186.923 0.00685113 185.504C0.0980472 179.88 0.14871 176.78 0.706019 170.548C1.02014 167.133 1.65851 162.441 2.66167 156.119C3.03659 153.768 3.67496 150.687 4.2424 148.255C4.57678 146.776 5.03276 145.003 5.46848 143.29C5.661 142.52 5.85353 141.781 6.01566 141.112C6.60336 138.751 7.57612 135.64 8.34622 133.188C10.9911 124.943 14.1972 116.889 17.9421 109.082C19.9687 104.897 22.7552 99.6378 24.8527 95.99C27.4873 91.3998 31.1351 85.8571 32.1889 84.2763C34.3067 81.0946 37.5391 76.6665 40.4168 73.0187C41.7949 71.2657 43.4567 69.1885 44.7233 67.7395C46.223 65.9662 48.3205 63.6154 49.7087 62.0549C51.6745 59.8561 54.5623 56.8466 56.9132 54.5667L57.3084 54.1918C58.4736 53.0569 59.9227 51.6484 61.0575 50.5946C63.53 48.3248 65.4045 46.6428 66.7826 45.5282C71.1094 41.86 72.8624 40.3401 79.0434 35.8107C80.31 34.8886 81.9313 33.7841 83.0966 32.9532C85.1232 31.5549 87.9097 29.7512 89.916 28.4745C91.2029 27.6537 95.9958 24.7659 99.9273 22.6379C102.41 21.3207 106.554 19.1016 112.289 16.5582C116.343 14.7546 119.686 13.4271 121.804 12.6266C126.273 10.9446 128.583 10.1948 132.413 8.95854C133.883 8.4823 137.784 7.33728 140.58 6.60771C144.198 5.66535 144.198 5.66535 150.034 4.37847C154.26 3.43611 162.001 2.1695 166.956 1.60206C169.854 1.26768 176.623 0.487442 185.743 0.264519C193.12 0.0922596 199.199 0.386115 202.168 0.57864C205.137 0.771165 209.15 1.12582 212.686 1.50073C214.713 1.72366 217.672 2.08844 219.901 2.51402L221.015 2.70655C223.65 3.16253 226.933 3.71984 229.426 4.21635C230.743 4.4798 234.087 5.16884 236.671 5.85788L238.91 6.43545C241.089 7.00289 243.561 7.64126 245.496 8.24924C249.55 9.51585 255.072 11.4006 259.632 13.0624C259.703 13.0624 266.725 15.7577 274.325 19.4968C282.867 23.712 288.612 27.3599 288.673 27.4004L289.899 28.1806C291.51 29.1939 293.334 30.3592 294.763 31.3218C296.941 32.7911 299.414 34.4934 301.197 35.8816C304.683 38.5973 309.151 42.2248 312.343 44.9202C314.116 46.43 316.346 48.5883 317.977 50.169C318.99 51.1823 321.513 53.6243 323.297 55.6205C326.043 58.6604 329.731 63.0277 332.497 66.4222C333.886 68.1245 335.537 70.4753 336.986 72.5019C337.858 73.7381 338.901 75.3189 339.824 76.7172L340.938 78.3993C340.938 78.3993 344.525 83.8508 348.437 91.4808C351.831 98.0875 354.111 103.823 354.516 104.907C355.793 108.17 357.556 112.719 358.438 115.861C359.451 119.174 360.657 123.572 361.478 126.814C361.832 128.162 362.248 130.047 362.754 132.58C363.109 134.383 363.555 136.633 363.768 138.396C364.254 141.781 364.781 146.31 365.176 149.664C365.298 150.799 365.733 156.412 365.794 161.58C365.794 165.056 365.673 169.737 365.541 173.04C365.49 174.297 365.369 175.807 365.237 177.266C365.237 177.914 365.125 178.533 365.085 179.1C365.085 179.151 364.588 184.795 363.535 190.966C363.251 192.658 362.815 195.221 362.389 197.106C361.619 200.602 360.505 205.212 359.623 208.577C359.623 208.627 358.255 213.754 355.682 220.969C353.655 226.593 349.723 232.875 343.968 239.624L342.711 241.093L343.319 239.259C352.824 210.269 351.01 178.289 338.071 146.786C321.655 106.609 289.179 71.9243 246.621 48.9835C204.063 26.0426 156.712 17.6323 113.039 25.1712C98.8532 50.4426 92.9863 89.1097 96.4923 134.09C99.9982 179.07 112.533 225.286 131.765 263.791C146.903 294.088 164.818 316.948 183.584 329.908L184.243 330.364L183.473 330.587C162.042 336.707 142.911 339.868 127.965 339.868ZM190.313 0.882626C188.864 0.882626 187.344 0.882625 185.753 0.93329C176.633 1.15621 169.925 1.94658 167.048 2.2607C162.113 2.82814 154.402 4.09475 150.197 5.02698C144.37 6.31386 144.37 6.31386 140.763 7.25622C137.986 7.97565 134.106 9.12067 132.657 9.58678C128.836 10.823 126.526 11.6134 122.088 13.2448C119.97 14.0453 116.616 15.3727 112.604 17.1561C106.899 19.7095 102.765 21.9185 100.292 23.2358C96.3301 25.3434 91.6082 28.2212 90.3416 29.0318C88.315 30.3085 85.5994 32.0717 83.5323 33.5004C82.3771 34.2806 80.7559 35.4257 79.4791 36.3478C73.3994 40.8569 71.5653 42.3667 67.2589 46.0145C65.8808 47.1798 64.0163 48.8416 61.554 51.081C60.4192 52.0943 58.9803 53.523 57.815 54.6478L57.4198 55.0328C55.1095 57.3431 52.2318 60.3323 50.2761 62.521C48.8879 64.0815 46.7904 66.4222 45.3009 68.1853C44.0748 69.6343 42.3927 71.7014 41.0147 73.4443C38.1471 77.082 34.9349 81.4898 32.8273 84.6614C31.814 86.2421 28.1358 91.7544 25.5113 96.3243C23.424 99.9621 20.6577 105.201 18.6311 109.376C14.896 117.147 11.7033 125.168 9.07579 133.38C8.29556 135.812 7.33293 138.913 6.75536 141.254C6.59323 141.922 6.40071 142.662 6.20818 143.432C5.77247 145.145 5.31649 146.908 4.99223 148.387C4.44506 150.799 3.77629 153.869 3.4115 156.2C2.39821 162.472 1.76997 167.174 1.46599 170.568C0.908677 176.78 0.858014 179.87 0.766818 185.474C0.766818 186.882 0.766817 192.111 1.40519 200.197C1.72944 203.966 2.41848 208.911 3.11765 213.258C3.4723 215.528 4.04987 218.466 4.56665 220.584C5.18476 223.087 6.76549 229.43 8.25502 234.263C9.09605 236.969 10.3323 240.343 10.6971 241.356C11.2037 242.714 11.8623 244.336 12.4906 245.906C12.7844 246.626 13.0783 247.325 13.3316 247.933C14.0308 249.706 15.1859 252.259 16.3715 254.762C19.4113 260.893 20.5564 262.929 22.512 266.293C24.9135 270.418 27.9027 274.876 28.7133 276.031L29.4936 277.126C30.3447 278.352 31.3276 279.74 32.1383 280.804C34.1648 283.418 37.0223 286.965 39.2313 289.619C40.3155 290.927 41.8253 292.568 43.1628 294.007C43.9532 294.848 44.9462 295.861 45.8683 296.804L47.1045 298.08C47.1045 298.08 50.6409 301.678 55.6162 305.964C58.9398 308.821 60.176 309.764 64.7358 313.259C64.8067 313.31 68.9004 316.411 74.5241 319.988C78.7901 322.693 82.519 324.781 84.8901 326.067C86.258 326.797 90.3923 329.016 95.8539 331.478C97.5663 332.248 99.978 333.282 101.853 334.042C102.977 334.498 104.366 335.055 105.673 335.532L107.416 336.2C122.24 341.652 149.548 339.412 182.399 330.04C163.775 316.938 146.012 294.159 130.995 264.095C111.742 225.519 99.1673 179.374 95.6411 134.161C92.1148 88.9476 98.0629 50.0576 112.37 24.6544L112.462 24.4923H112.644C156.53 16.8723 204.205 25.3434 246.885 48.3552C289.564 71.367 322.202 106.194 338.709 146.391C351.446 177.408 353.462 208.881 344.566 237.587C349.632 231.507 353.067 225.782 354.911 220.655C357.455 213.501 358.813 208.374 358.823 208.333C359.704 204.969 360.849 200.369 361.589 196.883C362.004 195.009 362.44 192.465 362.724 190.803C363.737 184.673 364.264 179.059 364.264 179.009C364.315 178.441 364.365 177.823 364.416 177.175C364.548 175.726 364.669 174.226 364.72 172.98C364.852 169.686 365.004 165.025 364.973 161.55C364.913 156.412 364.477 150.839 364.365 149.715C364.001 146.371 363.443 141.851 362.957 138.477C362.704 136.775 362.268 134.495 361.944 132.701C361.437 130.178 361.032 128.304 360.687 126.976C359.846 123.734 358.661 119.346 357.647 116.043C356.715 112.932 355.003 108.403 353.736 105.15C353.321 104.066 351.041 98.3611 347.656 91.795C343.765 84.2054 340.239 78.835 340.209 78.7843C339.854 78.2675 339.479 77.7001 339.094 77.1023C338.172 75.7141 337.128 74.1333 336.267 72.9072C334.828 70.8807 333.227 68.5704 331.798 66.8275C329.052 63.4431 325.364 59.1164 322.679 56.0562C320.905 54.0296 318.382 51.6079 317.389 50.6351C315.768 49.0747 313.549 46.9265 311.796 45.4268C308.645 42.7416 304.186 39.114 300.7 36.4085C298.937 35.0305 296.485 33.3687 294.317 31.8791C292.898 30.9267 291.084 29.7715 289.473 28.7481L288.257 27.9071C288.257 27.9071 282.492 24.2491 273.98 20.0439C266.39 16.3049 259.429 13.6703 259.358 13.6501C254.809 11.9883 249.225 10.1036 245.253 8.84708C243.338 8.23911 240.876 7.60073 238.707 7.04343L236.488 6.45572C233.935 5.77682 230.601 5.09791 229.294 4.83445C226.811 4.33794 223.538 3.82117 220.904 3.32465L219.789 3.13213C217.58 2.74708 214.642 2.38229 212.625 2.1695C209.099 1.79458 204.985 1.4298 202.138 1.24741C199.797 1.09542 195.572 0.882626 190.313 0.882626Z" fill="black"/>
</svg>
