<svg width="1119" height="483" viewBox="0 0 1119 483" fill="none" xmlns="http://www.w3.org/2000/svg">
<path d="M131.598 482.793C121.026 482.793 111.964 479.621 104.986 473.308C92.6926 462.283 86.1378 441.879 85.4582 412.639C85.3374 406.764 87.2403 395.271 89.6719 380.726C96.1209 342.002 105.878 283.478 85.4431 273.132C77.1515 268.949 59.7679 275.488 43.0639 281.832C26.36 288.175 10.6679 294.065 3.796 289.549C2.65317 288.734 1.72781 287.651 1.1011 286.395C0.474391 285.139 0.165483 283.748 0.201475 282.345C-0.463059 269.689 -0.840635 226.101 22.403 197.089C31.0268 186.365 42.7619 179.161 54.1496 172.229C63.5134 166.535 73.1945 160.645 81.1236 152.791C102.887 131.239 120.618 101.683 135.087 75.6147C137.941 70.4797 140.886 63.9853 143.998 57.1286C155.657 31.4534 170.156 -0.610392 196.239 0.00883256C223.047 0.658264 247.242 18.2835 270.652 35.3198C285.09 45.8919 300.012 56.7057 315.251 63.3057C320.728 65.5406 326.387 67.2991 332.166 68.5616C344.642 71.5822 355.41 74.2403 361.285 91.2161C366.314 105.836 367.1 120.471 367.87 134.622C368.942 154.362 369.954 173.029 381.463 192.014C388.35 203.417 400.176 213.717 412.711 224.621C432.345 241.688 452.583 259.358 453.746 282.239C454.456 296.21 463.639 306.404 472.519 316.387C482.653 327.715 493.135 339.42 490.416 356.441C486.157 383.083 445.726 409.211 418.964 426.504C412.922 430.431 407.667 433.814 403.453 436.774C399.239 439.734 394.285 443.646 389.105 447.708C367.145 464.956 339.809 486.433 316.414 481.132C302.519 477.99 291.071 467.418 280.001 457.193C266.861 445.111 254.446 433.587 238.996 434.946C223.243 436.336 207.748 446.606 191.346 457.465C173.947 468.989 155.959 480.905 136.552 482.566C134.83 482.732 133.184 482.793 131.598 482.793ZM78.7373 270.323C81.2635 270.246 83.7725 270.764 86.0623 271.833C107.494 282.677 97.6312 341.866 91.0916 381.013C88.7506 395.437 86.9081 406.87 86.9081 412.609C87.5726 441.41 93.9763 461.452 105.923 472.175C113.686 479.153 123.911 482.143 136.31 481.071C155.325 479.455 173.146 467.645 190.394 456.227C207.008 445.247 222.609 434.886 238.724 433.466C254.839 432.047 267.51 443.721 280.892 456.121C291.811 466.21 303.108 476.646 316.61 479.712C339.265 484.847 366.33 463.627 388.033 446.561C393.228 442.483 398.137 438.632 402.441 435.596C406.745 432.56 411.926 429.207 418.012 425.28C444.533 408.138 484.632 382.237 488.785 356.244C491.383 339.933 481.611 329.059 471.25 317.445C462.189 307.326 452.825 296.874 452.1 282.375C450.967 260.098 430.956 242.654 411.578 225.799C398.952 214.819 387.036 204.444 380.028 192.845C368.384 173.558 367.311 153.833 366.284 134.773C365.529 120.727 364.774 106.198 359.775 91.79C354.232 75.509 344.355 73.0925 331.819 70.0719C325.951 68.7918 320.205 67.0029 314.647 64.7254C299.272 57.9894 284.26 47.1152 269.761 36.5431C246.547 19.6428 222.533 2.10816 196.194 1.51914C171.153 0.869706 156.85 32.42 145.372 57.7478C142.246 64.6499 139.331 71.1593 136.416 76.3547C121.887 102.513 104.08 132.236 82.1959 153.864C74.1309 161.853 64.3743 167.773 55.0104 173.498C43.7285 180.354 32.0538 187.453 23.5961 198.025C0.609259 226.63 0.986832 269.734 1.65137 282.27C1.59719 283.438 1.83375 284.601 2.33984 285.656C2.84593 286.71 3.60574 287.622 4.55115 288.311C10.8491 292.419 26.949 286.332 42.5202 280.442C55.7052 275.473 69.2375 270.323 78.7977 270.323H78.7373Z" fill="#111111" fill-opacity="0.2"/>
<path d="M133.531 474.834C122.763 474.834 113.761 471.556 106.753 465.047C92.5566 451.907 89.0678 428.105 88.6298 410.464C88.4335 402.233 90.3818 389.683 92.6473 375.153C98.2052 339.405 105.832 290.471 82.785 279.868C76.5172 276.999 62.6677 281.379 49.2713 285.623C34.0474 290.576 18.1741 295.515 11.1361 290.758C9.98487 289.931 9.04356 288.846 8.3878 287.589C7.73205 286.333 7.38014 284.94 7.36035 283.523C5.6235 260.627 10.381 228.412 29.1389 206.664C37.8685 196.499 49.513 190.141 60.7647 184.009C70.7478 178.572 81.0481 172.939 89.4605 164.662C110.892 143.442 125.527 114.565 137.549 89.147C139.874 84.2234 142.351 77.865 144.979 71.129C155.551 43.9436 170.05 6.74474 196.737 8.10402C220.495 9.31226 242.802 24.2039 264.384 38.5971C276.466 46.6168 288.866 54.9235 301.341 60.6626C307.939 63.4282 314.822 65.4543 321.866 66.7038C335.912 69.7245 349.188 72.5789 354.64 89.3584C359.292 103.601 360.983 117.767 362.614 131.466C365.136 152.701 367.523 172.742 380.013 193.041C386.432 203.462 396.626 213.49 407.591 224.108C425.836 241.929 444.714 260.355 446.436 282.285C447.418 294.79 455.196 304.728 462.717 314.333C471.477 325.51 480.524 337.064 478.44 352.469C474.649 380.636 438.779 404.272 412.605 421.52C406.942 425.25 401.61 428.769 397.14 431.956C393.228 434.765 388.818 438.269 384.166 441.969C362.675 459.036 335.927 480.286 312.019 472.039C299.514 467.735 288.881 458.552 278.596 449.672C266.166 438.934 254.431 428.799 240.551 427.969C224.814 427.063 208.835 437.952 191.995 449.491C174.506 461.392 156.458 473.746 136.431 474.834C135.449 474.834 134.483 474.834 133.531 474.834ZM77.514 277.467C79.5417 277.393 81.5614 277.759 83.4344 278.539C107.509 289.595 100.048 337.184 94.1576 375.41C91.9072 389.864 89.9589 402.354 90.1553 410.449C90.5781 427.818 93.9763 451.228 107.765 463.974C115.105 470.771 124.726 473.882 136.34 473.293C155.974 472.251 173.826 460.033 191.104 448.192C208.382 436.351 224.346 425.447 240.597 426.504C254.99 427.35 266.921 437.65 279.532 448.554C289.712 457.344 300.239 466.436 312.457 470.65C335.595 478.609 361.98 457.661 383.185 440.806C387.851 437.106 392.246 433.587 396.219 430.763C400.749 427.546 406.066 424.027 411.729 420.281C437.661 403.2 473.199 379.79 476.899 352.318C478.893 337.547 470.435 326.748 461.494 315.315C453.822 305.528 445.908 295.409 444.881 282.451C443.204 261.08 424.537 242.866 406.489 225.241C395.539 214.548 385.193 204.459 378.684 193.872C366.012 173.301 363.505 152.142 361.074 131.692C359.443 118.1 357.766 103.963 353.16 89.8719C347.964 73.9835 335.701 71.3405 321.443 68.2897C314.289 67.0077 307.299 64.936 300.601 62.1125C288.035 56.3281 275.53 47.9761 263.433 39.9261C242.032 25.6387 219.89 10.883 196.556 9.72004C170.987 8.43629 156.684 45.0461 146.278 71.7936C143.65 78.5446 141.158 84.9181 138.802 89.9172C126.72 115.441 112.024 144.469 90.4724 165.855C81.9694 174.283 71.5634 179.962 61.4897 185.489C50.3587 191.531 38.8351 197.859 30.2868 207.812C11.8913 229.213 7.16401 260.974 8.87065 283.569C8.88114 284.749 9.16804 285.91 9.70835 286.959C10.2487 288.008 11.0273 288.916 11.9819 289.61C18.4158 293.959 33.8662 289.066 48.8182 284.324C59.7226 280.774 70.1588 277.467 77.514 277.467Z" fill="#111111" fill-opacity="0.2"/>
<path d="M135.963 466.753C125.391 466.753 116.676 463.733 109.804 457.782C98.9754 448.388 92.9039 431.82 91.6806 408.546C91.2879 400.602 92.8284 388.912 94.6106 375.32C99.1415 341.157 104.684 298.641 83.1323 288.084C75.8677 284.535 63.0603 288.084 50.6758 291.452C37.6721 295.032 25.3782 298.415 18.8386 294.126C17.5835 293.25 16.5365 292.108 15.7717 290.782C15.007 289.456 14.5432 287.978 14.4134 286.453C11.3928 265.49 18.3855 234.121 37.5664 214.699C46.2959 205.863 57.2003 200.562 67.7725 195.427C78.3446 190.292 88.9167 185.172 97.6463 176.579C118.534 155.963 131.341 127.328 142.049 99.4625C143.56 95.4904 145.251 90.5063 147.018 85.2354C156.322 57.4911 170.367 15.565 197.674 17.3472C219.165 18.7216 239.6 31.0456 259.355 42.8864C272.373 50.7249 285.845 58.8353 299.634 63.9099C305.933 66.0617 312.462 67.4708 319.087 68.1085C331.003 69.6188 341.319 70.9932 348.387 86.2322C352.012 94.0556 352.737 103.827 353.447 113.297C353.794 117.949 354.111 122.359 354.761 126.421C359.05 153.199 366.601 174.751 378.548 194.219C384.589 204.096 393.515 213.702 402.954 223.866C419.719 241.884 437.042 260.521 439.096 282.179C440.168 293.416 446.648 303.203 452.945 312.657C461.449 325.434 470.238 338.665 465.028 355.248C456.751 381.618 427.134 401.931 403.347 418.258C398.59 421.52 394.089 424.601 389.951 427.591C386.537 430.053 382.701 433.089 378.654 436.306C360.53 450.669 335.685 470.348 314.496 464.684C306.521 462.54 299.634 455.623 292.974 448.917C290.165 445.966 287.19 443.177 284.063 440.565C270.773 430.129 259.445 422.064 244.69 421.233C228.952 420.342 212.747 430.869 195.59 442.03C178.433 453.191 160.747 464.684 141.415 466.451C139.542 466.663 137.73 466.753 135.963 466.753ZM75.4448 285.079C78.3315 284.977 81.2034 285.535 83.8421 286.71C106.376 297.735 100.712 340.839 96.1511 375.486C94.384 388.988 92.8435 400.663 93.2362 408.471C94.384 431.322 100.289 447.527 110.801 456.65C118.489 463.325 128.743 466.119 141.279 464.986C160.233 463.265 177.783 451.847 194.759 440.822C212.127 429.525 228.56 418.832 244.78 419.783C259.974 420.644 271.497 428.845 284.984 439.417C288.172 442.058 291.198 444.887 294.046 447.89C300.571 454.445 307.307 461.226 314.889 463.25C335.338 468.732 359.835 449.325 377.717 435.158C381.78 431.926 385.616 428.89 389.06 426.398C393.228 423.378 397.729 420.357 402.486 417.034C426.092 400.829 455.422 380.711 463.593 354.84C468.577 338.936 460.376 326.597 451.692 313.533C445.303 303.928 438.703 293.99 437.601 282.376C435.592 261.231 418.435 242.775 401.852 224.984C392.352 214.759 383.381 205.108 377.249 195.095C365.167 175.461 357.615 153.728 353.28 126.754C352.616 122.6 352.284 118.175 351.936 113.493C351.242 104.175 350.532 94.5238 347.013 86.9571C340.292 72.4582 330.852 71.2349 318.891 69.6792C312.157 69.0303 305.522 67.5958 299.121 65.4051C285.196 60.2701 271.664 52.1295 258.569 44.2608C238.059 31.9367 218.697 20.2772 197.689 18.9028C171.546 17.1659 157.726 58.4577 148.574 85.764C146.792 91.0501 145.13 96.0492 143.59 100.051C132.806 128.068 119.923 156.884 98.8243 177.696C89.9437 186.471 79.0695 191.742 68.6182 196.832C58.1669 201.922 47.3229 207.147 38.7746 215.816C19.9411 234.876 13.0994 265.656 16.12 286.287C16.2163 287.592 16.6008 288.86 17.2459 289.999C17.891 291.137 18.7805 292.119 19.8505 292.872C25.8917 296.784 38.3668 293.355 50.4795 290.018C59.1335 287.556 68.1501 285.079 75.4448 285.079Z" fill="#111111" fill-opacity="0.2"/>
<path d="M324.615 456.71C320.335 456.715 316.105 455.793 312.215 454.006C302.217 449.476 293.91 442.045 285.876 434.856C274.85 425.009 264.444 415.705 251.003 414.965C237.304 414.225 217.897 423.498 197.342 433.33C167.543 447.648 136.748 462.313 116.148 450.865C104.322 444.28 97.3443 429.842 94.807 406.704C94.0216 399.515 95.0335 388.58 96.1814 376.014C99.0963 344.222 102.721 304.637 80.9273 295.545C74.433 292.842 64.1025 295.47 54.1043 298.037C42.9129 300.907 32.3408 303.61 26.224 299.472C24.8509 298.456 23.7164 297.153 22.8998 295.653C22.0832 294.153 21.6044 292.492 21.4968 290.788C18.4762 268.133 27.7041 241.144 44.0003 225.21C53.0622 216.36 64.2686 211.452 75.1126 206.709C85.9566 201.967 97.0875 197.089 106.059 188.299C128.457 166.339 138.998 134.335 148.347 106.108C149.344 103.087 150.462 99.3718 151.625 95.445C159.403 69.4074 172.422 25.8351 199.501 27.6172C218.048 28.8557 235.371 38.0081 253.706 47.7194C267.888 55.2709 282.568 62.9886 297.822 66.6888C303.158 67.8429 308.598 68.4501 314.058 68.5012C325.657 68.9694 335.701 69.3772 342.361 83.9063C349.399 99.2963 352.676 115.879 355.848 131.919C359.503 150.45 363.279 169.676 372.884 187.362C378.639 197.934 387.504 208.778 396.898 220.181C413.209 239.996 430.125 260.491 431.862 282.24C432.768 293.144 438.175 302.704 443.4 311.947C450.091 323.758 456.993 335.961 454.365 350.928C449.97 375.999 418.254 398.171 395.086 414.361C390.676 417.457 386.507 420.402 382.928 423.03C379.348 425.658 375.89 428.528 372.069 431.654C358.098 443.117 341.47 456.71 324.615 456.71ZM249.417 413.394C249.991 413.394 250.535 413.394 251.093 413.394C265.049 414.15 275.651 423.634 286.872 433.663C294.832 440.761 303.048 448.116 312.835 452.557C332.907 461.618 353.175 445.081 371.042 430.446C374.878 427.304 378.503 424.404 381.961 421.761C385.42 419.118 389.739 416.173 394.165 413.077C417.106 397.038 448.535 375.078 452.825 350.611C455.362 336.188 448.883 324.755 442.026 312.642C436.725 303.263 431.227 293.552 430.306 282.315C428.554 261.08 411.835 240.736 395.675 221.102C386.235 209.654 377.325 198.825 371.51 188.057C361.799 170.099 357.993 150.828 354.308 132.176C351.166 116.227 347.919 99.7343 340.941 84.5104C334.598 70.8421 325.536 70.4797 313.922 70.0719C308.371 70.0032 302.841 69.3809 297.414 68.2142C281.964 64.4687 267.208 56.6604 252.936 49.1089C234.812 39.4882 217.565 30.3962 199.335 29.1879C173.449 27.5115 160.656 70.3438 153.014 95.9434C151.836 99.8702 150.734 103.586 149.722 106.651C140.373 135.045 129.771 167.215 107.116 189.446C97.9484 198.418 86.6513 203.371 75.7167 208.144C64.7821 212.917 53.9079 217.704 45.0575 226.358C29.0785 241.914 20.0016 268.36 22.992 290.576C23.4753 294.186 24.8044 296.693 27.0698 298.203C32.6277 301.964 43.3509 299.215 53.7418 296.557C64.1327 293.899 74.5387 291.226 81.5163 294.141C104.322 303.671 100.652 343.845 97.6917 376.135C96.5438 388.671 95.547 399.484 96.3173 406.522C98.7791 429.177 105.515 443.208 116.888 449.536C136.763 460.607 167.241 446.032 196.692 431.926C216.613 422.411 235.477 413.394 249.417 413.394Z" fill="#111111" fill-opacity="0.2"/>
<path d="M325.204 448.887C322.018 448.897 318.865 448.244 315.946 446.968C310.01 444.371 304.588 438.058 299.332 431.956C296.625 428.595 293.65 425.458 290.437 422.577C280.136 414.225 269.292 409.498 259.053 408.878C246.049 408.093 226.551 416.974 205.92 426.368C175.533 440.217 141.083 455.909 118.926 444.069C107.524 438.027 100.41 425.462 97.2083 405.828C96.0605 398.759 96.5891 388.384 97.2083 376.377C98.7186 348.708 100.425 314.288 81.0178 305.543C75.3844 303.006 66.5793 304.637 58.0612 306.223C48.0177 308.096 38.533 309.848 32.9297 305.634C30.3018 303.671 28.8217 300.62 28.3988 296.315C26.1485 273.661 35.5577 249.36 52.3674 234.393C61.4292 226.373 72.2581 222.054 82.7396 217.87C93.795 213.46 105.198 208.914 114.29 200.034C135.026 179.765 143.273 151.069 151.232 123.325C151.851 121.15 152.485 118.991 153.105 116.846C153.89 114.127 154.766 110.805 155.687 107.361C162.665 81.0669 174.294 37.0566 201.51 38.6877C217.534 39.6392 232.97 46.3903 249.311 53.534C262.556 59.3185 276.255 65.3144 290.225 67.8819C296.076 68.7798 302.014 68.9725 307.911 68.4558C319.087 67.8668 328.753 67.3533 336.607 80.8554C345.427 96.0944 349.429 114.762 353.311 132.795C356.754 148.864 360.303 165.478 367.251 179.811C372.899 191.5 381.599 203.386 390.796 215.982C406.443 237.383 422.634 259.509 424.522 282.209C425.352 292.162 429.521 301.39 433.583 310.316C439.7 323.909 446.028 337.834 440.289 354.115C432.149 377.253 406.066 396.298 385.103 411.612C381.584 414.18 378.276 416.596 375.195 418.922C372.371 421.067 369.275 423.664 365.997 426.474C353.87 436.668 339.355 448.887 325.204 448.887ZM257.437 407.323C258.031 407.323 258.605 407.323 259.158 407.323C269.73 407.957 280.846 412.805 291.403 421.354C294.68 424.293 297.71 427.496 300.465 430.929C305.6 436.97 310.901 443.011 316.535 445.534C332.574 452.557 350.532 437.438 364.955 425.28C368.248 422.501 371.359 419.874 374.228 417.729C377.098 415.584 380.632 412.971 384.151 410.404C404.948 395.225 430.82 376.331 438.809 353.632C444.337 337.909 438.416 324.815 432.149 310.95C428.056 301.888 423.827 292.555 422.981 282.33C421.123 260.068 405.069 238.108 389.558 216.873C380.315 204.217 371.57 192.271 365.861 180.475C358.838 165.961 355.289 149.272 351.8 133.112C347.949 115.185 343.977 96.6532 335.187 81.6257C327.832 68.9089 319.042 69.3771 307.911 69.9661C301.898 70.4938 295.842 70.291 289.878 69.362C275.726 66.7643 261.952 60.7382 248.631 54.9235C232.411 47.825 217.096 41.1344 201.344 40.198C175.397 38.6877 163.918 81.9126 157.077 107.754C156.14 111.243 155.28 114.535 154.479 117.269C153.86 119.413 153.241 121.573 152.606 123.748C144.587 151.674 136.295 180.566 115.272 201.106C105.968 210.168 94.4142 214.819 83.2229 219.23C72.8622 223.353 62.0786 227.627 53.3037 235.48C36.8414 250.1 27.6286 273.903 29.8185 296.089C30.2112 299.955 31.4949 302.659 33.7604 304.35C38.835 308.171 48.4406 306.389 57.7138 304.667C66.4585 303.036 75.5052 301.36 81.5616 304.094C101.92 313.261 100.093 348.255 98.6431 376.377C98.0239 388.293 97.4802 398.593 98.6431 405.511C101.769 424.646 108.611 436.804 119.576 442.664C141.083 454.158 175.17 438.616 205.24 424.918C225.237 415.932 244.116 407.323 257.437 407.323Z" fill="#111111" fill-opacity="0.2"/>
<path d="M141.279 442.392C134.068 442.583 126.918 441.029 120.437 437.861C109.865 432.334 102.676 421.459 99.2925 405.541C97.7822 398.759 97.888 388.55 97.9333 377.736C98.039 354.659 98.1598 325.933 83.4797 316.931C78.4353 313.835 70.2796 314.56 62.3354 315.24C53.636 316.01 44.6346 316.75 39.5147 312.43C36.9774 310.21 35.5577 307.19 35.3009 302.81C34.6029 291.261 36.7431 279.717 41.5347 269.187C46.3262 258.656 53.6232 249.458 62.7885 242.398C71.3972 235.767 81.3954 232.052 91.0614 228.458C102.072 224.365 113.444 220.136 122.476 211.618C135.706 199.127 143.62 169.495 152.063 138.126C163.767 94.418 175.91 49.275 203.987 50.5285C217.58 51.1175 231.006 55.7391 245.279 60.6325C258.615 65.1634 272.464 69.9359 286.193 71.0233C291.855 71.3614 297.537 71.037 303.123 70.0568C313.333 68.5464 321.398 67.4288 331.019 78.7561C337.317 86.1566 340.08 100.55 342.27 112.104C343.161 116.801 344.007 121.241 344.974 124.624C350.905 145.95 358.803 166.68 368.565 186.547C373.488 196.469 379.968 206.709 386.824 217.568C400.266 238.864 414.176 260.884 417.227 282.224C418.193 289.066 420.761 296.497 423.464 304.365C428.267 318.29 433.236 332.714 430.14 346.05C424.204 371.725 397.653 391.842 376.328 408.048C373.307 410.359 370.287 412.579 367.613 414.723C364.94 416.868 361.919 419.466 358.884 422.169C346.801 432.892 333.058 445.05 318.106 439.115L317.924 439.039L317.803 438.903C311.762 431.926 305.721 424.968 299.68 418.031C290.98 408.365 279.306 402.747 268.522 403.049C256.183 403.366 237.38 411.325 217.459 419.753C192.01 430.521 163.934 442.392 141.279 442.392ZM72.4091 313.125C76.94 313.125 81.0481 313.699 84.2046 315.632C99.6248 325.072 99.4889 354.266 99.3832 377.721C99.3832 388.459 99.2926 398.593 100.712 405.208C104.08 420.885 110.741 431.125 121.101 436.502C144.828 448.841 183.13 432.636 216.93 418.378C236.987 409.89 255.926 401.886 268.537 401.554V402.309V401.554C279.804 401.267 291.872 407.051 300.873 417.034C306.914 423.951 312.91 430.869 318.861 437.786C332.861 443.223 346.152 431.443 357.887 421.052C360.908 418.333 363.838 415.766 366.677 413.5C369.516 411.235 372.356 409.12 375.376 406.87C396.521 390.83 422.83 370.849 428.645 345.748C431.665 332.82 426.742 318.562 422.015 304.879C419.281 296.95 416.698 289.459 415.701 282.466C412.681 261.458 398.877 239.573 385.495 218.399C378.623 207.525 372.129 197.255 367.16 187.241C357.352 167.283 349.419 146.457 343.464 125.032C342.482 121.588 341.636 117.118 340.73 112.391C338.57 101.003 335.867 86.8362 329.825 79.7378C320.764 69.0449 313.424 70.1021 303.289 71.552C297.593 72.5475 291.799 72.877 286.027 72.5337C272.041 71.4311 258.162 66.6737 244.735 62.0672C230.583 57.2041 217.202 52.6127 203.881 52.0388H202.854C176.665 52.0388 164.885 96.0491 153.467 138.625C145.009 170.205 137.005 200.049 123.473 212.811C114.214 221.555 102.691 225.83 91.5447 229.968C81.9845 233.532 72.092 237.202 63.6645 243.697C54.724 250.594 47.6041 259.571 42.924 269.847C38.244 280.123 36.1456 291.387 36.8113 302.659C37.0831 306.57 38.3216 309.365 40.4813 311.237C45.1179 315.194 53.8022 314.439 62.1995 313.699C65.6279 313.427 69.1167 313.125 72.4091 313.125Z" fill="#111111" fill-opacity="0.2"/>
<path d="M146.49 435.354C138.973 435.523 131.507 434.086 124.59 431.14C114.109 426.413 106.467 417.472 101.769 404.559C99.1113 397.204 98.7488 386.798 98.2202 375.773C97.4349 356.984 96.5589 335.674 83.6307 327.443C79.2206 324.619 72.4695 324.664 65.9601 324.694C54.5573 324.77 42.777 324.83 42.1275 310.029C40.3605 269.1 65.6128 257.35 92.3452 244.814C105.621 238.607 119.365 232.188 130.103 221.873C143.333 209.11 150.22 179.901 157.515 148.97C167.558 106.349 177.995 62.2484 206.736 62.6864C218.123 62.8525 229.602 65.6164 241.775 68.5313C255.911 71.9295 270.471 75.4485 284.834 74.4366C289.679 73.9956 294.464 73.0387 299.106 71.5821C308.575 68.924 316.067 66.8246 325.642 78.0009C331.683 85.0389 334.402 95.9886 336.803 105.655C337.619 108.962 338.404 112.088 339.265 114.958C347.285 141.298 354.534 161.143 362.75 179.312C367.583 189.99 373.836 200.864 380.451 212.373C393.575 235.224 407.138 258.83 409.932 282.209C410.911 289.046 412.313 295.815 414.131 302.477C417.997 318.064 422.014 334.194 416.577 349.418C408.83 371.136 388.259 387.628 370.105 402.188C366.707 404.906 363.49 407.474 360.409 410.056C358.295 411.808 355.878 414.134 353.401 416.596C344.234 425.552 332.831 436.713 322.304 432.213H322.108L321.972 432.016C317.441 425.401 312.819 418.786 308.077 412.382C300.435 402.626 289.848 397.174 279.034 397.445C266.091 397.793 246.683 405.45 226.173 413.56C199.667 423.861 170.534 435.354 146.49 435.354ZM68.2105 323.138C74.2517 323.138 80.1872 323.41 84.4312 326.159C98.0239 334.858 98.9301 356.577 99.7305 375.742C100.184 386.647 100.607 396.887 103.189 404.076C107.72 416.762 114.97 425.22 125.209 429.751C151.036 441.41 190.636 425.794 225.584 412.005C246.245 403.834 265.773 396.132 278.989 395.784C290.301 395.482 301.341 401.161 309.195 411.325C313.922 417.744 318.574 424.329 323.029 430.959C332.589 434.81 343.494 424.148 352.269 415.554C354.806 413.077 357.207 410.736 359.367 408.939C362.463 406.356 365.68 403.774 369.078 401.055C387.081 386.617 407.47 370.275 415.082 348.95C420.353 334.149 416.411 318.26 412.59 302.885C410.765 296.161 409.353 289.332 408.361 282.436C405.597 259.373 392.11 235.888 379.061 213.173C372.431 201.634 366.163 190.73 361.3 179.946C353.054 161.717 345.789 141.811 337.755 115.411C336.864 112.496 336.078 109.37 335.263 106.032C332.891 96.5323 330.218 85.7639 324.419 78.9977C315.478 68.5464 308.742 70.4494 299.438 73.0622C294.687 74.5445 289.791 75.5166 284.834 75.962C270.289 76.9739 255.564 73.4398 241.307 70.0114C229.224 67.1116 217.821 64.3779 206.57 64.2118H206.192C178.901 64.2118 168.706 107.482 158.844 149.333C151.504 180.49 144.571 209.911 131.009 222.975C120.135 233.457 106.27 239.936 92.8738 246.204C66.6096 258.467 41.8104 270.066 43.5321 309.923C44.106 323.289 54.6782 323.229 65.8544 323.154L68.2105 323.138Z" fill="#111111" fill-opacity="0.2"/>
<path d="M150.945 428.346C131.16 428.346 114.411 421.776 104.699 402.988C100.939 395.709 99.8966 386.088 98.8092 375.893C97.1781 360.79 95.5017 345.113 84.2499 337.668C80.2929 335.04 74.7199 334.42 69.3432 333.831C59.345 332.729 49.0296 331.596 48.939 317.581C48.6973 279.687 73.7231 267.438 100.289 254.48C113.414 248.061 126.992 241.416 137.337 231.357C150.084 218.943 156.095 190.579 162.469 160.524C171.334 118.673 180.592 75.3881 209.651 75.2068C218.753 75.3784 227.835 76.1504 236.836 77.5176C250.685 79.2846 265.003 81.1121 278.566 78.8013C283.408 77.885 288.155 76.525 292.747 74.7386C302.051 71.4008 309.361 68.6974 320.492 77.3514C327.847 83.0604 331.064 96.1547 333.798 106.666C334.749 110.472 335.655 114.082 336.652 116.921L338.933 123.521C344.49 139.591 350.245 156.22 356.951 172.183C361.617 183.299 367.523 194.581 373.851 206.528C386.885 231.282 400.357 256.881 402.728 282.224C403.272 288.024 404.238 293.974 405.19 299.729C408.059 317.384 411.035 335.629 402.607 353.073C393.923 371.015 376.086 386.299 360.318 399.741C357.857 401.856 355.44 403.91 353.145 405.918C353.009 406.039 352.601 406.477 351.967 407.127C338.374 421.55 330.082 427.259 326.08 425.144L325.853 425.009L325.748 424.767C323.085 418.511 320.033 412.427 316.61 406.553C310.418 396.826 300.752 391.45 290.165 391.706C276.799 392.084 256.712 399.379 235.447 407.096C208.034 417.034 176.877 428.346 150.945 428.346ZM210.179 76.7171H209.575C181.665 76.8833 172.618 119.564 163.873 160.841C157.454 191.047 151.398 219.743 138.304 232.43C127.732 242.669 114.139 249.36 100.878 255.839C74.8256 268.586 50.2076 280.623 50.4493 317.565C50.4493 330.252 59.3148 331.158 69.4942 332.336C75.0672 332.94 80.8215 333.575 85.0806 336.399C96.9213 344.237 98.6733 360.247 100.304 375.667C101.392 385.725 102.404 395.21 106.044 402.233C115.423 420.357 131.719 426.745 151.036 426.745C176.711 426.745 207.672 415.494 234.873 405.601C256.243 397.838 276.451 390.498 290.074 390.12C301.205 389.833 311.339 395.482 317.849 405.692C321.237 411.542 324.263 417.595 326.911 423.815C329.282 424.737 335.383 422.305 350.773 405.994C351.453 405.284 351.891 404.816 352.042 404.695C354.353 402.671 356.754 400.617 359.231 398.503C374.863 385.136 392.564 369.988 401.112 352.333C409.343 335.312 406.398 317.294 403.559 299.88C402.622 294.095 401.64 288.114 401.097 282.285C398.756 257.229 385.344 231.765 372.401 207.147C366.088 195.17 360.137 183.858 355.44 172.682C348.704 156.673 342.95 140.029 337.392 123.929L335.096 117.314C334.1 114.414 333.178 110.79 332.212 106.953C329.614 96.6531 326.382 83.8307 319.45 78.454C309.013 70.3738 302.353 72.7601 293.14 76.0677C288.465 77.884 283.631 79.2642 278.702 80.1908C264.897 82.5469 250.474 80.7043 236.534 78.9222C227.804 77.6344 219.002 76.8979 210.179 76.7171Z" fill="#111111" fill-opacity="0.2"/>
<path d="M156.382 421.399C137.05 421.399 120.135 415.841 108.369 400.406C103.114 393.534 101.256 384.683 99.4436 376.135C97.0724 364.808 94.8069 354.115 85.4582 347.439C81.8183 344.826 77.2119 343.784 72.7414 342.757C64.2535 340.779 55.4182 338.785 55.7203 325.313C56.5358 290.199 82.7396 276.349 108.083 262.953C120.814 256.232 133.969 249.285 143.907 239.709C156.337 227.733 161.593 200.441 167.166 171.398C174.974 130.756 183.054 88.7392 212.475 87.8028C218.38 87.6064 224.361 87.8028 230.704 87.9236C244.886 88.271 259.566 88.6335 272.993 84.903C277.601 83.5126 282.066 81.687 286.329 79.4508C295.828 74.8293 304.045 70.827 315.206 79.6471C330.112 91.4275 339.204 123.114 346.529 148.577C349.656 159.467 352.571 169.722 355.591 176.865C359.367 186.003 363.913 195.367 368.746 205.289C380.964 230.466 393.621 256.504 395.342 282.179C395.509 284.731 395.69 287.223 395.871 289.655C397.97 319.046 399.511 340.296 380.768 366.197C370.876 379.79 357.751 391.872 345.08 403.502C340.035 408.108 334.84 412.881 329.977 417.593L328.798 418.741L328.693 417.095C327.726 401.523 319.178 386.043 302.293 386.043H301.402C286.434 386.511 265.351 393.594 243.028 401.146C214.121 410.917 182.918 421.399 156.382 421.399ZM218.456 89.2678C216.477 89.2678 214.529 89.2678 212.581 89.3584C184.338 90.2495 176.333 131.647 168.676 171.715C163.058 200.94 157.756 228.533 144.979 240.842C134.89 250.553 121.645 257.561 108.823 264.342C82.7094 278.131 58.0461 291.165 57.2608 325.389C56.9889 337.577 64.4498 339.284 73.0737 341.247C77.6952 342.289 82.4527 343.377 86.3341 346.171C96.1662 353.239 98.5827 364.717 100.924 375.818C102.691 384.215 104.518 392.884 109.563 399.484C136.899 435.279 193.067 416.4 242.62 399.756C265.064 392.205 286.253 385.106 301.432 384.653C314.451 384.2 328.179 393.715 330.128 415.494C334.658 411.129 339.416 406.749 344.053 402.49C356.679 390.906 369.728 378.944 379.545 365.412C397.986 339.948 396.475 318.955 394.391 289.897C394.21 287.45 394.029 284.958 393.862 282.345C392.156 256.972 379.575 230.995 367.417 206.029C362.584 196.077 358.023 186.698 354.217 177.515C351.196 170.326 348.281 159.995 345.155 149.061C337.89 123.824 328.859 92.3941 314.345 80.9158C303.924 72.6695 296.493 76.2943 287.069 80.9158C282.721 83.1889 278.171 85.0497 273.476 86.4737C259.883 90.2344 245.037 89.8568 230.734 89.4943C226.475 89.3735 222.413 89.2678 218.425 89.2678H218.456Z" fill="#111111" fill-opacity="0.2"/>
<path d="M162.756 413.757C143.665 413.757 126.403 409.09 112.916 396.298C107.237 390.891 104.141 383.868 101.15 377.072C97.6463 369.127 94.3388 361.621 87.2554 356.35C84.0056 354.142 80.4415 352.436 76.6833 351.291C69.1318 348.602 61.9276 346.05 62.5166 333.046C64.0269 300.65 89.4605 285.668 114.139 271.124C126.856 263.663 139.995 255.93 149.54 245.947C160.475 234.484 165.429 209.247 170.685 182.514C178.478 142.854 186.543 101.849 215.405 100.354H215.677C234.117 99.3869 255.035 98.2995 272.555 90.5366C276.135 88.8779 279.593 86.965 282.9 84.8125C291.554 79.466 298.396 75.2523 310.086 82.8189C326.035 93.1343 334.749 123.34 341.802 147.611C344.385 156.552 346.832 164.995 349.278 171.142C352.873 180.203 357.102 189.462 361.587 199.294C374.062 226.615 386.96 254.888 388.078 282.209L388.229 285.562C389.377 312.914 390.374 336.535 373.609 360.866C368.338 368.538 361.527 375.214 354.987 381.678C346.424 390.136 337.558 398.865 332.333 409.634L330.958 408.984C332.513 405.811 333.221 402.289 333.012 398.761C332.803 395.233 331.684 391.82 329.765 388.852C327.898 386.075 325.332 383.838 322.325 382.369C319.318 380.9 315.977 380.25 312.638 380.485C295.632 381.104 273.521 387.931 250.112 395.165C221.325 404.136 190.152 413.757 162.756 413.757ZM298.26 80.2967C293.216 80.2967 288.896 82.9548 283.716 86.1567C280.33 88.3361 276.798 90.279 273.144 91.9713C255.383 99.8551 234.314 100.958 215.752 101.924H215.48C187.796 103.435 179.852 143.775 172.165 182.861C166.864 209.805 161.864 235.254 150.628 247.034C140.962 257.199 127.686 264.901 114.909 272.453C90.5932 286.74 65.4466 301.511 64.042 333.092C63.4983 344.963 69.5546 347.122 77.1968 349.841C81.1091 351.027 84.8169 352.805 88.1918 355.112C95.5923 360.624 99.1264 368.704 102.555 376.422C105.575 383.083 108.596 390.015 113.988 395.165C146.112 425.749 201.132 408.758 249.689 393.76C273.189 386.496 295.391 379.639 312.608 379.005C316.205 378.775 319.8 379.491 323.035 381.081C326.27 382.67 329.033 385.079 331.049 388.067C333.959 392.483 335.127 397.821 334.326 403.049C339.642 394.712 346.877 387.583 353.96 380.651C360.424 374.247 367.16 367.602 372.356 360.05C388.833 336.112 387.836 312.733 386.704 285.653L386.553 282.3C385.45 255.296 372.612 227.144 360.273 199.958C355.742 190.111 351.544 180.823 347.934 171.746C345.457 165.523 343.01 157.05 340.383 148.064C333.45 124.05 324.811 94.1462 309.346 84.1329C306.107 81.795 302.252 80.461 298.26 80.2967Z" fill="#111111" fill-opacity="0.2"/>
<path d="M170.473 404.453C152.486 404.453 135.193 400.98 119.123 391.631C112.538 387.78 107.765 382.343 103.144 377.072C99.2664 372.268 94.8012 367.97 89.8532 364.279C87.3932 362.656 84.8189 361.212 82.1506 359.96C74.7652 356.29 68.3917 353.118 69.2677 340.401C71.3217 311.101 95.6376 294.654 119.108 278.766C131.794 270.187 144.919 261.322 153.845 250.659C162.771 239.996 167.996 217.296 173.343 193.403C181.952 154.876 190.862 115.049 218.033 112.768C237.138 111.167 253.827 106.531 267.631 98.9943C271.136 97.0138 274.506 94.8039 277.72 92.3791C286.555 85.9905 292.929 81.3841 305.389 89.9777C322.833 102.06 332.438 132.659 340.126 157.292C342.588 165.176 344.913 172.607 347.209 178.436C350.23 185.988 353.477 193.539 356.981 201.559C368.52 228.02 380.466 255.386 380.587 282.315C380.693 308.942 379.65 331.219 365.484 355.036C363.007 359.205 358.008 364.34 352.707 369.777C348.215 374.231 343.951 378.909 339.929 383.792L340.02 384.049C342.074 390.725 339.265 397.642 332.846 401.674L331.94 402.233L331.698 401.221C330.414 395.86 333.48 389.743 338.238 383.536C336.426 379.005 331.623 374.564 323.135 374.897C301.87 375.697 278.536 382.116 253.842 388.912C226.068 396.6 197.493 404.453 170.473 404.453ZM293.201 86.8061C288.156 86.8061 284.003 89.8267 278.762 93.6025C275.489 96.0572 272.064 98.302 268.507 100.323C254.507 107.965 237.621 112.663 218.32 114.279C192.252 116.453 183.462 155.736 174.974 193.736C169.582 217.81 164.492 240.555 155.159 251.641C146.097 262.455 132.836 271.38 120.059 280.019C96.8459 295.711 72.8471 311.947 70.8535 340.507C70.038 352.212 75.3844 354.9 82.936 358.631C85.6688 359.911 88.3039 361.39 90.8198 363.056C95.8856 366.812 100.453 371.197 104.412 376.105C108.943 381.27 113.625 386.677 120.014 390.347C159.463 413.379 207.37 400.209 253.706 387.447C278.49 380.636 301.915 374.187 323.361 373.386C332.136 373.054 337.317 377.434 339.552 382.192C343.207 377.661 347.662 373.13 351.891 368.72C357.117 363.358 362.055 358.283 364.442 354.266C378.427 330.72 379.424 309.591 379.318 282.315C379.197 255.703 367.326 228.488 355.833 202.163C352.329 194.128 349.006 186.532 346.046 178.995C343.735 173.12 341.394 165.659 338.918 157.76C331.275 133.354 321.745 102.966 304.724 91.2313C300.118 88.0748 296.478 86.8061 293.201 86.8061ZM339.008 385.273C335.187 390.423 332.695 395.407 333.193 399.756C335.517 398.217 337.318 396.007 338.356 393.42C339.395 390.833 339.622 387.992 339.008 385.273Z" fill="#111111" fill-opacity="0.2"/>
<path d="M171.923 393.398C156.752 393.496 141.642 391.463 127.037 387.357C115.77 384.096 104.968 379.401 94.8976 373.386C81.4559 364.989 75.173 356.154 76.2151 347.092C79.4623 318.804 101.785 302.055 123.367 285.834C135.842 276.47 148.755 266.774 157.772 254.979C165.489 244.905 170.624 224.667 176.061 203.235C185.123 167.592 195.333 127.192 220.736 124.7C236.277 123.189 251.652 116.982 267.767 105.866C270.652 103.873 273.114 101.849 275.319 100.067C283.399 93.4061 288.745 88.996 301.492 98.0729C317.924 109.763 327.349 137.054 334.93 158.984C336.879 164.632 338.721 169.963 340.503 174.494C343.116 181.14 345.986 187.906 349.021 195.08C360.711 222.703 373.957 253.982 373.519 282.315C373.186 303.112 371.827 327.111 359.85 348.768C356.972 353.37 353.729 357.734 350.154 361.818C347.904 364.566 345.623 367.406 343.388 370.29C344.546 371.136 345.501 372.23 346.182 373.492C347.104 375.697 347.442 378.104 347.161 380.478C346.88 382.852 345.991 385.113 344.58 387.042C343.168 388.971 341.283 390.504 339.105 391.49C336.928 392.477 334.533 392.884 332.151 392.673L331.472 392.582V391.918C331.638 385.137 335.912 377.797 341.183 370.683C338.698 369.504 335.952 368.984 333.209 369.173C307.397 369.762 281.133 375.591 255.745 381.255C228.348 387.236 200.332 393.398 171.923 393.398ZM288.987 94.4331C284.456 94.4331 281.012 97.3027 276.255 101.229C274.05 103.027 271.558 105.081 268.628 107.105C252.302 118.387 236.685 124.624 220.887 126.21C196.541 128.642 186.437 168.498 177.511 203.643C172.044 225.226 166.939 245.615 158.965 255.945C149.827 267.907 136.839 277.663 124.228 287.088C102.948 303.112 80.8669 319.68 77.7103 347.319C75.5657 366.016 109.306 380.772 127.46 385.952C170.926 398.367 213.864 388.852 255.413 379.654C280.861 374.006 307.201 368.176 333.163 367.572C336.244 367.395 339.317 368.03 342.074 369.414C344.309 366.469 346.605 363.585 348.946 360.806C352.458 356.784 355.654 352.497 358.506 347.983C370.317 326.688 371.646 302.9 371.978 282.285C372.416 254.299 359.231 223.156 347.602 195.669C344.581 188.495 341.681 181.699 339.069 175.053C337.271 170.522 335.429 165.146 333.465 159.482C325.914 137.749 316.625 110.714 300.586 99.2963C295.723 95.8377 292.113 94.4331 288.987 94.4331ZM332.997 391.193C335.057 391.313 337.111 390.885 338.952 389.954C340.793 389.023 342.355 387.622 343.479 385.892C344.742 384.24 345.534 382.276 345.771 380.21C346.008 378.143 345.68 376.052 344.823 374.157C344.243 373.082 343.433 372.149 342.452 371.423C337.483 378.174 333.42 384.97 332.997 391.193Z" fill="#111111" fill-opacity="0.2"/>
<path d="M153.648 384.396C124.137 384.396 99.8665 380.696 89.0527 370.26C86.7373 368.09 84.9876 365.387 83.9557 362.386C82.9238 359.385 82.6412 356.178 83.1323 353.042C86.3946 326.552 107.463 308.745 127.837 291.528C139.92 281.303 152.455 270.731 160.913 258.513C167.332 249.239 172.422 231.508 177.798 212.735C187.721 177.998 198.942 138.73 222.971 136.042C236.141 134.532 249.19 128.339 264.052 116.514C266.68 114.429 268.915 112.391 270.893 110.593C279.457 102.815 284.184 98.5108 298.154 108.781C315.296 121.332 325.144 148.744 333.058 170.779C334.779 175.582 336.41 180.128 338.011 184.175C339.355 187.619 340.73 191.077 342.119 194.581C353.809 223.957 365.876 254.329 366.194 282.285C366.42 302.402 362.327 321.175 353.311 341.413C350.723 346.862 347.76 352.126 344.445 357.166C343.509 358.676 342.588 360.186 341.696 361.576H341.772C349.324 361.697 352.057 364.445 352.948 366.711C354.247 370.049 352.525 374.64 348.553 378.431C344.581 382.222 337.845 385.529 331.532 382.735L330.973 382.478L331.109 381.874C332.709 375.271 335.361 368.968 338.963 363.207C332.68 363.705 320.28 365.669 304.06 368.221C263.614 374.61 201.691 384.396 153.648 384.396ZM284.562 104.25C280.136 104.25 276.784 107.271 271.905 111.711C269.912 113.523 267.646 115.577 265.003 117.752C249.9 129.835 236.594 136.087 223.138 137.613C200.151 140.21 189.05 178.995 179.248 213.128C173.841 232.037 168.676 249.889 162.151 259.373C153.573 271.743 141.007 282.375 128.804 292.6C108.656 309.621 87.8142 327.231 84.6275 353.148C84.1639 356.053 84.4199 359.028 85.3731 361.811C86.3262 364.594 87.9475 367.101 90.0948 369.112C117.96 396.041 238.875 376.936 303.833 366.665C320.975 363.962 333.873 361.923 339.899 361.576C340.972 359.794 342.074 358.042 343.161 356.305C346.442 351.326 349.37 346.123 351.921 340.734C360.847 320.707 364.91 302.13 364.683 282.255C364.366 254.571 352.344 224.334 340.715 195.08L336.592 184.674C335.006 180.596 333.375 176.05 331.638 171.232C323.799 149.393 314.028 122.208 297.263 109.929C291.72 105.942 287.779 104.25 284.562 104.25ZM332.725 381.587C338.177 383.641 344.053 380.636 347.511 377.343C350.97 374.051 352.616 370.018 351.529 367.27C350.441 364.521 347.118 363.177 341.742 363.086H340.775C337.129 368.788 334.412 375.033 332.725 381.587Z" fill="#111111" fill-opacity="0.2"/>
<path d="M117.884 380.138C108.445 380.138 99.3983 378.718 94.2481 373.432C90.6687 369.762 89.2792 364.521 90.1099 357.845C93.1305 332.82 113.157 313.473 132.398 294.76C143.696 283.81 155.37 272.483 163.073 260.385C168.585 251.747 173.297 236.628 178.282 220.634C188.627 187.408 200.362 149.861 224.723 146.629C236.504 145.119 245.943 137.25 255.081 129.684C267.661 119.278 279.532 109.461 294.983 119.504C310.871 129.835 321.232 157.639 328.783 177.953C330.173 181.699 331.502 185.233 332.71 188.253C343.735 215.877 357.449 250.251 358.854 282.27C359.427 295.379 356.754 310.845 350.909 328.243C346.68 336.993 342.452 345.693 338.223 354.342C341.768 354.399 345.303 354.738 348.795 355.353C351.243 355.996 353.606 356.929 355.833 358.132C357.041 358.706 358.265 359.31 359.412 359.779L360.062 360.066L359.835 360.73C356.815 369.429 346.967 376.724 339.431 375.743C336.682 375.38 332 373.507 331.426 364.989V364.793L331.577 364.581C333.007 361.651 334.437 358.721 335.867 355.791C320.099 355.958 301.371 360.171 281.737 364.581C266.8 367.934 251.335 371.408 237.244 372.903C210.889 375.712 183.975 376.77 157.953 377.781C153.694 377.932 149.44 378.099 145.191 378.28C142.608 378.386 139.391 378.688 136.008 379.02C130.42 379.533 124.062 380.138 117.884 380.138ZM282.13 116.801C273.068 116.801 265.003 123.476 256.092 130.862C246.789 138.549 237.183 146.493 224.965 148.124C201.57 151.236 189.986 188.344 179.777 221.087C174.747 237.187 170.02 252.381 164.402 261.201C156.594 273.434 144.843 284.837 133.486 295.847C114.396 314.379 94.6408 333.53 91.6051 358.027C90.85 364.219 92.0884 369.052 95.3205 372.375C103.34 380.606 122.113 378.808 135.812 377.494C139.225 377.162 142.457 376.86 145.085 376.754C149.329 376.573 153.588 376.422 157.847 376.256C183.839 375.244 210.708 374.187 237.047 371.393C251.048 369.883 266.453 366.439 281.36 363.101C301.326 358.57 320.431 354.326 336.486 354.326H336.592C340.931 345.446 345.256 336.56 349.565 327.67C355.319 310.543 357.962 295.258 357.389 282.36C355.999 250.644 342.286 216.36 331.351 188.842C330.128 185.822 328.814 182.257 327.409 178.512C319.933 158.395 309.678 130.862 294.182 120.803C290.648 118.309 286.454 116.916 282.13 116.801ZM333.088 365.11C333.496 370.577 335.806 373.734 339.763 374.262C346.333 375.108 355.335 368.584 358.31 360.911C357.328 360.473 356.301 359.99 355.289 359.507C353.179 358.368 350.944 357.476 348.629 356.849C344.979 356.198 341.28 355.865 337.573 355.852C336.053 358.933 334.558 362.019 333.088 365.11Z" fill="#111111" fill-opacity="0.2"/>
<path d="M115 379.835C109.397 379.835 104.428 378.778 101.211 375.863C97.9937 372.948 96.3777 367.874 97.1782 361.259C100.093 337.411 119.032 316.221 137.352 295.711C147.924 283.78 158.059 272.528 164.991 260.974C169.522 253.423 173.811 240.948 178.387 227.748C188.959 197.149 202.144 159.074 226.083 156.325C237.063 155.072 245.717 147.264 254.25 139.712C265.909 129.291 276.904 119.444 291.932 129.291C304.271 137.371 315.357 164.738 321.987 181.094C322.939 183.451 323.784 185.535 324.509 187.256C336.848 216.451 350.184 250.297 351.619 282.406C352.435 300.242 346.741 318.653 341.817 330.992L341.712 331.158C337.915 336.186 335.111 341.891 333.45 347.968C340.261 347.388 347.118 347.723 353.839 348.965C356.121 349.652 358.304 350.632 360.334 351.88C361.436 352.484 362.584 353.103 363.626 353.617L364.472 354.009L363.898 354.749C357.525 363.116 347.798 367.859 340.232 366.318C336.788 365.608 332.318 363.298 330.535 356.184V356.063V355.942C330.731 353.83 331.059 351.731 331.517 349.66C317.924 350.747 302.64 353.904 287.612 357C273.582 359.884 259.098 362.875 246.019 364.219C233.559 365.518 220.842 366.545 208.548 367.526C190.802 368.961 172.452 370.441 154.509 372.752C151.489 373.13 147.426 374.142 142.669 375.305C134.135 377.268 123.729 379.82 115 379.835ZM279.698 126.663C271.029 126.663 263.538 133.354 255.247 140.769C246.623 148.472 237.712 156.431 226.249 157.76C203.262 160.388 190.258 197.965 179.822 228.156C175.201 241.492 170.851 254.087 166.229 261.714C159.221 273.419 149.118 284.732 138.409 296.708C120.286 317.052 101.483 338.076 98.6281 361.44C97.8729 367.481 99.066 372.012 102.147 374.746C109.94 381.648 128.592 377.056 142.215 373.704C147.018 372.526 151.156 371.514 154.298 371.121C172.286 368.81 190.651 367.33 208.412 365.895C220.706 364.899 233.408 363.872 245.853 362.588C258.856 361.244 273.31 358.268 287.28 355.384C303.138 352.121 318.438 348.965 331.88 347.938C333.551 341.523 336.466 335.499 340.458 330.207C345.321 318.019 350.924 299.865 350.124 282.33C348.614 250.614 335.414 216.843 323.135 187.755C322.41 186.048 321.625 183.949 320.598 181.578C314.466 166.475 303.063 138.308 291.116 130.469C287.772 128.096 283.798 126.771 279.698 126.663ZM332.031 355.806C333.299 360.745 336.244 363.826 340.534 364.702C347.224 366.077 356.18 361.772 362.131 354.417C361.3 353.994 360.454 353.526 359.609 353.073C357.718 351.903 355.689 350.974 353.568 350.309C346.809 349.112 339.921 348.832 333.088 349.478C332.593 351.561 332.24 353.676 332.031 355.806Z" fill="#111111" fill-opacity="0.2"/>
<path d="M117.688 378.174C113.656 378.174 110.227 377.389 107.796 375.425C104.775 372.933 103.597 368.78 104.367 363.071C107.509 339.676 125.3 316.523 142.487 294.11C151.64 282.194 160.294 270.927 166.546 259.932C170.398 253.166 174.294 242.82 178.417 231.856C189.322 202.873 202.884 166.822 226.747 164.798C238.588 163.801 246.547 156.235 254.25 148.91C264.157 139.485 273.521 130.59 289.062 140.18C322.289 160.66 343.992 250.07 344.294 282.345C344.294 288.22 340.911 298.551 337.271 309.531C333.782 319.982 329.977 331.445 329.07 339.737C338.229 339.667 347.376 340.4 356.407 341.927C358.589 342.502 360.693 343.339 362.675 344.419C363.747 344.932 364.819 345.461 365.831 345.929L366.994 346.427L366.027 347.213C359.594 352.453 345.653 358.857 336.139 355.988C334.185 355.438 332.408 354.39 330.981 352.947C329.554 351.504 328.526 349.716 327.998 347.756C327.427 345.611 327.238 343.382 327.439 341.172C288.171 341.172 238.044 351.155 192.735 360.171C182.51 362.21 172.844 364.128 163.511 365.895C159.364 366.945 155.284 368.241 151.292 369.777C140.766 373.447 127.49 378.174 117.688 378.174ZM276.421 137.567C268.401 137.567 262.179 143.473 255.277 150.012C247.725 157.156 239.237 165.266 226.853 166.308C203.911 168.257 190.53 203.809 179.792 232.384C175.638 243.409 171.727 253.815 167.815 260.687C161.502 271.758 152.833 283.07 143.65 295.032C126.584 317.279 108.913 340.341 105.893 363.267C105.198 368.433 106.164 372.118 108.792 374.247C116.45 380.485 137.126 373.19 150.809 368.357C154.875 366.796 159.031 365.48 163.254 364.415C172.588 362.648 182.254 360.73 192.478 358.691C237.878 349.629 288.081 339.661 327.59 339.661C328.451 331.309 332.212 320.027 335.882 309.002C339.552 297.977 342.875 287.979 342.829 282.345C342.542 251.248 320.507 161.324 288.322 141.464C284.805 139.057 280.68 137.69 276.421 137.522V137.567ZM328.965 341.187C328.767 343.212 328.926 345.257 329.433 347.228C329.899 348.947 330.801 350.517 332.053 351.785C333.305 353.052 334.863 353.975 336.577 354.462C344.37 356.818 356.603 352.378 364.094 346.729C363.4 346.427 362.705 346.08 362.01 345.748C360.148 344.737 358.177 343.941 356.135 343.377C347.16 341.844 338.069 341.096 328.965 341.141V341.187Z" fill="#111111" fill-opacity="0.2"/>
<path d="M122.174 373.537C119.427 373.717 116.696 372.996 114.396 371.483C111.994 369.626 111.043 366.575 111.571 362.421C114.592 338.332 131.674 312.748 148.166 288.009C155.431 277.104 162.287 266.789 167.634 257.078C170.654 251.671 173.675 244.225 177.27 235.586C188.159 209.352 203.081 173.437 226.777 171.67C237.35 170.885 244.72 163.847 251.848 157.05C261.53 147.807 270.682 139.093 285.996 149C317.35 169.284 337.347 253.211 336.939 281.801C336.939 283.735 335.263 289.353 332.952 297.01C329.705 307.869 325.219 322.942 324.539 331.506C335.148 331.336 345.745 332.298 356.15 334.375C357.866 334.877 359.519 335.576 361.074 336.459C361.904 336.882 362.75 337.32 363.536 337.668L364.895 338.272L363.611 339.012C357.379 342.396 350.514 344.453 343.448 345.053C337.226 345.506 328.814 344.736 324.071 338.393C323.158 336.773 322.773 334.91 322.969 333.061C279.321 333.484 223.017 346.291 179.354 356.229L172.225 357.86C168.34 359.062 164.527 360.49 160.807 362.135C149.102 366.862 132.791 373.537 122.174 373.537ZM273.204 146.116C265.487 146.116 259.506 151.825 252.906 158.198C245.581 165.191 238.014 172.41 226.898 173.301C204.138 174.993 189.428 210.424 178.689 236.296C175.08 244.965 171.968 252.441 168.978 257.923C163.601 267.695 156.714 278.026 149.435 288.975C133.048 313.563 116.102 338.997 113.082 362.724C112.613 366.378 113.354 368.901 115.332 370.411C122.778 376.135 146.233 366.545 160.248 360.821C164.045 359.136 167.938 357.678 171.908 356.456L179.037 354.84C222.836 344.887 279.2 332.049 323.059 331.626C323.618 323.833 327.243 311.041 331.532 296.693C333.616 289.685 335.429 283.629 335.444 281.892C335.791 253.559 316.127 170.401 285.196 150.39C281.701 147.815 277.525 146.328 273.189 146.116H273.204ZM324.555 333.001C324.367 334.529 324.652 336.079 325.37 337.441C332.922 347.59 352.223 343.21 361.617 338.393L360.439 337.788C359.006 336.973 357.486 336.319 355.908 335.84C345.556 333.788 335.016 332.836 324.464 333.001H324.555Z" fill="#111111" fill-opacity="0.2"/>
<path d="M127.294 365.427C124.97 365.579 122.658 364.987 120.694 363.735C118.806 362.316 118.035 360.035 118.413 356.984C121.434 331.838 138.379 303.731 153.331 278.947C158.934 269.659 164.221 260.823 168.691 252.502C170.76 248.635 173.101 243.545 175.82 237.655C187.041 213.294 203.987 176.503 226.219 175.476C234.706 175.098 241.578 169.118 248.239 163.394C257.92 154.981 267.873 146.297 282.568 155.721C312.412 174.947 329.523 250.342 329.07 278.358C328.473 282.313 327.554 286.212 326.322 290.018C323.663 299.638 319.525 314.575 320.446 322.414C331.158 322.253 341.86 323.123 352.405 325.011C353.889 325.33 355.348 325.759 356.769 326.295L358.944 327.035L360.802 327.609L359.05 328.44C349.988 332.684 328.844 336.912 320.733 327.443C319.957 326.458 319.438 325.295 319.223 324.06C275.923 324.558 223.319 336.731 179.52 348.225C177.632 348.723 173.69 350.384 168.706 352.484C155.929 357.845 137.971 365.427 127.294 365.427ZM270.184 153.139C262.345 153.139 255.911 158.727 249.22 164.526C242.53 170.326 235.295 176.609 226.279 177.032C204.969 178.013 188.249 214.306 177.194 238.335C174.46 244.255 172.119 249.36 170.02 253.272C165.489 261.684 160.233 270.459 154.63 279.763C139.754 304.426 122.914 332.382 119.893 357.211C119.591 359.733 120.135 361.485 121.585 362.573C128.532 367.813 153.301 357.362 168.087 351.109C171.681 349.482 175.356 348.041 179.097 346.79C249.039 328.409 291.207 322.806 318.921 322.429C318.015 314.318 321.866 300.393 324.857 289.61C326.038 285.928 326.937 282.161 327.545 278.343C327.983 251.354 310.66 175.642 281.737 156.99C278.342 154.611 274.327 153.273 270.184 153.139ZM320.749 324.045C320.933 324.927 321.321 325.755 321.881 326.461C328.98 334.753 347.209 331.626 356.618 327.851L356.286 327.73C354.933 327.217 353.545 326.803 352.133 326.491C341.77 324.698 331.264 323.864 320.749 323.999V324.045Z" fill="#111111" fill-opacity="0.2"/>
<path d="M133.546 355.036C131.342 355.192 129.143 354.665 127.248 353.526C126.307 352.787 125.587 351.802 125.169 350.68C124.75 349.558 124.649 348.343 124.877 347.167C127.354 320.933 143.424 292.796 157.605 267.846C161.88 260.295 165.927 253.242 169.537 246.355C170.941 243.681 172.557 240.51 174.309 236.855C185.184 214.759 203.413 177.787 225.146 176.443C232.698 176.005 239.026 171.383 245.203 166.928C254.899 159.905 264.943 152.64 279.004 162.397C307.035 181.94 320.96 248.031 320.733 271.924C320.733 275.277 320.522 278.766 320.326 282.496C319.767 293.582 319.178 304.97 322.621 312.053C330.313 312.136 337.991 312.716 345.608 313.79C346.983 313.971 348.432 314.288 349.852 314.575L351.936 315.013L354.413 315.481L352.087 316.448C339.854 321.492 331.245 322.066 325.763 318.185C324.102 316.997 322.734 315.448 321.76 313.654C278.49 313.367 227.653 325.615 186.316 337.064C184.806 337.501 181.121 339.072 176.545 341.066C164.024 346.594 144.662 355.036 133.546 355.036ZM265.562 159.18C258.464 159.18 252.392 163.575 246.079 168.136C239.766 172.697 233.181 177.47 225.237 177.938C204.38 179.161 186.392 215.695 175.654 237.444C173.841 241.114 172.286 244.285 170.881 246.974C167.241 253.891 163.194 261.005 158.919 268.526C144.813 293.28 128.834 321.387 126.372 347.228C126.174 348.142 126.233 349.093 126.542 349.975C126.851 350.857 127.399 351.637 128.124 352.227C135.344 357.438 161.744 345.899 175.941 339.707C180.743 337.607 184.217 336.082 185.909 335.614C254.25 316.689 294.454 311.841 320.96 312.053C317.683 304.592 318.257 293.37 318.815 282.436C319.012 278.751 319.193 275.277 319.223 271.954C319.495 248.288 305.751 182.952 278.143 163.711C274.53 160.915 270.128 159.329 265.562 159.18ZM323.543 313.699C324.352 314.983 325.403 316.096 326.639 316.976C331.321 320.284 338.721 319.997 349.172 315.995C347.904 315.723 346.605 315.466 345.412 315.3C338.162 314.321 330.858 313.796 323.543 313.729V313.699Z" fill="#111111" fill-opacity="0.2"/>
<path d="M140.176 341.715C137.9 341.85 135.635 341.292 133.682 340.114C132.685 339.356 131.912 338.342 131.444 337.18C130.976 336.019 130.831 334.752 131.024 333.514C132.7 307.175 147.879 279.687 161.23 255.432C164.508 249.511 167.589 243.923 170.443 238.441L172.346 234.755C182.752 214.608 202.129 177.077 223.696 175.053C229.481 174.509 235.009 171.504 240.869 168.317C251.365 162.623 262.224 156.733 274.926 165.659C300.48 183.647 311.853 239.015 312.004 263.285C312.004 265.279 312.004 267.257 312.004 269.236C312.004 282.104 311.883 294.292 317.758 300.363C324.026 300.363 330.218 300.665 336.274 301.254C337.694 301.39 339.159 301.571 340.624 301.753L342.829 302.024L346.409 302.447L342.95 303.489C331.577 306.948 323.527 306.752 318.332 302.885C317.914 302.573 317.516 302.235 317.139 301.873H316.988C274.699 301.873 228.439 313.609 191.421 324.377C189.518 324.936 185.803 326.552 181.091 328.591C168.464 334.043 150.824 341.715 140.176 341.715ZM261.424 162.563C254.612 162.563 248.209 166.052 241.563 169.646C235.839 172.757 229.919 175.99 223.817 176.563C203.126 178.512 183.99 215.544 173.72 235.465L171.817 239.15C168.948 244.648 165.867 250.251 162.589 256.172C149.284 280.336 134.196 307.628 132.534 333.635C132.358 334.611 132.452 335.617 132.806 336.543C133.16 337.47 133.761 338.281 134.543 338.891C141.808 344.011 166.018 333.499 180.471 327.216C185.229 325.162 188.99 323.531 191.044 322.942C227.804 312.249 273.672 300.62 315.795 300.393C310.433 293.597 310.433 281.741 310.433 269.236C310.433 267.257 310.433 265.279 310.433 263.3C310.282 239.286 299.106 184.568 273.99 166.897C270.364 164.162 265.965 162.645 261.424 162.563ZM319.495 301.889C323.724 304.909 330.067 305.226 338.827 303.051L336.093 302.749C330.686 302.236 325.144 301.964 319.495 301.889Z" fill="#111111" fill-opacity="0.2"/>
<path d="M147.199 325.525C144.682 325.666 142.18 325.057 140.01 323.773C138.954 322.992 138.119 321.948 137.59 320.746C137.06 319.543 136.853 318.223 136.99 316.916C137.428 292.117 151.594 266.049 164.085 243.062C166.697 238.244 169.174 233.698 171.485 229.243L171.651 228.941C180.94 210.999 200.347 173.694 221.975 171.715C227.278 170.988 232.463 169.567 237.395 167.487C247.68 163.681 258.297 159.754 270.516 168.71C293.261 185.399 302.338 233.336 302.987 252.638C302.987 254.057 303.078 255.507 303.108 256.957C303.41 268.889 303.727 281.228 310.524 286.816C315.397 286.816 320.2 287.042 324.932 287.495C326.367 287.631 327.847 287.843 329.342 288.039L331.562 288.341L335.353 288.825L331.668 289.821C321.957 292.449 314.889 291.966 310.071 288.311H309.995H309.663C273.748 288.311 233.936 299.004 195.861 310.165C193.807 310.769 190.334 312.189 185.939 313.986C174.158 318.804 157.726 325.525 147.199 325.525ZM254.839 164.753C249.085 164.753 243.557 166.792 237.863 168.906C232.806 171.034 227.488 172.481 222.05 173.211C201.193 175.114 182.057 211.935 172.995 229.636L172.829 229.938C170.503 234.469 168.042 239 165.414 243.772C152.999 266.623 138.923 292.51 138.5 316.946C138.374 318.01 138.532 319.088 138.96 320.07C139.387 321.051 140.067 321.902 140.932 322.535C148.483 327.7 171.576 318.245 185.365 312.612C189.805 310.799 193.309 309.365 195.439 308.73C233.196 297.675 272.57 287.073 308.319 286.816C302.202 280.427 301.9 268.526 301.598 256.987C301.598 255.552 301.522 254.103 301.477 252.683C300.843 233.608 291.932 186.23 269.625 169.933C265.408 166.612 260.206 164.79 254.839 164.753ZM312.85 288.356C316.444 290.138 321.187 290.456 327.228 289.293C326.382 289.187 325.551 289.081 324.721 289.006C320.824 288.643 316.867 288.417 312.85 288.356Z" fill="#111111" fill-opacity="0.2"/>
<path d="M154.207 307.809C151.358 307.973 148.526 307.273 146.082 305.8C144.88 304.902 143.93 303.709 143.327 302.335C142.723 300.961 142.486 299.454 142.638 297.962C143.273 268.314 185.848 169.586 219.89 166.898C224.203 166.457 228.479 165.705 232.683 164.647C243.708 162.155 254.129 159.799 265.532 168.816C284.939 184.19 292.325 221.117 293.623 240.51C293.623 241.658 293.759 242.851 293.835 244.074C294.469 254.888 295.194 267.167 302.278 272.377C305.525 272.377 308.742 272.574 311.898 272.86C313.408 272.996 314.919 273.253 316.505 273.51C317.29 273.646 318.015 273.782 318.815 273.887L322.531 274.446L318.891 275.368C311.566 277.225 305.963 276.742 301.779 273.857H300.707C270.501 273.857 236.111 283.765 205.407 292.63L198.746 294.548C197.236 294.986 194.487 296.059 191.059 297.433C180.668 301.571 164.915 307.809 154.207 307.809ZM247.559 163.922C242.646 164.12 237.769 164.854 233.015 166.112C228.741 167.19 224.396 167.958 220.011 168.408C205.875 169.541 187.706 189.446 170.171 223.036C155.657 250.78 144.496 283.01 144.164 297.992C144.012 299.236 144.191 300.498 144.681 301.651C145.172 302.804 145.957 303.808 146.958 304.562C154.962 310.12 178.085 300.982 190.515 296.059C193.989 294.684 196.737 293.582 198.338 293.129L205.014 291.211C235.552 282.391 269.685 272.543 299.952 272.377C293.639 266.336 292.959 254.571 292.4 244.15C292.4 242.941 292.264 241.763 292.189 240.6C290.905 221.465 283.671 185.051 264.671 170.009C259.874 166.007 253.806 163.849 247.559 163.922ZM305.132 273.963C308.126 275.015 311.341 275.275 314.466 274.718C313.544 274.582 312.623 274.446 311.762 274.371C309.587 274.159 307.413 273.963 305.132 273.963Z" fill="#111111" fill-opacity="0.2"/>
<path d="M161.185 287.767C157.965 287.958 154.764 287.168 152.002 285.502C150.752 284.58 149.751 283.361 149.09 281.956C148.428 280.551 148.126 279.003 148.211 277.452C148.015 263.074 157.273 234.68 170.141 209.911C179.308 192.301 197.689 162.563 217.716 161.068C236.338 159.678 251.441 163.922 262.602 173.694C275.454 184.946 282.704 203.009 284.139 227.385V228.518C284.682 238.048 285.438 251.173 292.461 256.489C292.942 256.844 293.447 257.167 293.971 257.455C295.25 257.455 296.518 257.501 297.777 257.591C299.499 257.682 301.371 257.924 303.169 258.165C304.075 258.286 304.996 258.407 305.887 258.498L310.584 259.026L305.948 259.993C301.832 261.08 297.468 260.712 293.593 258.951C268.492 258.513 240.989 266.306 214.317 273.857C209.545 275.217 204.833 276.546 200.211 277.814C198.565 278.267 196.088 279.113 193.233 280.095C184.323 283.176 171.017 287.767 161.185 287.767ZM224.436 162.321C222.277 162.321 220.087 162.412 217.821 162.578C185.229 165.01 149.359 250.719 149.722 277.361C149.631 278.677 149.872 279.995 150.424 281.193C150.976 282.391 151.819 283.431 152.878 284.218C160.656 289.685 180.758 282.708 192.765 278.615C195.65 277.618 198.157 276.757 199.849 276.304C204.455 275.035 209.167 273.706 213.94 272.347C239.887 265.007 266.634 257.425 291.282 257.365C284.033 251.429 283.263 238.229 282.704 228.548V227.415C281.299 203.462 274.216 185.746 261.681 174.766C252.105 166.52 239.615 162.321 224.436 162.321Z" fill="#111111" fill-opacity="0.2"/>
<path d="M170.79 264.146C164.175 264.146 159.101 263.24 156.276 261.05C155.487 260.472 154.843 259.718 154.398 258.847C153.952 257.977 153.716 257.014 153.709 256.036C153.195 230.164 180.698 158.304 215.405 154.649C229.889 153.139 242.258 156.476 252.166 164.572C264.52 174.645 272.464 192.089 274.563 213.656L274.73 215.303C275.877 227.385 277.176 241.235 291.917 242.987L291.736 244.497C290.754 244.391 289.757 244.24 288.715 244.104C286.797 243.832 284.803 243.561 283.036 243.485C277.871 243.243 263.115 246.747 246.034 250.78C220.087 256.912 189.412 264.146 170.79 264.146ZM222.035 155.827C219.876 155.832 217.718 155.948 215.571 156.174C182.918 159.603 154.691 229.862 155.159 256.005C155.163 256.758 155.344 257.498 155.688 258.168C156.031 258.837 156.528 259.415 157.137 259.857C167.362 267.786 212.626 257.108 245.671 249.285C263.568 245.071 277.69 241.733 283.082 241.96H283.927C275.198 236.809 274.08 225.135 273.159 215.393L273.008 213.747C270.954 192.603 263.191 175.521 251.154 165.689C242.914 159.072 232.6 155.579 222.035 155.827Z" fill="#111111" fill-opacity="0.2"/>
<path d="M178.055 244.24C171.364 244.24 165.973 243.259 162.695 240.857C161.67 240.127 160.824 239.174 160.22 238.07C159.616 236.967 159.269 235.74 159.206 234.484C158.406 222.658 164.734 201.786 174.566 183.707C180.079 173.558 194.895 149.786 213.124 148.185C230.296 146.675 242.031 155.283 248.858 162.759C257.951 173.192 263.581 186.189 264.973 199.958C266.378 212.614 267.299 220.966 278.475 227.325L281.496 229.016L278.067 228.729C276.98 228.639 275.862 228.518 274.73 228.397C272.62 228.123 270.498 227.962 268.371 227.914C263.176 227.914 251.622 230.663 238.165 233.849C217.927 238.592 194.14 244.24 178.055 244.24ZM216.477 149.544C215.405 149.544 214.332 149.544 213.26 149.695C185.652 152.112 159.116 210.651 160.717 234.393C160.761 235.428 161.042 236.439 161.54 237.348C162.038 238.257 162.738 239.039 163.586 239.634C174.158 247.442 210.98 238.697 237.833 232.294C251.305 229.092 262.934 226.328 268.311 226.328C270.35 226.328 272.63 226.585 274.835 226.811H274.971C265.668 220.272 264.716 211.708 263.448 200.034C259.793 166.58 237.138 149.544 216.477 149.544Z" fill="#111111" fill-opacity="0.2"/>
<path d="M185.35 224.334C178.055 224.334 172.014 223.277 168.419 220.544C167.306 219.72 166.396 218.651 165.759 217.421C165.123 216.19 164.778 214.83 164.749 213.445C164.311 203.054 169.99 185.776 178.87 170.477C189.05 152.912 200.74 142.536 210.919 142.038C220.63 141.555 231.203 145.934 239.917 154.03C249.492 162.91 255.156 174.751 255.458 186.531C255.399 193.828 258.096 200.877 263.01 206.271C264.278 207.781 265.109 208.763 264.701 209.79C264.188 211.104 262.239 211.451 254.129 212.388C251.486 212.69 246.2 213.898 239.524 215.484C224.089 219.079 201.691 224.334 185.35 224.334ZM212.369 143.518H210.995C188.839 144.605 165.444 193.766 166.259 213.354C166.261 214.514 166.535 215.657 167.059 216.69C167.584 217.724 168.345 218.62 169.28 219.305C180.335 227.717 217.081 219.124 239.026 213.989C245.762 212.403 251.108 211.165 253.812 210.847C257.995 210.379 262.753 209.835 263.176 209.186C262.768 208.459 262.26 207.792 261.665 207.208C256.557 201.541 253.764 194.161 253.842 186.531C253.555 175.174 248.058 163.711 238.739 155.102C230.885 147.702 221.325 143.518 212.369 143.518Z" fill="#111111" fill-opacity="0.2"/>
<path d="M191.406 204.806C184.293 204.806 178.161 203.779 174.415 200.985C173.253 200.146 172.29 199.061 171.593 197.809C170.896 196.556 170.483 195.166 170.383 193.736C169.416 182.363 178.629 161.038 190.122 148.094C196.556 140.845 203.035 136.903 208.835 136.722C226.158 136.117 244.629 154.543 246.064 173.875C246.407 179.228 247.691 184.478 249.855 189.386C250.806 191.682 251.365 193.086 250.701 194.294C249.84 195.805 247.378 196.318 240.551 197.315C238.135 197.678 234.661 198.402 230.644 199.233C219.679 201.589 204.017 204.806 191.406 204.806ZM209.53 138.217H208.85C203.473 138.383 197.372 142.144 191.225 149.076C179.958 161.778 170.911 182.559 171.863 193.585C171.939 194.803 172.285 195.989 172.875 197.057C173.465 198.125 174.285 199.049 175.276 199.762C185.153 207.117 213.411 201.272 230.312 197.844C234.344 197.013 237.863 196.333 240.295 195.91C245.566 195.11 248.813 194.551 249.356 193.6C249.674 193.026 249.145 191.757 248.42 190.005C246.204 184.924 244.885 179.497 244.523 173.966C243.058 153.879 224.346 138.217 209.56 138.217H209.53Z" fill="#111111" fill-opacity="0.2"/>
<path d="M197.84 186.864C190.621 186.864 184.051 185.852 180.079 182.846C178.976 182.047 178.058 181.02 177.388 179.834C176.718 178.648 176.312 177.332 176.197 175.974C175.367 167.532 181.03 154.015 189.669 143.835C195.484 136.978 201.616 133.006 206.917 132.659C212.732 132.281 219.86 135.589 226.007 141.494C232.426 147.656 236.398 155.329 236.881 162.533C237.153 166.58 237.652 169.661 238.044 172.123C239.313 179.947 239.207 181.306 228.409 183.239L227.246 183.45C220.057 184.734 208.276 186.864 197.84 186.864ZM207.823 134.139H207.007C202.129 134.456 196.435 138.232 190.817 144.787C182.556 154.513 176.922 167.849 177.708 175.793C177.798 176.944 178.14 178.061 178.709 179.066C179.277 180.07 180.06 180.938 181 181.608C190.183 188.555 215.964 183.919 226.974 181.925L228.152 181.714C237.787 179.992 237.727 179.554 236.549 172.335C236.156 169.843 235.643 166.731 235.371 162.593C234.389 148.019 218.803 134.139 207.823 134.139Z" fill="#111111" fill-opacity="0.2"/>
<path d="M201.117 171.821C195.439 171.821 189.881 170.975 186.286 168.242C185.134 167.375 184.177 166.274 183.48 165.011C182.782 163.749 182.359 162.354 182.239 160.917C180.728 147.082 192.131 131.934 205.271 130.333C207.609 130.011 209.988 130.164 212.267 130.781C214.545 131.399 216.675 132.469 218.531 133.927C223.56 137.869 227.004 144.771 227.986 152.867C229.496 165.765 229.496 168.257 218.093 170.099C212.489 171.122 206.813 171.698 201.117 171.821ZM207.732 131.692C206.98 131.693 206.229 131.739 205.482 131.828C193.309 133.338 182.359 147.913 183.764 160.75C183.854 161.985 184.21 163.186 184.806 164.27C185.403 165.354 186.228 166.297 187.223 167.033C194.321 172.425 210.224 169.843 217.882 168.544C227.895 166.928 228.046 165.704 226.506 152.988C225.584 145.285 222.352 138.76 217.64 135.06C214.82 132.838 211.323 131.649 207.732 131.692Z" fill="#111111" fill-opacity="0.2"/>
<path d="M204.334 158.681C200.272 158.681 195.272 158.062 191.889 155.434C190.932 154.696 190.14 153.764 189.565 152.7C188.99 151.636 188.645 150.463 188.552 149.257C188.265 144.715 189.699 140.231 192.567 136.697C195.435 133.162 199.528 130.837 204.032 130.182C205.985 129.955 207.963 130.199 209.802 130.893C211.641 131.586 213.288 132.71 214.604 134.169C217.355 137.321 219.027 141.268 219.377 145.436C220.283 154.06 218.018 157.186 210.028 158.289C208.142 158.551 206.239 158.682 204.334 158.681ZM205.497 131.617C205.063 131.612 204.629 131.638 204.198 131.692C196.798 132.478 189.186 140.09 190.047 149.121C190.129 150.123 190.418 151.097 190.896 151.981C191.375 152.865 192.032 153.64 192.826 154.256C196.722 157.277 204.198 157.594 209.892 156.794C216.311 155.903 218.848 154.151 217.942 145.602C217.64 141.755 216.11 138.108 213.577 135.196C212.559 134.064 211.312 133.16 209.92 132.543C208.527 131.927 207.02 131.611 205.497 131.617Z" fill="#111111" fill-opacity="0.2"/>
<path d="M203.972 148.139C201.57 148.201 199.221 147.427 197.326 145.95C196.703 145.427 196.194 144.782 195.83 144.055C195.466 143.327 195.256 142.533 195.212 141.721C195.115 139.461 195.901 137.252 197.403 135.561C198.906 133.87 201.006 132.829 203.262 132.659C207.551 132.372 211.04 135.8 211.357 140.648C211.659 144.998 209.318 147.717 204.923 148.079C204.621 148.119 204.304 148.139 203.972 148.139ZM203.76 134.169H203.368C201.509 134.301 199.775 135.153 198.534 136.543C197.293 137.934 196.643 139.753 196.722 141.615C196.748 142.22 196.895 142.814 197.155 143.361C197.414 143.909 197.781 144.398 198.233 144.802C200.092 146.186 202.407 146.817 204.712 146.569C208.321 146.267 210.028 144.318 209.786 140.754C209.59 136.933 207.008 134.169 203.76 134.169Z" fill="#111111" fill-opacity="0.2"/>
<path d="M239.6 434.403L238.09 434.025C244.342 409.588 271.694 398.352 298.124 387.493C326.624 375.788 353.552 364.732 354.64 338.574C355.576 315.798 325.823 286.831 306.129 267.589C301.19 262.787 296.931 258.633 293.593 255.069C287.235 248.273 280.469 241.355 273.959 234.665C245.883 205.969 216.855 176.261 202.31 139.229L203.715 138.685C218.138 175.416 247.076 205.002 275.047 233.608C281.586 240.298 288.353 247.2 294.681 254.042C297.988 257.576 302.232 261.714 307.171 266.502C328.24 287.027 357.102 315.134 356.135 338.574C355.002 365.759 327.651 376.936 298.743 388.837C272.676 399.605 245.671 410.691 239.6 434.403Z" fill="#111111" fill-opacity="0.2"/>
<path d="M282.9 457.042H281.39C282.175 430.838 303.516 414.044 324.162 397.793C344.808 381.542 364.562 365.971 363.279 342.108C361.768 314.379 326.14 279.234 302.549 256.021C297.309 250.855 292.778 246.385 289.168 242.564C282.855 235.873 276.225 229.122 269.821 222.583C244.901 197.194 219.135 170.93 202.371 139.516L203.7 138.806C220.313 170.084 245.988 196.273 270.893 221.586C277.312 228.125 283.942 234.892 290.271 241.582C293.865 245.388 298.381 249.844 303.607 254.994C327.364 278.283 363.294 313.669 364.804 341.927C366.118 366.59 346.197 382.282 325.098 398.88C304.724 414.965 283.655 431.548 282.9 457.042Z" fill="#111111" fill-opacity="0.2"/>
<path d="M319.102 481.977C312.125 453.281 323.633 430.219 334.87 407.852C344.657 388.308 353.885 369.837 351.982 347.832C348.961 312.853 320.265 278.871 297.218 251.565L290.648 243.757C280.378 231.433 269.338 219.32 258.66 207.615C239.026 186.154 218.818 163.967 202.401 139.44L203.67 138.594C220.011 163.031 240.219 185.187 259.778 206.558C270.455 218.278 281.511 230.391 291.811 242.805C293.926 245.328 296.115 247.94 298.381 250.614C321.549 278.086 350.396 312.264 353.477 347.711C355.425 370.154 345.669 389.667 336.229 408.546C325.159 430.672 313.726 453.538 320.567 481.63L319.102 481.977Z" fill="#111111" fill-opacity="0.2"/>
<path d="M360.636 465.077C358.506 462.343 356.377 459.73 354.323 457.178C342.708 442.845 332.68 430.461 330.958 410.268C330.067 399.907 331.698 389.683 333.269 379.805C334.84 369.928 336.426 359.945 335.595 349.795C330.188 284.203 278.853 226.388 233.559 175.385C222.458 162.88 211.976 151.07 202.446 139.501L203.624 138.534C213.124 150.088 223.606 161.883 234.691 174.374C280.136 225.558 331.653 283.584 337.105 349.675C337.951 360.005 336.335 370.185 334.764 380.032C333.193 389.879 331.593 399.968 332.469 410.132C334.145 429.872 344.037 442.09 355.501 456.227C357.57 458.779 359.684 461.407 361.814 464.141L360.636 465.077Z" fill="#111111" fill-opacity="0.2"/>
<path d="M418.707 425.25C409.313 419.768 398.65 415.494 388.335 411.355C374.53 405.813 360.258 400.073 348.523 391.344C333.692 380.304 331.004 367.874 327.605 352.076C327.122 349.871 326.639 347.545 326.095 345.219C305.902 257.908 247.756 185.172 202.492 139.546L203.564 138.489C248.964 184.251 307.413 257.214 327.56 344.947C328.104 347.318 328.602 349.614 329.07 351.834C332.529 367.859 335.036 379.443 349.414 390.151C360.998 398.759 375.18 404.453 388.894 409.966C399.254 414.119 410.038 418.424 419.462 423.951L418.707 425.25Z" fill="#111111" fill-opacity="0.2"/>
<path d="M478.983 375.154C469.332 373.794 457.748 373.009 445.485 372.133C402.622 369.248 349.293 365.669 326.835 334.013C310.705 311.268 298.456 284.671 286.616 258.966C266.091 214.427 244.871 168.347 202.613 139.516L203.458 138.277C246.064 167.351 267.374 213.611 288.035 258.331C299.861 284.007 312.079 310.512 328.134 333.137C350.169 364.204 403.105 367.768 445.636 370.623C457.929 371.453 469.559 372.224 479.255 373.643L478.983 375.154Z" fill="#111111" fill-opacity="0.2"/>
<path d="M486.535 336.384C475.419 335.599 462.476 335.568 448.777 335.538C408.361 335.538 362.554 335.372 333.496 316.569C313.726 303.761 300.465 278.041 288.775 255.356C284.985 248.001 281.405 241.054 277.811 234.907C276.512 232.702 275.213 230.481 273.914 228.246C254.567 195.125 234.571 160.887 202.597 139.652L203.443 138.383C235.703 159.814 255.79 194.264 275.213 227.491L279.109 234.136C282.734 240.329 286.314 247.291 290.12 254.661C301.719 277.18 314.873 302.719 334.311 315.3C363.007 333.877 408.573 333.952 448.777 334.028C462.491 334.028 475.449 334.028 486.625 334.874L486.535 336.384Z" fill="#111111" fill-opacity="0.2"/>
<path d="M459.485 303.777C446.678 302.568 432.707 302.629 417.937 302.689C390.479 302.81 362.055 302.931 338.948 294.745C314.858 286.212 298.879 260.521 284.773 237.852C281.843 233.14 279.079 228.684 276.331 224.546C272.993 219.517 269.655 214.291 266.423 209.231C249.281 182.333 231.565 154.513 202.688 139.757L203.383 138.428C232.622 153.441 250.459 181.427 267.707 208.491C270.924 213.551 274.261 218.777 277.584 223.791C280.348 227.944 283.112 232.4 286.057 237.127C300.027 259.585 315.855 285.034 339.446 293.386C362.342 301.496 390.6 301.375 417.982 301.254C432.798 301.254 446.799 301.133 459.682 302.342L459.485 303.777Z" fill="#111111" fill-opacity="0.2"/>
<path d="M343.992 268.843C342.063 268.856 340.135 268.735 338.223 268.48C314.919 265.128 297.173 240.827 282.915 221.299C280.439 217.9 278.098 214.699 275.862 211.784C272.071 206.86 268.311 201.77 264.762 196.847C247.318 172.939 230.84 150.36 202.839 139.727L203.383 138.307C231.867 149.106 248.48 171.866 266.06 195.956C269.64 200.864 273.355 205.954 277.131 210.862C279.381 213.792 281.662 216.994 284.214 220.407C298.29 239.709 315.84 263.723 338.585 266.985C346.937 268.178 357.6 266.185 367.931 264.252C374.803 262.778 381.774 261.804 388.788 261.337C395.131 261.14 401.55 261.186 407.757 261.216C419.976 261.307 432.602 261.397 445.001 259.6L445.213 261.11C432.692 262.923 420.021 262.832 407.757 262.741C401.55 262.741 395.146 262.666 388.833 262.862C381.895 263.328 375 264.297 368.202 265.762C359.835 267.272 351.393 268.843 343.992 268.843Z" fill="#111111" fill-opacity="0.2"/>
<path d="M319.857 226.826C300.344 226.826 285.362 210.53 271.981 195.956C270.35 194.189 268.764 192.452 267.178 190.775C264.006 187.408 260.971 184.07 258.041 180.838C241.835 163.001 227.835 147.611 202.809 139.742L203.262 138.232C228.68 146.237 242.802 161.763 259.143 179.765C262.073 182.982 265.109 186.32 268.205 189.673C269.715 191.349 271.392 193.101 273.023 194.884C287.763 210.923 304.467 229.107 326.79 224.531C333.042 223.247 338.328 220 343.403 216.889C349.444 213.143 355.848 209.337 363.989 208.537C372.96 207.736 381.025 210.832 388.833 213.838C393.312 215.684 397.921 217.198 402.622 218.369L402.305 219.879C397.526 218.693 392.841 217.153 388.289 215.273C380.3 212.252 372.748 209.231 364.124 210.077C356.331 210.787 350.154 214.608 344.188 218.203C338.963 221.404 333.616 224.712 327.047 226.041C324.682 226.541 322.274 226.804 319.857 226.826Z" fill="#111111" fill-opacity="0.2"/>
<path d="M289.712 191.289C284.124 191.289 278.158 189.039 270.833 184.598C261.551 178.786 252.887 172.041 244.977 164.466C233.317 153.894 223.258 144.832 202.854 139.757L203.217 138.247C223.998 143.412 234.178 152.64 245.988 163.318C253.838 170.834 262.442 177.52 271.664 183.269C287.295 192.739 296.04 191.999 309.074 180.113C315.098 174.421 320.574 168.176 325.431 161.46C331.668 153.275 336.592 146.826 343.418 146.539C349.928 146.297 357.781 151.704 368.988 164.149L367.825 165.221C356.966 153.139 349.429 147.898 343.448 148.109C337.468 148.321 332.876 154.271 326.593 162.442C321.688 169.228 316.156 175.539 310.071 181.291C302.655 187.997 296.463 191.289 289.712 191.289Z" fill="#111111" fill-opacity="0.2"/>
<path d="M268.779 171.444C266.505 171.421 264.241 171.147 262.028 170.628L261.786 170.537C251.909 164.31 242.468 157.417 233.528 149.907C225.765 140.679 215.571 137.296 203.186 139.757L202.884 138.247C215.858 135.664 226.536 139.229 234.601 148.819C243.424 156.227 252.739 163.028 262.481 169.178C278.415 172.637 282.9 163.484 289.108 150.828L290.482 148.034C293.11 142.763 295.013 135.438 297.127 127.69C300.918 113.493 305.223 97.484 314.949 90.7178C327.862 81.807 341.576 89.872 353.673 96.9856C356.694 98.7677 359.594 100.459 362.388 101.849L361.723 103.208C358.869 101.773 355.984 100.082 352.918 98.2844C340.624 91.0652 327.922 83.6043 315.795 91.9562C306.537 98.3448 302.308 114.143 298.592 128.083C296.493 135.906 294.53 143.307 291.841 148.714L290.467 151.492C285.09 162.457 280.695 171.444 268.779 171.444Z" fill="#111111" fill-opacity="0.2"/>
<path d="M259.309 160.917C255.565 160.756 251.848 160.194 248.224 159.24H248.058C238.154 154.219 229.155 147.584 221.431 139.606L203.05 139.818V138.307L222.095 138.081L222.322 138.323C229.958 146.257 238.872 152.853 248.692 157.836C265.592 161.687 267.314 160.358 274.654 138.066C276.584 131.676 278.097 125.168 279.185 118.583C281.511 106.123 283.912 93.255 290.799 83.5136C304.634 63.8796 323.422 67.5043 343.312 71.2801L349.142 72.3524L348.87 73.8627L343.041 72.7904C323.633 69.1204 305.283 65.6466 292.038 84.4197C285.347 93.8893 282.976 106.591 280.68 118.885C279.594 125.52 278.081 132.079 276.149 138.519C270.531 155.268 268.009 160.917 259.309 160.917Z" fill="#111111" fill-opacity="0.2"/>
<path d="M247.272 160.554C242.515 160.554 238.21 156.159 233.196 151.13C225.373 143.231 216.507 134.275 203.322 139.712L202.748 138.323C216.87 132.493 226.521 142.234 234.269 150.073C239.404 155.253 243.829 159.754 248.345 158.953C252.317 158.259 256.349 153.395 260.654 144.092C266.03 132.493 268.628 121.664 270.939 112.104C276.195 90.2495 280.363 72.9867 313.076 62.5203L313.529 64.0306C281.632 74.2403 277.765 90.2948 272.404 112.527C270.078 122.162 267.45 133.067 262.028 144.802C257.497 154.724 253.162 159.708 248.616 160.509C248.17 160.561 247.721 160.576 247.272 160.554Z" fill="#111111" fill-opacity="0.2"/>
<path d="M239.449 170.658L238.966 170.099C236.397 166.922 234.036 163.583 231.897 160.101C224.044 148.019 214.272 132.916 203.504 139.652L202.718 138.383C214.801 130.831 224.95 146.629 233.166 159.27C235.15 162.474 237.303 165.569 239.615 168.544C251.426 158.077 249.794 140.935 248.209 124.337C247.74 119.338 247.287 114.626 247.227 110.17C246.604 82.1245 248.928 54.0906 254.159 26.5298L255.67 26.8167C250.462 54.2787 248.149 82.2109 248.767 110.155C248.767 114.535 249.281 119.217 249.749 124.201C251.259 140.633 253.087 159.255 240.038 170.19L239.449 170.658Z" fill="#111111" fill-opacity="0.2"/>
<path d="M223.621 177.439L223.032 176.065C217.444 162.971 212.173 149.529 207.325 136.117L203.549 139.576L202.522 138.458L207.989 133.474L208.367 134.532C213.124 147.792 218.32 161.083 223.817 174.056C230.387 161.324 225.328 143.503 220.902 127.705C219.603 123.174 218.38 118.809 217.534 114.883L216.19 108.675C208.231 72.0504 200.725 37.4644 195.469 0.869706L196.979 0.658264C202.22 37.1925 209.726 71.7634 217.67 108.358L219.03 114.565C219.86 118.447 221.084 122.751 222.367 127.297C227.064 143.911 232.396 162.805 224.391 176.156L223.621 177.439Z" fill="#111111" fill-opacity="0.2"/>
<path d="M207.445 183.586C200.226 149.907 189.11 116.453 178.372 84.0875C172.165 65.4353 165.761 46.1487 160.173 27.0433L161.683 26.6204C167.256 45.6956 173.66 64.9671 179.807 83.6193C187.917 108.011 196.224 133.021 202.93 158.289C201.958 151.882 201.745 145.383 202.295 138.927L203.806 139.108C202.416 150.707 205.724 167.985 208.941 183.284L207.445 183.586Z" fill="#111111" fill-opacity="0.2"/>
<path d="M195.076 204.021L193.792 203.024C184.64 195.835 179.278 185.625 177.874 172.697C163.254 141.207 148.664 109.264 134.528 77.5477L135.902 76.9285C150.054 108.645 164.598 140.694 179.293 172.199V172.44C180.577 184.387 185.335 193.902 193.354 200.789C193.188 198.357 192.886 195.367 192.554 192.014C190.606 172.924 187.661 144.077 202.703 138.338L203.247 139.757C189.277 145.073 192.267 174.358 194.049 191.848C194.472 196.061 194.85 199.686 194.955 202.42L195.076 204.021Z" fill="#111111" fill-opacity="0.2"/>
<path d="M180.547 236.372L179.565 235.843C154.237 222.25 136.431 186.214 120.663 154.468C115.136 143.292 109.895 132.719 104.805 124.126L106.089 123.355C111.224 131.994 116.48 142.582 122.023 153.803C137.428 184.916 154.857 220.136 179.248 233.955C179.58 230.21 179.656 224.47 179.747 217.342C180.064 192.12 180.547 154 193.234 141.978C194.51 140.709 196.037 139.721 197.717 139.076C199.397 138.431 201.193 138.144 202.99 138.232V139.742C201.393 139.653 199.796 139.904 198.304 140.479C196.812 141.055 195.459 141.941 194.336 143.08C182.103 154.649 181.604 193.902 181.317 217.357C181.211 225.256 181.136 231.493 180.698 235.224L180.547 236.372Z" fill="#111111" fill-opacity="0.2"/>
<path d="M161.26 268.088C146.52 268.088 112.644 220.936 81.033 174.056C77.0307 168.136 74.146 163.847 72.6357 161.808L73.8439 160.917C75.3542 162.971 78.2691 167.275 82.2865 173.211C100.576 200.396 149.148 272.347 162.967 266.245C168.616 263.738 171.168 223.489 172.029 210.258C172.255 206.785 172.391 204.701 172.482 204.081C173.026 200.744 173.479 196.847 173.992 192.739C176.545 170.779 180.033 140.724 203.02 138.262L203.171 139.773C181.378 142.098 177.979 171.489 175.503 192.905C175.019 197.043 174.566 200.94 173.992 204.308C173.902 204.867 173.751 207.162 173.554 210.349C171.848 237.248 169.325 265.098 163.616 267.62C162.874 267.943 162.07 268.102 161.26 268.088Z" fill="#111111" fill-opacity="0.2"/>
<path d="M141.717 296.95C129.287 296.95 89.3547 248.514 52.5184 202.571C44.9669 193.131 39.4694 186.305 37.4154 184.085L38.5179 183.043C40.6625 185.308 46.0694 192.104 53.7418 201.634C77.4988 231.267 133.154 300.635 142.85 295.273C154.343 288.749 157.605 263.466 159.977 245.01C160.702 239.347 161.336 234.438 162.106 230.783C163.254 225.271 164.236 219.577 165.278 213.551C170.232 184.764 175.85 152.142 202.809 138.398L203.504 139.757C177.224 153.139 171.666 185.368 166.758 213.762C165.716 219.803 164.734 225.497 163.571 231.04C162.816 234.665 162.197 239.528 161.472 245.161C159.055 263.935 155.748 289.64 143.59 296.512C143.019 296.832 142.37 296.984 141.717 296.95Z" fill="#111111" fill-opacity="0.2"/>
<path d="M120.709 324.347C105.47 324.347 90.9255 303.837 80.1268 288.628C77.5291 284.973 75.2938 281.817 73.3455 279.37C51.5669 252.185 32.7485 232.4 12.3443 215.409L13.3109 214.261C33.7907 231.312 52.6695 251.097 74.5236 278.494C76.5021 280.971 78.7524 284.143 81.3653 287.813C91.9374 302.75 107.962 325.313 123.276 322.686C140.388 319.756 147.29 284.067 151.428 262.757C152.41 257.652 153.271 253.227 154.102 249.964C155.959 242.654 157.621 234.952 159.237 227.491C166.531 193.736 174.083 158.833 202.597 138.459L203.473 139.697C175.442 159.724 167.951 194.34 160.717 227.808C159.101 235.284 157.424 243.002 155.567 250.327C154.736 253.559 153.89 257.954 152.908 263.044C148.377 286.151 141.672 321.07 123.533 324.181C122.597 324.31 121.653 324.366 120.709 324.347Z" fill="#111111" fill-opacity="0.2"/>
<path d="M107.901 352.272C94.7616 352.272 81.033 336.097 71.7446 325.087C70.4004 323.501 69.162 322.066 68.0594 320.798C64.2082 316.433 60.5079 312.083 56.9436 307.884C40.8891 289.066 25.7256 271.199 1.74196 259.434L2.40649 258.075C26.6771 269.991 41.9312 287.948 58.0914 306.963C61.6557 311.162 65.356 315.511 69.1922 319.861C70.2947 321.1 71.5331 322.565 72.8924 324.165C82.0449 334.964 97.3745 353.043 110.499 350.52C129.166 346.956 140.328 302.765 145.1 283.886C145.795 281.167 146.339 279.023 146.761 277.527C149.948 266.472 152.501 254.873 155.219 242.7C163.873 203.734 172.814 163.454 202.552 138.489L203.519 139.636C174.173 164.33 165.293 204.353 156.699 243.077C153.981 255.326 151.413 266.895 148.211 277.995C147.788 279.506 147.26 281.59 146.565 284.309C141.732 303.459 130.39 348.3 110.771 352.061C109.823 352.221 108.862 352.292 107.901 352.272Z" fill="#111111" fill-opacity="0.2"/>
<path d="M102.328 372.269C82.8001 372.269 65.8394 350.822 49.377 329.98C36.3733 313.578 24.0945 298.128 10.9549 292.766L11.5137 291.377C25.1064 296.799 37.4305 312.521 50.5551 329.134C68.6787 351.985 87.3159 375.606 108.838 369.913C130.36 364.219 140.554 319 146.761 291.936C147.94 286.755 148.951 282.27 149.858 278.992C152.878 268.012 155.355 256.776 157.998 244.859C166.546 206.286 175.382 166.324 202.492 138.489L203.579 139.546C176.756 167.139 167.966 206.815 159.478 245.192C156.941 256.594 154.343 268.375 151.308 279.4C150.416 282.647 149.405 287.103 148.287 292.268C142.049 319.68 131.674 365.533 109.291 371.378C107.018 371.971 104.678 372.27 102.328 372.269Z" fill="#111111" fill-opacity="0.2"/>
<path d="M106.436 377.963C102.661 377.967 98.9583 376.922 95.7433 374.942C77.4837 363.947 71.5785 324.89 67.2288 296.406C66.2081 288.491 64.7866 280.632 62.9697 272.86L64.48 272.453C66.3178 280.298 67.7545 288.233 68.7844 296.225C73.0133 324.437 78.8732 363.071 96.5287 373.643C101.83 376.845 107.992 377.253 114.864 374.866C137.156 367.088 146.731 325.525 153.059 298.022C154.298 292.63 155.385 287.963 156.412 284.112C160.052 270.625 163.058 256.776 165.973 243.334C173.766 207.51 181.816 170.462 202.401 138.519L203.67 139.334C183.22 171.051 175.2 207.963 167.422 243.651C164.508 257.078 161.487 270.957 157.847 284.429C156.82 288.266 155.748 292.902 154.509 298.294C148.09 326.114 138.409 368.161 115.332 376.211C112.487 377.292 109.479 377.884 106.436 377.963Z" fill="#111111" fill-opacity="0.2"/>
<path d="M111.858 377.676C109.166 377.724 106.516 377.007 104.216 375.606C89.8381 366.65 92.8436 331.128 94.8221 307.643C95.2601 302.387 95.6528 297.826 95.7585 294.412H97.2688C97.1631 297.871 96.7704 302.447 96.3324 307.733C94.369 330.856 91.4239 365.835 105.017 374.292C110.544 377.736 118.609 376.346 128.925 370.124C154.509 354.764 163.163 316.297 169.492 288.22C169.96 286.106 170.428 284.052 170.881 282.058C174.763 265.173 177.3 247.895 179.762 231.176C184.293 200.275 189.02 168.317 202.416 138.67L203.806 139.304C190.56 168.74 185.863 200.592 181.332 231.433C178.871 248.182 176.318 265.49 172.437 282.436C171.968 284.414 171.515 286.468 171.032 288.583C164.659 316.931 155.929 355.746 129.786 371.453C122.823 375.591 116.842 377.676 111.858 377.676Z" fill="#111111" fill-opacity="0.2"/>
<path d="M87.044 391.012L86.9232 389.501C126.569 386.481 145.372 373.643 157.334 362.844C195.967 327.926 195.257 276.47 194.563 226.706C194.155 196.499 193.717 165.357 202.31 138.791L203.821 139.244C195.288 165.584 195.726 196.635 196.133 226.69C196.828 276.787 197.553 328.576 158.376 363.962C135.238 384.85 108.052 389.396 87.044 391.012Z" fill="#111111" fill-opacity="0.2"/>
<path d="M96.3777 462.978L95.1543 462.087C107.358 445.473 120.633 427.863 136.884 412.398C145.358 404.645 154.236 397.345 163.481 390.528C177.677 379.654 192.358 368.418 202.854 354.795C222.171 329.693 222.488 299.14 220.162 272.543C218.969 258.618 214.816 242.79 210.421 226.041C202.401 195.457 194.125 163.847 202.31 138.776L203.821 139.259C195.771 163.907 204.002 195.291 211.961 225.648C216.371 242.473 220.525 258.362 221.733 272.468C224.044 299.336 223.757 330.252 204.123 355.746C193.551 369.55 178.75 380.847 164.477 391.767C155.278 398.554 146.441 405.819 138.002 413.53C121.766 428.875 108.536 446.379 96.3777 462.978Z" fill="#111111" fill-opacity="0.2"/>
<path d="M136.642 482.159L135.328 481.434C149.314 456.03 167.906 434.221 195.605 410.736C200.876 406.205 206.781 401.81 213.049 397.143C231.278 383.385 251.939 367.798 260.548 348.179C277.916 308.519 255.654 270.036 234.117 232.807C216.477 202.299 198.233 170.764 202.28 138.987L203.791 139.168C199.803 170.447 217.912 201.755 235.507 232.052C257.225 269.598 279.683 308.428 261.998 348.784C253.238 368.765 232.411 384.472 214.03 398.352C207.793 403.049 201.948 407.504 196.662 411.944C169.023 435.248 150.537 456.921 136.642 482.159Z" fill="#111111" fill-opacity="0.2"/>
<path d="M188.808 457.405L187.509 456.634C203.292 430.083 225.418 414.467 252.694 396.811C256.455 394.38 260.94 391.767 265.683 388.988C286.268 376.905 311.868 361.968 316.323 341.7C321.715 317.052 298.955 287.812 282.341 266.457C279.457 262.756 276.723 259.253 274.397 256.096C268.356 247.85 261.605 239.483 255.096 231.327C232.532 203.19 209.197 174.086 202.235 139.198L203.745 138.896C210.572 173.452 233.785 202.42 256.243 230.421C262.768 238.546 269.504 246.959 275.59 255.22C277.901 258.361 280.62 261.865 283.504 265.566C300.299 287.148 323.316 316.705 317.758 342.047C313.227 362.965 287.25 378.129 266.408 390.377C261.665 393.141 257.21 395.754 253.464 398.17C226.4 415.629 204.425 431.14 188.808 457.405Z" fill="#111111" fill-opacity="0.2"/>
<path d="M366.7 222.885L382.54 261H375.72L373.135 254.73H360.21L357.57 261H350.75L366.7 222.885ZM362.85 248.46H370.495L366.7 239.275L362.85 248.46ZM402.599 261H396.329V223.215H402.599V261ZM445.74 254.73H461.525V261H439.47V223.215H445.74V254.73ZM491.223 222.885L507.063 261H500.243L497.658 254.73H484.733L482.093 261H475.273L491.223 222.885ZM487.373 248.46H495.018L491.223 239.275L487.373 248.46ZM553.512 223.215H560.332L544.492 261.33L535.087 239.11L525.462 261.22L509.842 223.215H516.607L525.627 245.05L535.142 223.215H535.252L544.437 244.995L553.512 223.215ZM588.289 240.265C592.414 241.86 595.109 245.765 595.109 250.165V250.33C595.109 256.16 590.379 260.89 584.604 260.89H582.899C577.784 260.89 573.384 257.205 572.504 252.145L578.719 251.045C579.104 253.08 580.864 254.565 582.899 254.565H584.604C586.914 254.565 588.839 252.695 588.839 250.33V250.165C588.839 248.405 587.739 246.81 586.089 246.205L579.214 243.62C574.429 241.805 571.624 236.855 572.559 231.85C573.439 226.845 577.839 223.215 582.899 223.215H584.604C588.619 223.16 592.304 225.47 594.064 229.1L588.399 231.85C587.684 230.42 586.199 229.485 584.604 229.485H582.899C580.864 229.485 579.104 230.97 578.719 233.005C578.389 234.985 579.489 236.965 581.414 237.735L588.289 240.265ZM659.195 234.545V240.87H656.5C660.35 247.03 658.48 255.115 652.32 259.02C646.215 262.925 638.075 261.165 634.115 255.115C630.155 249.01 631.805 240.87 637.8 236.8C635.765 233.665 635.93 229.54 638.24 226.57C640.605 223.6 644.565 222.39 648.085 223.655C651.66 224.865 654.08 228.22 654.08 232.015H647.755C647.755 230.64 646.6 229.485 645.225 229.485C643.85 229.485 642.695 230.64 642.695 232.015C642.695 233.39 643.85 234.545 645.225 234.545H659.195ZM645.225 254.785C649.075 254.785 652.21 251.65 652.21 247.8C652.21 243.95 649.075 240.87 645.225 240.87C641.375 240.87 638.24 243.95 638.24 247.8C638.24 251.65 641.375 254.785 645.225 254.785ZM714.538 245.05L725.538 261H717.838L707.003 245.27H702.328V261H696.058V223.215H712.338C718.003 223.215 722.733 227.505 723.283 233.115C723.833 238.78 720.093 243.895 714.538 245.05ZM702.328 238.945H712.338C714.043 239 715.693 238.12 716.573 236.635C717.453 235.15 717.453 233.28 716.573 231.795C715.693 230.31 714.043 229.43 712.338 229.485H702.328V238.945ZM762.813 229.485H745.543V238.945H760.173V245.27H745.543V254.73H762.813V261H739.273V223.215H762.813V229.485ZM795.501 238.945H809.526V254.895L808.536 255.83C801.056 262.925 789.231 262.76 782.026 255.39C774.766 248.075 774.711 236.25 781.971 228.88C789.176 221.51 800.946 221.29 808.481 228.33L804.136 232.95C799.241 228.33 791.596 228.385 786.756 233.005C781.916 237.625 781.531 245.27 785.931 250.33C790.276 255.445 797.866 256.215 803.201 252.09V245.27H795.501V238.945ZM844.958 223.215H851.228V247.085C851.228 254.785 844.958 261.055 837.258 261.055C829.503 261.055 823.288 254.785 823.288 247.085V223.215H829.558V247.085C829.558 251.32 833.023 254.73 837.258 254.73C841.493 254.73 844.958 251.32 844.958 247.085V223.215ZM871.324 254.73H887.109V261H865.054V223.215H871.324V254.73ZM916.807 222.885L932.647 261H925.827L923.242 254.73H910.317L907.677 261H900.857L916.807 222.885ZM912.957 248.46H920.602L916.807 239.275L912.957 248.46ZM940.958 223.215H964.058V229.485H955.643V261H949.318V229.485H940.958V223.215ZM984.052 261H977.782V223.215H984.052V261ZM1016.71 223.215C1027.16 223.215 1035.63 231.685 1035.63 242.135C1035.63 252.585 1027.16 261.055 1016.71 261.055C1006.32 261.055 997.849 252.585 997.849 242.135C997.849 231.685 1006.32 223.215 1016.71 223.215ZM1016.71 254.73C1023.7 254.73 1029.36 249.065 1029.36 242.135C1029.36 235.15 1023.7 229.485 1016.71 229.485C1009.78 229.485 1004.12 235.15 1004.12 242.135C1004.12 249.065 1009.78 254.73 1016.71 254.73ZM1073.09 223.215H1079.36V261.165L1055.71 238.065V261H1049.44V223.05L1073.09 246.205V223.215ZM1109.04 240.265C1113.16 241.86 1115.86 245.765 1115.86 250.165V250.33C1115.86 256.16 1111.13 260.89 1105.35 260.89H1103.65C1098.53 260.89 1094.13 257.205 1093.25 252.145L1099.47 251.045C1099.85 253.08 1101.61 254.565 1103.65 254.565H1105.35C1107.66 254.565 1109.59 252.695 1109.59 250.33V250.165C1109.59 248.405 1108.49 246.81 1106.84 246.205L1099.96 243.62C1095.18 241.805 1092.37 236.855 1093.31 231.85C1094.19 226.845 1098.59 223.215 1103.65 223.215H1105.35C1109.37 223.16 1113.05 225.47 1114.81 229.1L1109.15 231.85C1108.43 230.42 1106.95 229.485 1105.35 229.485H1103.65C1101.61 229.485 1099.85 230.97 1099.47 233.005C1099.14 234.985 1100.24 236.965 1102.16 237.735L1109.04 240.265Z" fill="black"/>
<path d="M354.8 294.4L363.025 303H359.05L352.1 295.75V303H349.25V285.825H352.1V293.1L358.975 285.825H362.925L354.8 294.4ZM379.984 288.675H372.134V292.975H378.784V295.85H372.134V300.15H379.984V303H369.284V285.825H379.984V288.675ZM396.942 288.675H389.092V292.975H395.742V295.85H389.092V300.15H396.942V303H386.242V285.825H396.942V288.675ZM410.6 285.825C413.325 285.875 415.5 288.1 415.5 290.825C415.5 293.55 413.325 295.8 410.6 295.85H406.05V303H403.2V285.825H410.6ZM410.6 292.975C411.75 292.95 412.675 292 412.675 290.825C412.675 289.675 411.75 288.725 410.6 288.675H406.05V292.975H410.6ZM424.595 303H421.745V285.825H424.595V303ZM441.616 285.825H444.466V303.075L433.716 292.575V303H430.866V285.75L441.616 296.275V285.825ZM459.329 292.975H465.704V300.225L465.254 300.65C461.854 303.875 456.479 303.8 453.204 300.45C449.904 297.125 449.879 291.75 453.179 288.4C456.454 285.05 461.804 284.95 465.229 288.15L463.254 290.25C461.029 288.15 457.554 288.175 455.354 290.275C453.154 292.375 452.979 295.85 454.979 298.15C456.954 300.475 460.404 300.825 462.829 298.95V295.85H459.329V292.975ZM492.298 285.825H495.148V296.675C495.148 300.175 492.298 303.025 488.798 303.025C485.273 303.025 482.448 300.175 482.448 296.675V285.825H485.298V296.675C485.298 298.6 486.873 300.15 488.798 300.15C490.723 300.15 492.298 298.6 492.298 296.675V285.825ZM508.833 285.825C511.558 285.875 513.733 288.1 513.733 290.825C513.733 293.55 511.558 295.8 508.833 295.85H504.283V303H501.433V285.825H508.833ZM508.833 292.975C509.983 292.95 510.908 292 510.908 290.825C510.908 289.675 509.983 288.725 508.833 288.675H504.283V292.975H508.833ZM550.316 285.825H553.416L546.216 303.15L541.941 293.05L537.566 303.1L530.466 285.825H533.541L537.641 295.75L541.966 285.825H542.016L546.191 295.725L550.316 285.825ZM562.505 303H559.655V285.825H562.505V303ZM568.776 285.825H579.276V288.675H575.451V303H572.576V288.675H568.776V285.825ZM596.24 285.825H599.115V303H596.24V295.85H588.365V303H585.515V285.825H588.365V292.975H596.24V285.825ZM623.116 285.675L630.316 303H627.216L626.041 300.15H620.166L618.966 303H615.866L623.116 285.675ZM621.366 297.3H624.841L623.116 293.125L621.366 297.3ZM654.297 293.575C656.172 294.3 657.397 296.075 657.397 298.075V298.15C657.397 300.8 655.247 302.95 652.622 302.95H651.847C649.522 302.95 647.522 301.275 647.122 298.975L649.947 298.475C650.122 299.4 650.922 300.075 651.847 300.075H652.622C653.672 300.075 654.547 299.225 654.547 298.15V298.075C654.547 297.275 654.047 296.55 653.297 296.275L650.172 295.1C647.997 294.275 646.722 292.025 647.147 289.75C647.547 287.475 649.547 285.825 651.847 285.825H652.622C654.447 285.8 656.122 286.85 656.922 288.5L654.347 289.75C654.022 289.1 653.347 288.675 652.622 288.675H651.847C650.922 288.675 650.122 289.35 649.947 290.275C649.797 291.175 650.297 292.075 651.172 292.425L654.297 293.575ZM674.389 285.825H677.264V303H674.389V295.85H666.514V303H663.664V285.825H666.514V292.975H674.389V285.825ZM686.377 303H683.527V285.825H686.377V303ZM703.348 288.675H695.498V292.975H702.148V295.85H695.498V303H692.648V285.825H703.348V288.675ZM709.606 285.825H720.106V288.675H716.281V303H713.406V288.675H709.606V285.825ZM729.195 303H726.345V285.825H729.195V303ZM746.216 285.825H749.066V303.075L738.316 292.575V303H735.466V285.75L746.216 296.275V285.825ZM763.929 292.975H770.304V300.225L769.854 300.65C766.454 303.875 761.079 303.8 757.804 300.45C754.504 297.125 754.479 291.75 757.779 288.4C761.054 285.05 766.404 284.95 769.829 288.15L767.854 290.25C765.629 288.15 762.154 288.175 759.954 290.275C757.754 292.375 757.579 295.85 759.579 298.15C761.554 300.475 765.004 300.825 767.429 298.95V295.85H763.929V292.975ZM787.048 285.825H797.548V288.675H793.723V303H790.848V288.675H787.048V285.825ZM811.116 285.825C815.866 285.825 819.716 289.675 819.716 294.425C819.716 299.175 815.866 303.025 811.116 303.025C806.391 303.025 802.541 299.175 802.541 294.425C802.541 289.675 806.391 285.825 811.116 285.825ZM811.116 300.15C814.291 300.15 816.866 297.575 816.866 294.425C816.866 291.25 814.291 288.675 811.116 288.675C807.966 288.675 805.391 291.25 805.391 294.425C805.391 297.575 807.966 300.15 811.116 300.15ZM834.568 285.825C839.318 285.825 843.168 289.675 843.168 294.425C843.168 299.175 839.318 303.025 834.568 303.025C829.843 303.025 825.993 299.175 825.993 294.425C825.993 289.675 829.843 285.825 834.568 285.825ZM834.568 300.15C837.743 300.15 840.318 297.575 840.318 294.425C840.318 291.25 837.743 288.675 834.568 288.675C831.418 288.675 828.843 291.25 828.843 294.425C828.843 297.575 831.418 300.15 834.568 300.15ZM852.295 300.15H859.47V303H849.445V285.825H852.295V300.15Z" fill="#515151"/>
</svg>
