<svg width="714" height="220" viewBox="0 0 714 220" fill="none" xmlns="http://www.w3.org/2000/svg">
<g clip-path="url(#clip0_153_4841)">
<path d="M196.71 85.5393L196.321 0.428589" stroke="black" stroke-width="0.731186" stroke-miterlimit="10"/>
<path d="M195.329 85.6531L181.63 1.65295" stroke="black" stroke-width="0.731186" stroke-miterlimit="10"/>
<path d="M193.98 85.9862L167.31 5.16028" stroke="black" stroke-width="0.731186" stroke-miterlimit="10"/>
<path d="M192.7 86.5213L153.714 10.8629" stroke="black" stroke-width="0.731186" stroke-miterlimit="10"/>
<path d="M191.52 87.2538L141.177 18.6259" stroke="black" stroke-width="0.731186" stroke-miterlimit="10"/>
<path d="M190.466 88.1578L130.009 28.2499" stroke="black" stroke-width="0.731186" stroke-miterlimit="10"/>
<path d="M189.571 89.2204L120.487 39.5057" stroke="black" stroke-width="0.731186" stroke-miterlimit="10"/>
<path d="M188.85 90.4068L112.839 52.1125" stroke="black" stroke-width="0.731186" stroke-miterlimit="10"/>
<path d="M188.326 91.6914L107.26 65.7598" stroke="black" stroke-width="0.731186" stroke-miterlimit="10"/>
<path d="M188.005 93.0439L103.884 80.1112" stroke="black" stroke-width="0.731186" stroke-miterlimit="10"/>
<path d="M187.904 94.4253L102.794 94.8135" stroke="black" stroke-width="0.731186" stroke-miterlimit="10"/>
<path d="M205.596 94.3447L290.706 93.9566" stroke="black" stroke-width="0.731186" stroke-miterlimit="10"/>
<path d="M205.482 92.9641L289.482 79.2647" stroke="black" stroke-width="0.731186" stroke-miterlimit="10"/>
<path d="M205.149 91.6146L285.975 64.9447" stroke="black" stroke-width="0.731186" stroke-miterlimit="10"/>
<path d="M204.614 90.3349L280.272 51.349" stroke="black" stroke-width="0.731186" stroke-miterlimit="10"/>
<path d="M203.881 89.1551L272.513 38.8124" stroke="black" stroke-width="0.731186" stroke-miterlimit="10"/>
<path d="M202.977 88.1007L262.885 27.6439" stroke="black" stroke-width="0.731186" stroke-miterlimit="10"/>
<path d="M201.919 87.2064L251.629 18.1222" stroke="black" stroke-width="0.731186" stroke-miterlimit="10"/>
<path d="M200.732 86.4846L239.022 10.4738" stroke="black" stroke-width="0.731186" stroke-miterlimit="10"/>
<path d="M199.444 85.9613L225.375 4.89543" stroke="black" stroke-width="0.731186" stroke-miterlimit="10"/>
<path d="M198.095 85.6405L211.024 1.51888" stroke="black" stroke-width="0.731186" stroke-miterlimit="10"/>
</g>
<g clip-path="url(#clip1_153_4841)">
<path d="M94.4253 103.698L94.8134 188.808" stroke="black" stroke-width="0.731186" stroke-miterlimit="10"/>
<path d="M95.8059 103.584L109.505 187.584" stroke="black" stroke-width="0.731186" stroke-miterlimit="10"/>
<path d="M97.1553 103.251L123.825 184.077" stroke="black" stroke-width="0.731186" stroke-miterlimit="10"/>
<path d="M98.4351 102.716L137.421 178.374" stroke="black" stroke-width="0.731186" stroke-miterlimit="10"/>
<path d="M99.6149 101.983L149.958 170.611" stroke="black" stroke-width="0.731186" stroke-miterlimit="10"/>
<path d="M100.669 101.079L161.126 160.987" stroke="black" stroke-width="0.731186" stroke-miterlimit="10"/>
<path d="M101.564 100.016L170.648 149.731" stroke="black" stroke-width="0.731186" stroke-miterlimit="10"/>
<path d="M102.285 98.83L178.296 137.124" stroke="black" stroke-width="0.731186" stroke-miterlimit="10"/>
<path d="M102.809 97.5456L183.875 123.477" stroke="black" stroke-width="0.731186" stroke-miterlimit="10"/>
<path d="M103.129 96.1931L187.251 109.126" stroke="black" stroke-width="0.731186" stroke-miterlimit="10"/>
<path d="M103.231 94.8115L188.341 94.4233" stroke="black" stroke-width="0.731186" stroke-miterlimit="10"/>
<path d="M85.5391 94.8922L0.428462 95.2804" stroke="black" stroke-width="0.731186" stroke-miterlimit="10"/>
<path d="M85.653 96.2729L1.65288 109.972" stroke="black" stroke-width="0.731186" stroke-miterlimit="10"/>
<path d="M85.9861 97.6222L5.16017 124.292" stroke="black" stroke-width="0.731186" stroke-miterlimit="10"/>
<path d="M86.5212 98.9019L10.8628 137.888" stroke="black" stroke-width="0.731186" stroke-miterlimit="10"/>
<path d="M87.2537 100.082L18.6215 150.425" stroke="black" stroke-width="0.731186" stroke-miterlimit="10"/>
<path d="M88.1577 101.136L28.2498 161.593" stroke="black" stroke-width="0.731186" stroke-miterlimit="10"/>
<path d="M89.2159 102.031L39.5056 171.115" stroke="black" stroke-width="0.731186" stroke-miterlimit="10"/>
<path d="M90.4024 102.752L52.1125 178.763" stroke="black" stroke-width="0.731186" stroke-miterlimit="10"/>
<path d="M91.6913 103.276L65.7597 184.341" stroke="black" stroke-width="0.731186" stroke-miterlimit="10"/>
<path d="M93.0394 103.596L80.1111 187.718" stroke="black" stroke-width="0.731186" stroke-miterlimit="10"/>
</g>
<path d="M204.972 203.866L209.184 214.015L207.37 214.015L206.683 212.348L203.246 212.348L202.545 214.015L200.731 214.015L204.972 203.866ZM203.948 210.666L205.981 210.666L204.972 208.224L203.948 210.666ZM216.547 203.954L218.36 203.954L214.134 214.058L209.922 203.954L211.736 203.954L214.134 209.715L216.547 203.954ZM226.315 203.954C229.093 203.954 231.345 206.206 231.345 208.984C231.345 211.763 229.093 214.015 226.315 214.015C223.551 214.015 221.299 211.763 221.299 208.984C221.299 206.206 223.551 203.954 226.315 203.954ZM226.315 212.333C228.172 212.333 229.678 210.827 229.678 208.984C229.678 207.127 228.172 205.621 226.315 205.621C224.472 205.621 222.966 207.127 222.966 208.984C222.966 210.827 224.472 212.333 226.315 212.333ZM236.684 214L235.017 214L235.017 203.954L236.684 203.954L236.684 214ZM243.277 203.954C246.056 203.954 248.308 206.206 248.308 208.984C248.308 211.763 246.056 214.015 243.277 214.015L240.352 214.015L240.352 203.954L243.277 203.954ZM243.277 212.333C245.134 212.333 246.641 210.827 246.641 208.984C246.641 207.127 245.134 205.621 243.277 205.621L242.019 205.621L242.019 212.333L243.277 212.333ZM263.122 203.954C265.901 203.954 268.153 206.206 268.153 208.984C268.153 211.763 265.901 214.015 263.122 214.015C260.359 214.015 258.106 211.763 258.106 208.984C258.106 206.206 260.359 203.954 263.122 203.954ZM263.122 212.333C264.98 212.333 266.486 210.827 266.486 208.984C266.486 207.127 264.98 205.621 263.122 205.621C261.28 205.621 259.774 207.127 259.774 208.984C259.774 210.827 261.28 212.333 263.122 212.333ZM277.721 203.954L279.534 203.954L275.308 214.058L271.096 203.954L272.91 203.954L275.308 209.715L277.721 203.954ZM289.46 205.621L284.868 205.621L284.868 208.136L288.758 208.136L288.758 209.818L284.868 209.818L284.868 212.333L289.46 212.333L289.46 214L283.201 214L283.201 203.954L289.46 203.954L289.46 205.621ZM298.034 209.759L300.959 214L298.912 214L296.031 209.818L294.788 209.818L294.788 214L293.121 214L293.121 203.954L297.449 203.954C298.955 203.954 300.213 205.094 300.359 206.586C300.506 208.092 299.511 209.452 298.034 209.759ZM294.788 208.136L297.449 208.136C297.903 208.151 298.341 207.917 298.575 207.522C298.809 207.127 298.809 206.63 298.575 206.235C298.341 205.84 297.903 205.606 297.449 205.621L294.788 205.621L294.788 208.136ZM309.627 209.818L304.611 209.818L304.611 208.136L309.627 208.136L309.627 209.818ZM318.216 209.759L321.141 214.015L319.093 214.015L316.213 209.818L314.97 209.818L314.97 214.015L313.302 214.015L313.302 203.954L317.631 203.954C319.137 203.954 320.395 205.094 320.541 206.586C320.687 208.092 319.693 209.452 318.216 209.759ZM314.97 208.136L317.631 208.136C318.084 208.151 318.523 207.917 318.757 207.522C318.991 207.127 318.991 206.644 318.757 206.249C318.523 205.855 318.084 205.606 317.631 205.621L314.97 205.621L314.97 208.136ZM331.052 205.621L326.46 205.621L326.46 208.136L330.35 208.136L330.35 209.818L326.46 209.818L326.46 212.333L331.052 212.333L331.052 214L324.793 214L324.793 203.954L331.052 203.954L331.052 205.621ZM336.38 212.333L340.577 212.333L340.577 214L334.712 214L334.712 203.954L336.38 203.954L336.38 212.333ZM345.899 214L344.232 214L344.232 203.954L345.899 203.954L345.899 214ZM353.808 203.866L358.02 214L356.207 214L355.519 212.333L352.083 212.333L351.381 214L349.568 214L353.808 203.866ZM352.785 210.666L354.817 210.666L353.808 208.224L352.785 210.666ZM367.975 203.954L369.642 203.954L369.642 214.044L363.354 207.902L363.354 214L361.686 214L361.686 203.91L367.975 210.066L367.975 203.954ZM380.632 211.412L381.787 212.625C379.813 214.512 376.669 214.468 374.753 212.508C372.823 210.563 372.808 207.419 374.739 205.46C376.654 203.5 379.784 203.442 381.773 205.314L380.632 206.542C379.301 205.284 377.21 205.328 375.938 206.63C374.651 207.946 374.651 210.037 375.938 211.338C377.225 212.64 379.316 212.669 380.632 211.412ZM391.712 205.621L387.12 205.621L387.12 208.136L391.01 208.136L391.01 209.818L387.12 209.818L387.12 212.333L391.712 212.333L391.712 214L385.453 214L385.453 203.954L391.712 203.954L391.712 205.621Z" fill="#515151"/>
<path d="M213.866 128.528L226.696 109.019V137.041H222.012V124.578L213.866 137L205.68 124.578V137.041H201.036V109.019L213.866 128.528ZM241.58 137H236.937V109.019H241.58V137ZM263.568 121.645C266.622 122.826 268.618 125.718 268.618 128.976V129.099C268.618 133.416 265.116 136.919 260.839 136.919H259.576C255.788 136.919 252.53 134.19 251.878 130.443L256.481 129.628C256.766 131.135 258.069 132.235 259.576 132.235H260.839C262.55 132.235 263.975 130.85 263.975 129.099V128.976C263.975 127.673 263.161 126.492 261.939 126.044L256.847 124.13C253.304 122.785 251.227 119.12 251.919 115.413C252.571 111.707 255.829 109.019 259.576 109.019H260.839C263.812 108.978 266.541 110.689 267.844 113.377L263.649 115.413C263.12 114.354 262.02 113.662 260.839 113.662H259.576C258.069 113.662 256.766 114.762 256.481 116.269C256.237 117.735 257.051 119.201 258.477 119.771L263.568 121.645ZM294.875 109.019H299.518V126.695C299.518 132.398 294.875 137.041 289.173 137.041C283.43 137.041 278.828 132.398 278.828 126.695V109.019H283.471V126.695C283.471 129.832 286.037 132.357 289.173 132.357C292.309 132.357 294.875 129.832 294.875 126.695V109.019ZM321.528 121.645C324.582 122.826 326.578 125.718 326.578 128.976V129.099C326.578 133.416 323.075 136.919 318.799 136.919H317.536C313.748 136.919 310.49 134.19 309.838 130.443L314.441 129.628C314.726 131.135 316.029 132.235 317.536 132.235H318.799C320.509 132.235 321.935 130.85 321.935 129.099V128.976C321.935 127.673 321.12 126.492 319.898 126.044L314.807 124.13C311.264 122.785 309.187 119.12 309.879 115.413C310.531 111.707 313.789 109.019 317.536 109.019H318.799C321.772 108.978 324.501 110.689 325.804 113.377L321.609 115.413C321.08 114.354 319.98 113.662 318.799 113.662H317.536C316.029 113.662 314.726 114.762 314.441 116.269C314.196 117.735 315.011 119.201 316.436 119.771L321.528 121.645ZM341.431 137H336.788V109.019H341.431V137ZM369.161 109.019H373.804V137.122L356.291 120.016V137H351.648V108.897L369.161 126.044V109.019ZM398.019 120.668H408.405V132.479L407.672 133.171C402.133 138.426 393.376 138.303 388.041 132.846C382.664 127.429 382.624 118.672 388 113.214C393.335 107.756 402.051 107.593 407.631 112.807L404.414 116.228C400.789 112.807 395.127 112.847 391.543 116.269C387.959 119.69 387.674 125.351 390.932 129.099C394.15 132.886 399.771 133.457 403.721 130.402V125.351H398.019V120.668ZM435.684 109.019H452.79V113.703H446.558V137.041H441.875V113.703H435.684V109.019ZM474.895 109.019C482.633 109.019 488.906 115.291 488.906 123.03C488.906 130.768 482.633 137.041 474.895 137.041C467.197 137.041 460.925 130.768 460.925 123.03C460.925 115.291 467.197 109.019 474.895 109.019ZM474.895 132.357C480.068 132.357 484.263 128.162 484.263 123.03C484.263 117.857 480.068 113.662 474.895 113.662C469.763 113.662 465.568 117.857 465.568 123.03C465.568 128.162 469.763 132.357 474.895 132.357ZM513.103 109.019C520.841 109.019 527.113 115.291 527.113 123.03C527.113 130.768 520.841 137.041 513.103 137.041C505.405 137.041 499.132 130.768 499.132 123.03C499.132 115.291 505.405 109.019 513.103 109.019ZM513.103 132.357C518.275 132.357 522.47 128.162 522.47 123.03C522.47 117.857 518.275 113.662 513.103 113.662C507.971 113.662 503.775 117.857 503.775 123.03C503.775 128.162 507.971 132.357 513.103 132.357ZM541.983 132.357H553.672V137H537.34V109.019H541.983V132.357ZM575.625 121.645C578.679 122.826 580.675 125.718 580.675 128.976V129.099C580.675 133.416 577.172 136.919 572.896 136.919H571.633C567.845 136.919 564.587 134.19 563.935 130.443L568.538 129.628C568.823 131.135 570.126 132.235 571.633 132.235H572.896C574.606 132.235 576.032 130.85 576.032 129.099V128.976C576.032 127.673 575.217 126.492 573.995 126.044L568.904 124.13C565.361 122.785 563.284 119.12 563.976 115.413C564.628 111.707 567.886 109.019 571.633 109.019H572.896C575.869 108.978 578.598 110.689 579.901 113.377L575.706 115.413C575.177 114.354 574.077 113.662 572.896 113.662H571.633C570.126 113.662 568.823 114.762 568.538 116.269C568.293 117.735 569.108 119.201 570.533 119.771L575.625 121.645ZM619.784 108.775L631.514 137H626.463L624.549 132.357H614.977L613.022 137H607.972L619.784 108.775ZM616.932 127.714H622.594L619.784 120.912L616.932 127.714ZM659.238 109.019H663.882V137.122L646.368 120.016V137H641.725V108.897L659.238 126.044V109.019ZM682.231 109.019C689.97 109.019 696.242 115.291 696.242 123.03C696.242 130.768 689.97 137.041 682.231 137.041H674.086V109.019H682.231ZM682.231 132.357C687.404 132.357 691.599 128.162 691.599 123.03C691.599 117.857 687.404 113.662 682.231 113.662H678.729V132.357H682.231ZM212.848 152.775L224.578 181.041H219.528L217.613 176.398H208.042L206.087 181.041H201.036L212.848 152.775ZM209.997 171.714H215.658L212.848 164.912L209.997 171.714ZM250.837 153.019H255.48V170.695C255.48 176.398 250.837 181.041 245.135 181.041C239.392 181.041 234.789 176.398 234.789 170.695V153.019H239.432V170.695C239.432 173.832 241.998 176.357 245.135 176.357C248.271 176.357 250.837 173.832 250.837 170.695V153.019ZM265.718 153.019H282.825V157.662H276.593V181H271.909V157.662H265.718V153.019ZM304.929 153.019C312.668 153.019 318.94 159.291 318.94 167.03C318.94 174.768 312.668 181.041 304.929 181.041C297.232 181.041 290.959 174.768 290.959 167.03C290.959 159.291 297.232 153.019 304.929 153.019ZM304.929 176.357C310.102 176.357 314.297 172.162 314.297 167.03C314.297 161.857 310.102 157.662 304.929 157.662C299.798 157.662 295.602 161.857 295.602 167.03C295.602 172.162 299.798 176.357 304.929 176.357ZM341.997 172.488L354.826 153.019V181H350.142V168.578L341.997 181L333.81 168.578V181H329.167V153.019L341.997 172.488ZM376.879 152.775L388.609 181H383.559L381.644 176.357H372.073L370.118 181H365.068L376.879 152.775ZM374.028 171.714H379.689L376.879 164.912L374.028 171.714ZM394.763 153.019H411.87V157.662H405.638V181H400.954V157.662H394.763V153.019ZM426.676 181H422.033V153.019H426.676V181ZM450.863 153.019C458.602 153.019 464.874 159.291 464.874 167.03C464.874 174.768 458.602 181.041 450.863 181.041C443.165 181.041 436.893 174.768 436.893 167.03C436.893 159.291 443.165 153.019 450.863 153.019ZM450.863 176.357C456.036 176.357 460.231 172.162 460.231 167.03C460.231 161.857 456.036 157.662 450.863 157.662C445.731 157.662 441.536 161.857 441.536 167.03C441.536 172.162 445.731 176.357 450.863 176.357ZM492.614 153.019H497.257V181.122L479.744 164.016V181H475.1V152.897L492.614 170.044V153.019ZM540.881 165.808C544.017 167.682 545.524 171.429 544.587 174.972C543.61 178.516 540.392 181 536.686 181H524.548V153.019H534.161C537.175 153.019 539.985 154.689 541.37 157.377C542.795 160.065 542.592 163.323 540.881 165.808ZM529.192 157.662V164.668H534.161C536.075 164.668 537.663 163.12 537.663 161.165C537.663 159.251 536.075 157.662 534.161 157.662H529.192ZM536.686 176.316C538.641 176.316 540.189 174.768 540.189 172.813C540.189 170.899 538.641 169.351 536.686 169.351H529.192V176.316H536.686ZM559.683 181H555.04V153.019H559.683V181ZM581.711 152.775L593.441 181H588.391L586.476 176.357H576.905L574.95 181H569.9L581.711 152.775ZM578.86 171.714H584.521L581.711 164.912L578.86 171.714ZM613.395 165.645C616.449 166.826 618.445 169.718 618.445 172.976V173.099C618.445 177.416 614.942 180.919 610.666 180.919H609.403C605.615 180.919 602.357 178.19 601.705 174.443L606.308 173.628C606.593 175.135 607.896 176.235 609.403 176.235H610.666C612.377 176.235 613.802 174.85 613.802 173.099V172.976C613.802 171.673 612.987 170.492 611.766 170.044L606.674 168.13C603.131 166.785 601.054 163.12 601.746 159.413C602.398 155.707 605.656 153.019 609.403 153.019H610.666C613.639 152.978 616.368 154.689 617.671 157.377L613.476 159.413C612.947 158.354 611.847 157.662 610.666 157.662H609.403C607.896 157.662 606.593 158.762 606.308 160.269C606.063 161.735 606.878 163.201 608.304 163.771L613.395 165.645Z" fill="black"/>
<defs>
<clipPath id="clip0_153_4841">
<rect width="187.915" height="187.915" fill="white" transform="translate(102.365 0.857056) rotate(-0.261304)"/>
</clipPath>
<clipPath id="clip1_153_4841">
<rect width="187.915" height="187.915" fill="white" transform="translate(188.77 188.38) rotate(179.739)"/>
</clipPath>
</defs>
</svg>
