<?xml version="1.0" encoding="UTF-8"?><svg id="Layer_1" xmlns="http://www.w3.org/2000/svg" viewBox="0 0 288.45 113.58"><defs><style>.cls-1,.cls-2{fill:none;stroke:#231f20;stroke-miterlimit:10;stroke-width:3px;}.cls-3{fill:#231f20;}.cls-2{stroke-linecap:square;}</style></defs><polyline class="cls-1" points="223.88 83.62 287.32 83.62 287.32 3.31 207 83.62 143.97 83.62"/><g><path class="cls-3" d="M7.08,103.71v8.98l-5.59-5.47v5.43H0v-8.97l5.59,5.47v-5.43h1.49Z"/><path class="cls-3" d="M17.07,112.65h-1.61l-.62-1.48h-3.06l-.62,1.48h-1.62l3.78-9.01,3.75,9.01Zm-2.85-2.97l-.9-2.17-.91,2.17h1.81Z"/><path class="cls-3" d="M26.14,103.71v5.64c0,1.83-1.48,3.31-3.31,3.31s-3.31-1.48-3.31-3.31v-5.64h1.49v5.64c0,1,.81,1.82,1.82,1.82s1.82-.81,1.82-1.82v-5.64h1.49Z"/><path class="cls-3" d="M34.07,103.71v1.49h-1.99v7.45h-1.49v-7.45h-1.99v-1.49h5.47Z"/><path class="cls-3" d="M36.52,112.65v-8.94h1.49v8.94h-1.49Z"/><path class="cls-3" d="M48.02,111.42c-1.77,1.68-4.55,1.64-6.26-.1-1.71-1.74-1.72-4.52-.01-6.27,1.7-1.74,4.49-1.8,6.26-.13l-1.02,1.08c-1.18-1.12-3.04-1.08-4.18,.08-1.14,1.16-1.13,3.02,0,4.18,1.14,1.16,3,1.19,4.18,.07l1.03,1.08Z"/><path class="cls-3" d="M57.35,112.65h-1.61l-.62-1.48h-3.06l-.62,1.48h-1.62l3.78-9.01,3.75,9.01Zm-2.85-2.97l-.9-2.17-.91,2.17h1.81Z"/><path class="cls-3" d="M65.03,111.16v1.49h-5.22v-8.94h1.49v7.45h3.73Z"/><path class="cls-3" d="M79.7,111.42c-1.77,1.68-4.55,1.64-6.26-.1-1.71-1.74-1.72-4.52-.01-6.27,1.7-1.74,4.49-1.8,6.26-.13l-1.02,1.08c-1.18-1.12-3.04-1.08-4.18,.08-1.14,1.16-1.13,3.02,0,4.18,1.14,1.16,3,1.19,4.18,.07l1.03,1.08Z"/><path class="cls-3" d="M89.13,112.65h-1.81l-2.56-3.72h-1.11v3.72h-1.49v-8.94h3.85c1.34,0,2.46,1.02,2.59,2.35,.13,1.33-.76,2.55-2.07,2.82l2.6,3.78Zm-3.12-5.22c.41,.01,.79-.2,1-.55,.21-.35,.21-.79,0-1.14-.21-.35-.59-.56-1-.55h-2.36v2.24h2.36Z"/><path class="cls-3" d="M91.58,112.65v-8.94h1.49v8.94h-1.49Z"/><path class="cls-3" d="M103.73,103.71v8.94h-1.49v-3.97l-2.61,3.96-2.61-3.96v3.97h-1.49v-8.94l4.1,6.22,4.1-6.22Z"/><path class="cls-3" d="M107.69,105.2v2.24h3.46v1.49h-3.46v2.23h4.08v1.49h-5.57v-8.94h5.57v1.49h-4.08Z"/><path class="cls-3" d="M118.88,112.65v-8.94h1.49v8.94h-1.49Z"/><path class="cls-3" d="M129.92,103.71v8.98l-5.59-5.47v5.43h-1.49v-8.97l5.59,5.47v-5.43h1.49Z"/><path class="cls-3" d="M139.89,103.71l-3.77,8.99-3.74-8.99h1.61l2.13,5.12,2.15-5.12h1.62Z"/><path class="cls-3" d="M143.84,105.2v2.24h3.46v1.49h-3.46v2.23h4.08v1.49h-5.57v-8.94h5.57v1.49h-4.08Z"/><path class="cls-3" d="M155.75,110.08v.04c0,1.38-1.12,2.49-2.49,2.49h-.39c-1.21,0-2.25-.87-2.46-2.06l1.47-.25c.08,.48,.5,.83,.99,.83h.39c.55,0,1-.45,1-1v-.04c0-.42-.26-.79-.65-.94l-1.62-.61c-1.13-.42-1.79-1.59-1.58-2.78,.21-1.19,1.25-2.05,2.45-2.05h.39c.95,0,1.82,.54,2.24,1.39l-1.34,.66c-.17-.34-.52-.56-.9-.56h-.39c-.48,0-.9,.35-.99,.82s.18,.95,.63,1.12l1.62,.61c.97,.37,1.61,1.3,1.62,2.33Z"/><path class="cls-3" d="M163.67,103.71v1.49h-1.99v7.45h-1.49v-7.45h-1.99v-1.49h5.47Z"/><path class="cls-3" d="M166.12,112.65v-8.94h1.49v8.94h-1.49Z"/><path class="cls-3" d="M177.87,107.44v3.77l-.23,.22c-1.77,1.68-4.56,1.64-6.27-.1-1.71-1.74-1.72-4.53-.01-6.27s4.49-1.8,6.27-.13l-1.02,1.08c-1.15-1.09-2.96-1.08-4.11,.01-1.15,1.1-1.24,2.9-.2,4.1,1.04,1.2,2.83,1.39,4.09,.42v-1.62h-1.82v-1.49h3.31Z"/><path class="cls-3" d="M187.85,112.65h-1.61l-.62-1.48h-3.06l-.62,1.48h-1.62l3.78-9.01,3.75,9.01Zm-2.85-2.97l-.9-2.17-.91,2.17h1.81Z"/><path class="cls-3" d="M194.47,103.71v1.49h-1.99v7.45h-1.49v-7.45h-1.99v-1.49h5.47Z"/><path class="cls-3" d="M196.92,112.65v-8.94h1.49v8.94h-1.49Z"/><path class="cls-3" d="M209.82,108.18c0,2.47-2,4.47-4.47,4.47s-4.47-2-4.47-4.47,2-4.47,4.47-4.47c2.47,0,4.47,2,4.47,4.47Zm-1.49,0c0-1.65-1.33-2.98-2.98-2.98s-2.98,1.33-2.98,2.98,1.33,2.98,2.98,2.98c1.65,0,2.98-1.34,2.98-2.98Z"/><path class="cls-3" d="M219.35,103.71v8.98l-5.59-5.47v5.43h-1.49v-8.97l5.59,5.47v-5.43h1.49Z"/><path class="cls-3" d="M231.86,110.08v.04c0,1.38-1.12,2.49-2.49,2.49h-.39c-1.21,0-2.25-.87-2.46-2.06l1.47-.25c.08,.48,.5,.83,.99,.83h.39c.55,0,1-.45,1-1v-.04c0-.42-.26-.79-.65-.94l-1.62-.61c-1.13-.42-1.79-1.59-1.58-2.78,.21-1.19,1.25-2.05,2.45-2.05h.39c.95,0,1.82,.54,2.24,1.39l-1.34,.66c-.17-.34-.52-.56-.9-.56h-.39c-.48,0-.9,.35-.99,.82s.18,.95,.63,1.12l1.62,.61c.97,.37,1.61,1.3,1.62,2.33Z"/><path class="cls-3" d="M235.81,105.2v2.24h3.46v1.49h-3.46v2.23h4.08v1.49h-5.57v-8.94h5.57v1.49h-4.08Z"/><path class="cls-3" d="M249.31,112.65h-1.81l-2.56-3.72h-1.11v3.72h-1.49v-8.94h3.85c1.34,0,2.46,1.02,2.59,2.35,.13,1.33-.76,2.55-2.07,2.82l2.6,3.78Zm-3.12-5.22c.41,.01,.79-.2,1-.55,.21-.35,.21-.79,0-1.14-.21-.35-.59-.56-1-.55h-2.36v2.24h2.36Z"/><path class="cls-3" d="M258.63,103.71l-3.77,8.99-3.74-8.99h1.61l2.13,5.12,2.15-5.12h1.62Z"/><path class="cls-3" d="M261.09,112.65v-8.94h1.49v8.94h-1.49Z"/><path class="cls-3" d="M272.59,111.42c-1.77,1.68-4.55,1.64-6.26-.1-1.71-1.74-1.72-4.52-.01-6.27,1.7-1.74,4.49-1.8,6.26-.13l-1.02,1.08c-1.18-1.12-3.04-1.08-4.18,.08-1.14,1.16-1.13,3.02,0,4.18,1.14,1.16,3,1.19,4.18,.07l1.03,1.08Z"/><path class="cls-3" d="M276.54,105.2v2.24h3.46v1.49h-3.46v2.23h4.08v1.49h-5.57v-8.94h5.57v1.49h-4.08Z"/><path class="cls-3" d="M288.45,110.08v.04c0,1.38-1.12,2.49-2.49,2.49h-.39c-1.21,0-2.25-.87-2.46-2.06l1.47-.25c.08,.48,.5,.83,.99,.83h.39c.55,0,1-.45,1-1v-.04c0-.42-.26-.79-.65-.94l-1.62-.61c-1.13-.42-1.79-1.59-1.58-2.78,.21-1.19,1.25-2.05,2.45-2.05h.39c.95,0,1.82,.54,2.24,1.39l-1.34,.66c-.17-.34-.52-.56-.9-.56h-.39c-.48,0-.9,.35-.99,.82s.18,.95,.63,1.12l1.62,.61c.97,.37,1.61,1.3,1.62,2.33Z"/></g><polyline class="cls-1" points="80.63 83.83 .99 3.62 .99 83.62"/><line class="cls-2" x1="81" y1="3.62" x2="81.08" y2="83.38"/><path class="cls-1" d="M140.94,83.62h-19.94c-22.09,0-40-17.91-40-40S98.91,3.62,121,3.62h19.94"/><line class="cls-1" x1="143.96" y1="3.62" x2="207" y2="3.62"/><line class="cls-1" x1="174.74" y1="3.62" x2="174.74" y2="83.71"/></svg>